SplineFontDB: 3.0
FontName: Merriweather-BoldItalic
FullName: Merriweather Bold Italic
FamilyName: Merriweather
Weight: Bold
Copyright: Copyright (c) 2013, Sorkin Type Co (www.sorkintype.com) with Reserved Font Name 'Merriweather'
Version: 1.001
ItalicAngle: -7
UnderlinePosition: -120
UnderlineWidth: 147
Ascent: 1638
Descent: 410
LayerCount: 2
Layer: 0 1 "Back"  1
Layer: 1 1 "Fore"  0
NeedsXUIDChange: 1
XUID: [1021 631 1661839179 14255215]
FSType: 0
OS2Version: 3
OS2_WeightWidthSlopeOnly: 0
OS2_UseTypoMetrics: 1
CreationTime: 1364465340
ModificationTime: 1364624072
PfmFamily: 17
TTFWeight: 700
TTFWidth: 5
LineGap: 0
VLineGap: 0
Panose: 2 0 8 3 6 0 0 9 0 4
OS2TypoAscent: 376
OS2TypoAOffset: 1
OS2TypoDescent: -150
OS2TypoDOffset: 1
OS2TypoLinegap: 0
OS2WinAscent: 5
OS2WinAOffset: 1
OS2WinDescent: 0
OS2WinDOffset: 1
HheadAscent: 5
HheadAOffset: 1
HheadDescent: 0
HheadDOffset: 1
OS2SubXSize: 1331
OS2SubYSize: 1229
OS2SubXOff: 0
OS2SubYOff: 154
OS2SupXSize: 1331
OS2SupYSize: 1229
OS2SupXOff: 0
OS2SupYOff: 717
OS2StrikeYSize: 102
OS2StrikeYPos: 512
OS2FamilyClass: 512
OS2Vendor: 'STC '
OS2CodePages: 20000093.00000000
OS2UnicodeRanges: a00000af.5000204b.00000000.00000000
Lookup: 1 0 0 "'aalt' Access All Alternates in Latin lookup 0"  {"'aalt' Access All Alternates in Latin lookup 0 subtable"  } ['aalt' ('DFLT' <'dflt' > 'latn' <'AZE ' 'CRT ' 'MOL ' 'ROM ' 'TRK ' 'dflt' > ) ]
Lookup: 3 0 0 "'aalt' Access All Alternates in Latin lookup 1"  {"'aalt' Access All Alternates in Latin lookup 1 subtable"  } ['aalt' ('DFLT' <'dflt' > 'latn' <'AZE ' 'CRT ' 'MOL ' 'ROM ' 'TRK ' 'dflt' > ) ]
Lookup: 1 0 0 "'locl' Localized Forms lookup 2"  {"'locl' Localized Forms lookup 2 subtable"  } ['locl' ('DFLT' <'AZE ' > ) ]
Lookup: 1 0 0 "'locl' Localized Forms lookup 3"  {"'locl' Localized Forms lookup 3 subtable"  } ['locl' ('DFLT' <'TRK ' > ) ]
Lookup: 4 0 0 "'locl' Localized Forms lookup 4"  {"'locl' Localized Forms lookup 4 subtable"  } ['locl' ('DFLT' <'TRK ' > ) ]

StartChar: .notdef
Encoding: 65536 -1 0
Width: 1872
Flags: HW
LayerCount: 2
Fore
SplineSet
228 1416 m 1,0,-1
 1644 1416 l 1,1,-1
 1644 0 l 1,2,-1
 228 0 l 1,3,-1
 228 1416 l 1,0,-1
586 219 m 1,4,-1
 933 587 l 1,5,-1
 1295 219 l 1,6,-1
 1417 341 l 1,7,-1
 1054 709 l 1,8,-1
 1417 1067 l 1,9,-1
 1289 1191 l 1,10,-1
 937 825 l 1,11,-1
 580 1193 l 1,12,-1
 457 1068 l 1,13,-1
 816 705 l 1,14,-1
 458 363 l 1,15,-1
 586 219 l 1,4,-1
EndSplineSet
EndChar

StartChar: numbersign
Encoding: 35 35 2
Width: 1405
Flags: HW
LayerCount: 2
Fore
SplineSet
310 365 m 1,0,-1
 111 365 l 1,1,-1
 127 519 l 1,2,-1
 337 519 l 1,3,-1
 392 874 l 1,4,-1
 185 874 l 1,5,-1
 197 1025 l 1,6,-1
 414 1025 l 1,7,-1
 467 1357 l 1,8,-1
 662 1357 l 1,9,-1
 611 1025 l 1,10,-1
 892 1025 l 1,11,-1
 948 1357 l 1,12,-1
 1143 1357 l 1,13,-1
 1089 1025 l 1,14,-1
 1306 1025 l 1,15,-1
 1294 874 l 1,16,-1
 1067 874 l 1,17,-1
 1011 519 l 1,18,-1
 1224 519 l 1,19,-1
 1208 365 l 1,20,-1
 984 365 l 1,21,-1
 927 0 l 1,22,-1
 737 0 l 1,23,-1
 788 365 l 1,24,-1
 506 365 l 1,25,-1
 444 0 l 1,26,-1
 252 0 l 1,27,-1
 310 365 l 1,0,-1
815 519 m 1,28,-1
 870 874 l 1,29,-1
 589 874 l 1,30,-1
 533 519 l 1,31,-1
 815 519 l 1,28,-1
EndSplineSet
EndChar

StartChar: ampersand
Encoding: 38 38 3
Width: 1673
Flags: HW
LayerCount: 2
Fore
SplineSet
993 41 m 1,0,1
 819 -27 819 -27 620 -27 c 0,2,3
 379.305 -27 379.305 -27 225.5 68.5 c 0,4,5
 60 171.261 60 171.261 60 354 c 0,6,7
 60 573.701 60 573.701 289 707 c 0,8,9
 356 746 356 746 430 781 c 1,10,11
 346 983.588 346 983.588 346 1107.29 c 128,-1,12
 346 1231 346 1231 384 1310 c 128,-1,13
 422 1389 422 1389 489 1444.5 c 0,14,15
 627.225 1559 627.225 1559 844 1559 c 0,16,17
 1037.07 1559 1037.07 1559 1136.5 1470.5 c 0,18,19
 1224 1392.62 1224 1392.62 1224 1283.31 c 128,-1,20
 1224 1174 1224 1174 1179.5 1103.5 c 128,-1,21
 1135 1033 1135 1033 1063.5 977 c 128,-1,22
 992 921 992 921 903 874.5 c 2,23,24
 724 783 l 1,25,26
 822.884 607.893 822.884 607.893 888.942 521.946 c 0,27,28
 1000.47 376.839 1000.47 376.839 1109 278 c 1,29,-1
 1112 274 l 1,30,31
 1180 373 1180 373 1180 527 c 0,32,33
 1180 585 1180 585 1171 639 c 1,34,35
 1162 640 1162 640 1153 640 c 128,-1,36
 1144 640 1144 640 1135 640 c 0,37,38
 1042.71 640 1042.71 640 983 602 c 1,39,-1
 983 782 l 1,40,41
 1032 831 1032 831 1138 831 c 0,42,43
 1178.5 831 1178.5 831 1225.75 824 c 0,44,45
 1313.5 811 1313.5 811 1360.25 811 c 128,-1,46
 1407 811 1407 811 1436.5 818 c 128,-1,47
 1466 825 1466 825 1487 843 c 0,48,49
 1528.38 878.464 1528.38 878.464 1542 968 c 1,50,-1
 1637 968 l 1,51,52
 1643.25 924.875 1643.25 924.875 1643.25 891.938 c 128,-1,53
 1643.25 859 1643.25 859 1639.12 815 c 128,-1,54
 1635 771 1635 771 1612 722.5 c 0,55,56
 1561.49 616 1561.49 616 1447 616 c 0,57,58
 1426 616 1426 616 1404 618 c 1,59,60
 1406 596 1406 596 1406 571 c 0,61,62
 1406 340.482 1406 340.482 1226 180 c 1,63,64
 1300.86 124.549 1300.86 124.549 1425 115 c 0,65,66
 1451 113 1451 113 1472 114 c 1,67,-1
 1466 9 l 1,68,69
 1375.78 -20 1375.78 -20 1235.39 -20 c 128,-1,70
 1095 -20 1095 -20 993 41 c 1,0,1
669 891 m 1,71,72
 812.536 963.945 812.536 963.945 865.268 1019.97 c 0,73,74
 965 1125.94 965 1125.94 965 1249 c 0,75,76
 965 1381.47 965 1381.47 896.5 1428 c 0,77,78
 870 1446 870 1446 820 1446 c 128,-1,79
 770 1446 770 1446 728 1425 c 128,-1,80
 686 1404 686 1404 659 1368 c 0,81,82
 606 1297.33 606 1297.33 606 1195.17 c 0,83,84
 606 1044.39 606 1044.39 669 891 c 1,71,72
497 651 m 1,85,86
 335 531.75 335 531.75 335 377 c 0,87,88
 335 243.116 335 243.116 428 168.5 c 0,89,90
 514.623 99 514.623 99 651.312 99 c 128,-1,91
 788 99 788 99 887 126 c 1,92,93
 717.297 283.582 717.297 283.582 579 513.5 c 1,94,-1
 497 651 l 1,85,86
EndSplineSet
EndChar

StartChar: quotesingle
Encoding: 39 39 4
Width: 558
Flags: HW
LayerCount: 2
Fore
SplineSet
298 1687 m 1,0,-1
 555 1687 l 1,1,-1
 389 966 l 1,2,-1
 219 966 l 1,3,-1
 298 1687 l 1,0,-1
EndSplineSet
EndChar

StartChar: parenleft
Encoding: 40 40 5
Width: 869
Flags: HW
LayerCount: 2
Fore
SplineSet
211.5 268.5 m 0,0,1
 190 377 190 377 190 492.5 c 128,-1,2
 190 608 190 608 207 739.5 c 128,-1,3
 224 871 224 871 271.5 1000.5 c 128,-1,4
 319 1130 319 1130 380 1240.5 c 128,-1,5
 441 1351 441 1351 510 1440.5 c 128,-1,6
 579 1530 579 1530 642 1595.5 c 0,7,8
 762.728 1721.02 762.728 1721.02 830 1756 c 1,9,-1
 937 1682 l 1,10,11
 832.977 1612.65 832.977 1612.65 696 1404.5 c 0,12,13
 587.531 1239.67 587.531 1239.67 513.5 1019.5 c 0,14,15
 475 905 475 905 460 807.5 c 0,16,17
 434 638.5 434 638.5 434 520.25 c 128,-1,18
 434 402 434 402 448 306 c 128,-1,19
 462 210 462 210 484.5 129 c 128,-1,20
 507 48 507 48 535.5 -17 c 128,-1,21
 564 -82 564 -82 592.5 -131 c 0,22,23
 645.455 -222.046 645.455 -222.046 691 -260 c 1,24,-1
 568 -334 l 1,25,-1
 551 -334 l 1,26,27
 447.394 -264.929 447.394 -264.929 342.5 -88 c 0,28,29
 251.841 64.9189 251.841 64.9189 211.5 268.5 c 0,0,1
EndSplineSet
EndChar

StartChar: asterisk
Encoding: 42 42 7
Width: 1366
Flags: HW
LayerCount: 2
Fore
SplineSet
250 988 m 1,0,-1
 583 1122 l 1,1,-1
 670 1151 l 1,2,-1
 591 1179 l 1,3,-1
 282 1314 l 1,4,-1
 410 1499 l 1,5,-1
 664 1288 l 1,6,-1
 725 1231 l 1,7,-1
 716 1319 l 1,8,-1
 709 1663 l 1,9,-1
 931 1662 l 1,10,-1
 851 1317 l 1,11,-1
 827 1233 l 1,12,-1
 898 1289 l 1,13,-1
 1198 1500 l 1,14,-1
 1284 1313 l 1,15,-1
 951 1179 l 1,16,-1
 864 1149 l 1,17,-1
 943 1121 l 1,18,-1
 1252 987 l 1,19,-1
 1124 802 l 1,20,-1
 870 1012 l 1,21,-1
 808 1072 l 1,22,-1
 817 982 l 1,23,-1
 824 637 l 1,24,-1
 602 638 l 1,25,-1
 681 984 l 1,26,-1
 706 1069 l 1,27,-1
 636 1011 l 1,28,-1
 336 800 l 1,29,-1
 250 988 l 1,0,-1
EndSplineSet
EndChar

StartChar: plus
Encoding: 43 43 8
Width: 1346
Flags: HW
LayerCount: 2
Fore
SplineSet
575 526 m 1,0,-1
 601 690 l 1,1,-1
 460 683 l 1,2,-1
 250 683 l 1,3,-1
 268 861 l 1,4,-1
 489 861 l 1,5,-1
 627 850 l 1,6,-1
 640 1015 l 1,7,-1
 667 1245 l 1,8,-1
 865 1245 l 1,9,-1
 839 1015 l 1,10,-1
 810 851 l 1,11,-1
 925 861 l 1,12,-1
 1165 861 l 1,13,-1
 1147 683 l 1,14,-1
 897 683 l 1,15,-1
 785 690 l 1,16,17
 783 648 783 648 780 608 c 128,-1,18
 777 568 777 568 775 526 c 1,19,-1
 747 285 l 1,20,-1
 548 285 l 1,21,-1
 575 526 l 1,0,-1
EndSplineSet
EndChar

StartChar: comma
Encoding: 44 44 9
Width: 541
Flags: HW
LayerCount: 2
Fore
SplineSet
84 137 m 1,0,-1
 208 280 l 1,1,2
 315.864 254.405 315.864 254.405 368 166 c 0,3,4
 410 94.7826 410 94.7826 410 3.3913 c 128,-1,5
 410 -88 410 -88 382 -164.5 c 128,-1,6
 354 -241 354 -241 303.5 -306.5 c 0,7,8
 201.105 -439.31 201.105 -439.31 27 -511 c 1,9,-1
 -27 -432 l 1,10,-1
 -24 -411 l 1,11,12
 58.1595 -375.789 58.1595 -375.789 121.5 -278 c 0,13,14
 183 -183.053 183 -183.053 183 -88 c 0,15,16
 183 -20.9655 183 -20.9655 160 15.5172 c 0,17,18
 119.394 79.927 119.394 79.927 77 78 c 1,19,-1
 84 137 l 1,0,-1
EndSplineSet
EndChar

StartChar: period
Encoding: 46 46 10
Width: 541
Flags: HW
LayerCount: 2
Fore
SplineSet
107 18.5 m 0,0,1
 90 37 90 37 81.8182 61.0909 c 128,-1,2
 73.6364 85.1818 73.6364 85.1818 73.6364 120.727 c 128,-1,3
 73.6364 156.273 73.6364 156.273 90.8182 190.636 c 128,-1,4
 108 225 108 225 132.5 248 c 0,5,6
 183.63 296 183.63 296 234.315 296 c 128,-1,7
 285 296 285 296 311 284 c 0,8,9
 383.125 250.712 383.125 250.712 383.125 159.969 c 0,10,11
 383.125 76.5673 383.125 76.5673 321 24 c 0,12,13
 267.818 -21 267.818 -21 198 -21 c 0,14,15
 143.297 -21 143.297 -21 107 18.5 c 0,0,1
EndSplineSet
EndChar

StartChar: slash
Encoding: 47 47 11
Width: 854
Flags: HW
LayerCount: 2
Fore
SplineSet
-127 -362 m 1,0,-1
 734 1597 l 1,1,-1
 938 1597 l 1,2,-1
 75 -362 l 1,3,-1
 -127 -362 l 1,0,-1
EndSplineSet
EndChar

StartChar: zero
Encoding: 48 48 12
Width: 1278
Flags: HW
LayerCount: 2
Fore
SplineSet
734 1162 m 0,0,1
 1191 1162 1191 1162 1191 697 c 0,2,3
 1191 405.994 1191 405.994 1017 199.5 c 0,4,5
 934 101 934 101 817.5 42.5 c 128,-1,6
 701 -16 701 -16 567.5 -16 c 128,-1,7
 434 -16 434 -16 346.5 21.5 c 128,-1,8
 259 59 259 59 203.5 122.5 c 0,9,10
 97 244.351 97 244.351 97 450 c 0,11,12
 97 751.605 97 751.605 281 957 c 0,13,14
 464.646 1162 464.646 1162 734 1162 c 0,0,1
389.5 324 m 0,15,16
 429.081 93.3963 429.081 93.3963 598.549 93.3962 c 0,17,18
 698.349 93.3962 698.349 93.3962 772 177 c 0,19,20
 875.283 294.24 875.283 294.24 903 538.5 c 0,21,22
 911 609 911 609 911 685 c 128,-1,23
 911 761 911 761 899.5 830 c 128,-1,24
 888 899 888 899 863.5 948.5 c 0,25,26
 811.778 1053 811.778 1053 707 1053 c 0,27,28
 704.684 1053.04 704.684 1053.04 702.388 1053.04 c 0,29,30
 583.876 1053.04 583.876 1053.04 504.5 953 c 0,31,32
 378 793.575 378 793.575 378 466 c 0,33,34
 378 391 378 391 389.5 324 c 0,15,16
EndSplineSet
EndChar

StartChar: one
Encoding: 49 49 13
Width: 930
Flags: HW
LayerCount: 2
Fore
SplineSet
96 97 m 1,0,-1
 296 124 l 1,1,-1
 403 902 l 1,2,3
 284 874.5 l 2,4,5
 223 861 223 861 157 850 c 1,6,-1
 140 960 l 1,7,8
 355.372 1009.7 355.372 1009.7 581 1162 c 1,9,-1
 705 1134 l 1,10,-1
 563 125 l 1,11,-1
 774 97 l 1,12,-1
 764 0 l 1,13,-1
 86 0 l 1,14,-1
 96 97 l 1,0,-1
EndSplineSet
Substitution2: "'sups' Superscript in Latin lookup 11 subtable" onesuperior
EndChar

StartChar: two
Encoding: 50 50 14
Width: 1249
Flags: HW
LayerCount: 2
Fore
SplineSet
60 108 m 1,0,1
 485.094 336.897 485.094 336.897 665.5 554.5 c 0,2,3
 768 678.134 768 678.134 768 781 c 0,4,5
 768 928.352 768 928.352 664.5 975 c 0,6,7
 629 991 629 991 578 991 c 128,-1,8
 527 991 527 991 477 976.5 c 128,-1,9
 427 962 427 962 381 938.5 c 0,10,11
 289.711 891.863 289.711 891.863 223 823 c 1,12,-1
 159 932 l 1,13,14
 286.913 1083.9 286.913 1083.9 487 1140.5 c 0,15,16
 563 1162 563 1162 662.5 1162 c 128,-1,17
 762 1162 762 1162 839 1132 c 128,-1,18
 916 1102 916 1102 964 1054 c 0,19,20
 1054 964 1054 964 1054 826 c 0,21,22
 1054 580.614 1054 580.614 693.5 328.5 c 0,23,24
 551.236 229.008 551.236 229.008 367 138 c 1,25,-1
 905 179 l 1,26,-1
 1029 353 l 1,27,-1
 1153 312 l 1,28,-1
 1053 0 l 1,29,-1
 85 0 l 1,30,-1
 60 108 l 1,0,1
EndSplineSet
Substitution2: "'sups' Superscript in Latin lookup 11 subtable" twosuperior
EndChar

StartChar: three
Encoding: 51 51 15
Width: 1104
Flags: HW
LayerCount: 2
Fore
SplineSet
40 -185 m 1,0,1
 109.333 -198 109.333 -198 197.667 -198 c 128,-1,2
 286 -198 286 -198 374.5 -172.5 c 128,-1,3
 463 -147 463 -147 525.5 -100.5 c 0,4,5
 656 -3.408 656 -3.408 656 152 c 0,6,7
 656 315.571 656 315.571 507.5 358 c 0,8,9
 466.053 369.842 466.053 369.842 430.921 369.842 c 128,-1,10
 395.789 369.842 395.789 369.842 380 369 c 1,11,-1
 254 337 l 1,12,-1
 272 482 l 1,13,14
 420.855 510.882 420.855 510.882 541 601.5 c 0,15,16
 676 703.322 676 703.322 676 829 c 0,17,18
 676 900 676 900 630.5 945.5 c 128,-1,19
 585 991 585 991 507 991 c 0,20,21
 337 991 337 991 183 865 c 1,22,-1
 131 978 l 1,23,24
 233.807 1089.03 233.807 1089.03 444 1143 c 0,25,26
 518 1162 518 1162 593.5 1162 c 128,-1,27
 669 1162 669 1162 733 1144 c 128,-1,28
 797 1126 797 1126 845.5 1090.5 c 0,29,30
 952 1012.55 952 1012.55 952 876 c 0,31,32
 952 746.367 952 746.367 845 635 c 0,33,34
 747 533 747 533 594 482 c 1,35,36
 766.798 478.202 766.798 478.202 857 388 c 0,37,38
 938 307 938 307 938 179 c 128,-1,39
 938 51 938 51 879 -44 c 128,-1,40
 820 -139 820 -139 719.5 -204.5 c 0,41,42
 513.13 -339 513.13 -339 204 -339 c 0,43,44
 112 -339 112 -339 22 -321 c 1,45,-1
 40 -185 l 1,0,1
EndSplineSet
Substitution2: "'sups' Superscript in Latin lookup 11 subtable" threesuperior
EndChar

StartChar: four
Encoding: 52 52 16
Width: 1264
Flags: HW
LayerCount: 2
Fore
SplineSet
1 89 m 1,0,1
 175.5 361.5 l 1,2,-1
 342 639 l 1,3,-1
 693 1256 l 1,4,-1
 895 1256 l 1,5,-1
 977 1167 l 1,6,-1
 340 219 l 1,7,-1
 279 137 l 1,8,-1
 695 165 l 1,9,-1
 746 541 l 1,10,-1
 994 599 l 1,11,-1
 942 172 l 1,12,-1
 1159 187 l 1,13,-1
 1135 0 l 1,14,-1
 915 0 l 1,15,-1
 868 -375 l 1,16,-1
 624 -375 l 1,17,-1
 673 0 l 1,18,-1
 52 0 l 1,19,-1
 1 89 l 1,0,1
EndSplineSet
EndChar

StartChar: five
Encoding: 53 53 17
Width: 1116
Flags: HW
LayerCount: 2
Fore
SplineSet
60 -212 m 1,0,1
 104 -223 104 -223 189 -223 c 128,-1,2
 274 -223 274 -223 371.5 -189.5 c 128,-1,3
 469 -156 469 -156 537.5 -100 c 0,4,5
 681 17.3139 681 17.3139 681 182 c 0,6,7
 681 442 681 442 412 442 c 0,8,9
 310.5 442 310.5 442 178 389 c 1,10,-1
 123 431 l 1,11,-1
 299 1146 l 1,12,-1
 836 1146 l 1,13,-1
 858 1162 l 1,14,-1
 1051 1162 l 1,15,-1
 995 956 l 1,16,-1
 495 956 l 1,17,-1
 385 560 l 1,18,19
 474.091 588 474.091 588 579.045 588 c 128,-1,20
 684 588 684 588 752.5 563.5 c 128,-1,21
 821 539 821 539 870 491.5 c 0,22,23
 973 391.653 973 391.653 973 218 c 0,24,25
 973 49.8 973 49.8 861.5 -84 c 0,26,27
 702.53 -274.764 702.53 -274.764 392.5 -332 c 0,28,29
 295 -350 295 -350 236 -350 c 128,-1,30
 177 -350 177 -350 156 -348.5 c 128,-1,31
 135 -347 135 -347 113.5 -344 c 0,32,33
 66.2 -337.4 66.2 -337.4 41 -329 c 1,34,-1
 60 -212 l 1,0,1
EndSplineSet
EndChar

StartChar: six
Encoding: 54 54 18
Width: 1238
Flags: HW
LayerCount: 2
Fore
SplineSet
144 278.5 m 128,-1,1
 115 375 115 375 115 497.5 c 128,-1,2
 115 620 115 620 145 737 c 128,-1,3
 175 854 175 854 230 961.5 c 128,-1,4
 285 1069 285 1069 363.5 1165 c 128,-1,5
 442 1261 442 1261 539 1340 c 0,6,7
 740.212 1503.87 740.212 1503.87 987 1571 c 1,8,-1
 1028 1462 l 1,9,10
 824.203 1392.13 824.203 1392.13 663 1223.5 c 0,11,12
 508.185 1061.56 508.185 1061.56 441 860 c 1,13,14
 520.497 943.11 520.497 943.11 659.5 974 c 0,15,16
 709 985 709 985 783 985 c 128,-1,17
 857 985 857 985 923 954.5 c 128,-1,18
 989 924 989 924 1031.5 872.5 c 0,19,20
 1115 771.318 1115 771.318 1115 606 c 0,21,22
 1115 362.248 1115 362.248 956.5 175.5 c 0,23,24
 852.936 53.4791 852.936 53.4791 703 4.5 c 0,25,26
 628 -20 628 -20 535 -20 c 128,-1,27
 442 -20 442 -20 362.5 14.5 c 128,-1,28
 283 49 283 49 228 115.5 c 128,-1,0
 173 182 173 182 144 278.5 c 128,-1,1
404 683 m 1,29,30
 377 559.571 377 559.571 377 467.786 c 128,-1,31
 377 376 377 376 387 312.5 c 128,-1,32
 397 249 397 249 421 202 c 0,33,34
 472.064 102 472.064 102 589 102 c 0,35,36
 761.52 102 761.52 102 826 350 c 0,37,38
 851 446.154 851 446.154 851 536.077 c 128,-1,39
 851 626 851 626 838 679 c 128,-1,40
 825 732 825 732 802.5 766 c 0,41,42
 758.824 832 758.824 832 692.412 832 c 128,-1,43
 626 832 626 832 581 816 c 128,-1,44
 536 800 536 800 501.5 777 c 0,45,46
 442.062 737.375 442.062 737.375 404 683 c 1,29,30
EndSplineSet
EndChar

StartChar: seven
Encoding: 55 55 19
Width: 1096
Flags: HW
LayerCount: 2
Fore
SplineSet
845 994 m 1,0,-1
 354 977 l 1,1,-1
 255 771 l 1,2,-1
 72 775 l 1,3,-1
 150 1146 l 1,4,-1
 1057 1146 l 1,5,-1
 1089 1103 l 1,6,-1
 484 -330 l 1,7,-1
 211 -249 l 1,8,-1
 845 994 l 1,0,-1
EndSplineSet
EndChar

StartChar: eight
Encoding: 56 56 20
Width: 1255
Flags: HW
LayerCount: 2
Fore
SplineSet
1159 1235 m 0,0,1
 1159 999.968 1159 999.968 837 813 c 1,2,3
 1024.76 683.277 1024.76 683.277 1084.5 523.5 c 0,4,5
 1106 466 1106 466 1106 384.5 c 128,-1,6
 1106 303 1106 303 1060 224.5 c 128,-1,7
 1014 146 1014 146 938.5 91.5 c 0,8,9
 784.037 -20 784.037 -20 568 -20 c 0,10,11
 386.348 -20 386.348 -20 260.5 65.5 c 0,12,13
 112 166.389 112 166.389 112 354 c 0,14,15
 112 560 112 560 329 730.5 c 0,16,17
 392 780 392 780 461 818 c 1,18,19
 267 978.05 267 978.05 267 1176 c 0,20,21
 267 1354.98 267 1354.98 401.5 1463 c 0,22,23
 533.48 1569 533.48 1569 750 1569 c 0,24,25
 926.765 1569 926.765 1569 1040 1481.5 c 0,26,27
 1159 1389.55 1159 1389.55 1159 1235 c 0,0,1
720 900 m 1,28,29
 868.432 977.589 868.432 977.589 915.5 1124.5 c 0,30,31
 932 1176 932 1176 932 1236 c 128,-1,32
 932 1296 932 1296 915 1338.5 c 128,-1,33
 898 1381 898 1381 870.5 1408 c 0,34,35
 817.537 1460 817.537 1460 734 1460 c 0,36,37
 637.905 1460 637.905 1460 577.5 1395.5 c 0,38,39
 514 1327.69 514 1327.69 514 1212 c 0,40,41
 514 1047.78 514 1047.78 720 900 c 1,28,29
373.5 488.5 m 0,42,43
 357 434 357 434 356.5 377 c 128,-1,44
 356 320 356 320 371 270.5 c 128,-1,45
 386 221 386 221 415.5 182 c 0,46,47
 480.551 96 480.551 96 588 96 c 0,48,49
 698.91 96 698.91 96 771.5 164.5 c 0,50,51
 849 237.634 849 237.634 849 355 c 0,52,53
 849 505.784 849 505.784 683 649 c 0,54,55
 632 693 632 693 572 736 c 1,56,57
 422.921 651.738 422.921 651.738 373.5 488.5 c 0,42,43
EndSplineSet
EndChar

StartChar: nine
Encoding: 57 57 21
Width: 1247
Flags: HW
LayerCount: 2
Fore
SplineSet
795 273 m 1,0,1
 674 152 674 152 484 152 c 0,2,3
 293.6 152 293.6 152 196 274 c 0,4,5
 113 377.75 113 377.75 113 542 c 0,6,7
 113 786.15 113 786.15 268 967.5 c 0,8,9
 434.239 1162 434.239 1162 685 1162 c 0,10,11
 887.189 1162 887.189 1162 999.5 1033.5 c 0,12,13
 1113 903.64 1113 903.64 1113 660 c 0,14,15
 1113 411.446 1113 411.446 995 176.5 c 0,16,17
 882.848 -46.8036 882.848 -46.8036 683.5 -210 c 0,18,19
 480.747 -375.984 480.747 -375.984 243 -431 c 1,20,-1
 199 -320 l 1,21,22
 414.683 -246.214 414.683 -246.214 575.5 -80 c 0,23,24
 717.764 67.0384 717.764 67.0384 795 273 c 1,0,1
851 699 m 0,25,26
 851 1041 851 1041 638 1041 c 0,27,28
 467 1041 467 1041 402 793.5 c 0,29,30
 377 698.308 377 698.308 377 609.654 c 128,-1,31
 377 521 377 521 390 465.5 c 128,-1,32
 403 410 403 410 426 374.5 c 0,33,34
 471.028 305 471.028 305 537.014 305 c 128,-1,35
 603 305 603 305 648 321 c 128,-1,36
 693 337 693 337 727 361 c 0,37,38
 777.485 396.636 777.485 396.636 825 459 c 1,39,40
 851 564.857 851 564.857 851 699 c 0,25,26
EndSplineSet
EndChar

StartChar: less
Encoding: 60 60 24
Width: 1368
Flags: HW
LayerCount: 2
Fore
SplineSet
211 814 m 1,0,-1
 1220 1324 l 1,1,-1
 1192 1097 l 1,2,-1
 453 749 l 1,3,-1
 1110 395 l 1,4,-1
 1085 176 l 1,5,-1
 195 686 l 1,6,-1
 211 814 l 1,0,-1
EndSplineSet
EndChar

StartChar: equal
Encoding: 61 61 25
Width: 1063
Flags: HW
LayerCount: 2
Fore
SplineSet
170 1020 m 1,0,-1
 985 1020 l 1,1,-1
 965 843 l 1,2,-1
 150 843 l 1,3,-1
 170 1020 l 1,0,-1
99 501 m 1,4,-1
 914 501 l 1,5,-1
 893 324 l 1,6,-1
 78 324 l 1,7,-1
 99 501 l 1,4,-1
EndSplineSet
EndChar

StartChar: question
Encoding: 63 63 27
Width: 986
Flags: HW
LayerCount: 2
Fore
SplineSet
329 473 m 1,0,1
 276.262 525.738 276.262 525.738 258.5 642 c 0,2,3
 253 678 253 678 253 721.5 c 128,-1,4
 253 765 253 765 275.5 807 c 128,-1,5
 298 849 298 849 336.5 886 c 0,6,7
 394.867 942.093 394.867 942.093 508.433 1006.05 c 0,8,9
 723.76 1127.31 723.76 1127.31 770 1202 c 1,10,11
 790.037 1254.6 790.037 1254.6 790.037 1314.89 c 128,-1,12
 790.037 1375.19 790.037 1375.19 764.519 1433.09 c 128,-1,13
 739 1491 739 1491 691 1534 c 0,14,15
 588.302 1626 588.302 1626 431 1626 c 0,16,17
 329.19 1626 329.19 1626 235 1580 c 1,18,-1
 279 1760 l 1,19,20
 316.615 1797.62 316.615 1797.62 454 1817.5 c 0,21,22
 492 1823 492 1823 524 1823 c 0,23,24
 784.198 1823 784.198 1823 908.5 1687.5 c 0,25,26
 1009 1577.95 1009 1577.95 1009 1397 c 0,27,28
 1009 1160.79 1009 1160.79 840 1027 c 0,29,30
 792 989 792 989 741.5 958 c 1,31,-1
 642 899.5 l 1,32,33
 533.549 838.635 533.549 838.635 490.5 774.5 c 0,34,35
 437.268 695.195 437.268 695.195 485 552 c 0,36,37
 491 534 491 534 494 521 c 1,38,-1
 344 472 l 1,39,-1
 329 473 l 1,0,1
302 59.5 m 128,-1,41
 292 84 292 84 292 118.5 c 128,-1,42
 292 153 292 153 309.5 186.5 c 128,-1,43
 327 220 327 220 354 244.5 c 0,44,45
 410.755 296 410.755 296 478 296 c 0,46,47
 575.596 296 575.596 296 603 215.5 c 0,48,49
 611 192 611 192 611 157 c 128,-1,50
 611 122 611 122 593 87 c 128,-1,51
 575 52 575 52 547 28 c 0,52,53
 489.833 -21 489.833 -21 417 -21 c 0,54,55
 364.889 -21 364.889 -21 338.444 7 c 128,-1,40
 312 35 312 35 302 59.5 c 128,-1,41
EndSplineSet
EndChar

StartChar: at
Encoding: 64 64 28
Width: 1969
Flags: HW
LayerCount: 2
Fore
SplineSet
1368 216 m 0,0,1
 1368 169 1368 169 1388 169 c 0,2,3
 1468.74 169 1468.74 169 1547.5 271.5 c 0,4,5
 1662.91 421.687 1662.91 421.687 1702.5 673.5 c 0,6,7
 1715 753 1715 753 1715 845.5 c 128,-1,8
 1715 938 1715 938 1690.5 1022.5 c 128,-1,9
 1666 1107 1666 1107 1623.5 1171 c 128,-1,10
 1581 1235 1581 1235 1523.5 1280.5 c 128,-1,11
 1466 1326 1466 1326 1398.5 1355 c 0,12,13
 1270.48 1410 1270.48 1410 1124.74 1410 c 128,-1,14
 979 1410 979 1410 866 1370 c 128,-1,15
 753 1330 753 1330 660 1259.5 c 128,-1,16
 567 1189 567 1189 495.5 1093 c 128,-1,17
 424 997 424 997 375 885.5 c 0,18,19
 275 657.949 275 657.949 275 408 c 0,20,21
 275 58.9672 275 58.9672 474.5 -122 c 0,22,23
 650.886 -282 650.886 -282 941 -282 c 0,24,25
 1079.96 -282 1079.96 -282 1222.5 -242.5 c 0,26,27
 1264 -231 1264 -231 1289 -219 c 1,28,-1
 1326 -316 l 1,29,30
 1168.5 -433 1168.5 -433 906 -433 c 0,31,32
 546.063 -433 546.063 -433 327 -246.5 c 0,33,34
 88 -43.027 88 -43.027 88 336 c 0,35,36
 88 689.105 88 689.105 250 979 c 0,37,38
 401.018 1249.24 401.018 1249.24 659 1405.5 c 0,39,40
 914.081 1560 914.081 1560 1198 1560 c 0,41,42
 1508.05 1560 1508.05 1560 1696.5 1387 c 0,43,44
 1890 1209.36 1890 1209.36 1890 911 c 0,45,46
 1890 642.489 1890 642.489 1795 425.5 c 0,47,48
 1709.05 229.175 1709.05 229.175 1563.5 115.5 c 0,49,50
 1423.3 6.00001 1423.3 6.00001 1275 6 c 0,51,52
 1184.96 6 1184.96 6 1172 127.5 c 0,53,54
 1168 165 1168 165 1168 196.5 c 128,-1,55
 1168 228 1168 228 1170 253.5 c 128,-1,56
 1172 279 1172 279 1176.5 309.5 c 0,57,58
 1187.73 385.582 1187.73 385.582 1201 442 c 1,59,60
 1077.33 151.009 1077.33 151.009 922.5 45 c 0,61,62
 867 7 867 7 811.5 7 c 128,-1,63
 756 7 756 7 701 32.5 c 0,64,65
 584.758 86.3942 584.758 86.3942 534 245.5 c 0,66,67
 508.963 323.981 508.963 323.981 508.963 429.818 c 0,68,69
 508.963 688.212 508.963 688.212 653.5 886 c 0,70,71
 813.538 1105 813.538 1105 1081 1105 c 0,72,73
 1161 1105 1161 1105 1217 1083 c 128,-1,74
 1273 1061 1273 1061 1294 1046 c 1,75,-1
 1479 1086 l 1,76,77
 1434.25 915.961 1434.25 915.961 1405.63 702.98 c 128,-1,78
 1377 490 1377 490 1371.5 433 c 128,-1,79
 1366 376 1366 376 1365.5 346 c 128,-1,80
 1365 316 1365 316 1365.5 292 c 128,-1,81
 1366 268 1366 268 1367 249.5 c 128,-1,82
 1368 231 1368 231 1368 216 c 0,0,1
731.5 568 m 128,-1,84
 724 506 724 506 724 453.5 c 128,-1,85
 724 401 724 401 731 356.5 c 128,-1,86
 738 312 738 312 753 276.5 c 0,87,88
 786.169 198 786.169 198 850 198 c 0,89,90
 938.231 198 938.231 198 1080 458.5 c 0,91,92
 1214.2 705.086 1214.2 705.086 1237 881 c 1,93,94
 1205.76 934.964 1205.76 934.964 1109.5 959.5 c 0,95,96
 1084 966 1084 966 1042 966 c 128,-1,97
 1000 966 1000 966 950.5 944 c 128,-1,98
 901 922 901 922 863.5 884 c 128,-1,99
 826 846 826 846 799.5 795.5 c 128,-1,100
 773 745 773 745 756 687.5 c 128,-1,83
 739 630 739 630 731.5 568 c 128,-1,84
EndSplineSet
EndChar

StartChar: A
Encoding: 65 65 29
Width: 1359
Flags: HW
LayerCount: 2
Fore
SplineSet
687 1530 m 1,0,-1
 960 1530 l 1,1,-1
 1210 128 l 1,2,-1
 1368 96 l 1,3,-1
 1362 0 l 1,4,-1
 773 0 l 1,5,-1
 779 96 l 1,6,-1
 925 125 l 1,7,-1
 880 426 l 1,8,-1
 349 426 l 1,9,-1
 213 126 l 1,10,-1
 381 96 l 1,11,-1
 374 0 l 1,12,-1
 -141 0 l 1,13,-1
 -132 96 l 1,14,-1
 7 125 l 1,15,-1
 687 1530 l 1,0,-1
860 562 m 1,16,-1
 768 1177 l 1,17,-1
 758 1330 l 1,18,-1
 410 562 l 1,19,-1
 860 562 l 1,16,-1
EndSplineSet
EndChar

StartChar: B
Encoding: 66 66 30
Width: 1343
Flags: HW
LayerCount: 2
Fore
SplineSet
558 -17 m 1,0,-1
 270 0 l 1,1,-1
 4 0 l 1,2,-1
 13 96 l 1,3,-1
 157 126 l 1,4,-1
 321 1400 l 1,5,-1
 182 1425 l 1,6,-1
 195 1530 l 1,7,-1
 483 1530 l 1,8,9
 562 1531 562 1531 640.5 1538.5 c 128,-1,10
 719 1546 719 1546 828.5 1546 c 128,-1,11
 938 1546 938 1546 1025.5 1518 c 128,-1,12
 1113 1490 1113 1490 1166 1444 c 0,13,14
 1267.17 1356.19 1267.17 1356.19 1267.17 1203.86 c 0,15,16
 1267.17 901 1267.17 901 930 807 c 1,17,18
 1076.82 799.064 1076.82 799.064 1168 710 c 128,-1,19
 1259.02 621.097 1259.02 621.097 1259.02 488.102 c 128,-1,20
 1259.02 355.107 1259.02 355.107 1209.01 258.553 c 128,-1,21
 1159 162 1159 162 1066.5 100.5 c 0,22,23
 889.772 -17 889.772 -17 558 -17 c 1,0,-1
517 855 m 1,24,25
 546.6 853.4 546.6 853.4 605.809 853.7 c 128,-1,26
 665.018 854 665.018 854 701.009 854 c 128,-1,27
 737 854 737 854 799 873.5 c 0,28,29
 929.431 914.523 929.431 914.523 980 1039 c 0,30,31
 1004.14 1098.43 1004.14 1098.43 1004.14 1179.41 c 0,32,33
 1004.14 1185.64 1004.14 1185.64 1004 1192 c 0,34,35
 1000 1307 1000 1307 939 1365.5 c 128,-1,36
 878 1424 878 1424 744 1424 c 0,37,38
 661 1424 661 1424 589 1412 c 1,39,-1
 517 855 l 1,24,25
601 106 m 0,40,41
 970.327 106 970.327 106 970.327 446.382 c 0,42,43
 970.327 660.471 970.327 660.471 807 706.5 c 0,44,45
 752 722 752 722 679.5 722 c 0,46,47
 583 722 583 722 499 716 c 1,48,-1
 424 127 l 1,49,50
 495.4 106 495.4 106 601 106 c 0,40,41
EndSplineSet
EndChar

StartChar: C
Encoding: 67 67 31
Width: 1281
Flags: HW
LayerCount: 2
Fore
SplineSet
633 -16 m 0,0,1
 534 -16 534 -16 453.5 9 c 128,-1,2
 373 34 373 34 311.5 78.5 c 128,-1,3
 250 123 250 123 205.5 184 c 128,-1,4
 161 245 161 245 133 317 c 0,5,6
 77 461 77 461 77 632 c 0,7,8
 76.9365 638.667 76.9365 638.667 76.9365 645.293 c 0,9,10
 76.9365 1049.92 76.9365 1049.92 306 1300 c 0,11,12
 415 1419 415 1419 564.5 1483.5 c 128,-1,13
 714 1548 714 1548 889 1548 c 0,14,15
 1072.88 1548 1072.88 1548 1189.5 1515.5 c 0,16,17
 1220 1507 1220 1507 1246 1501 c 1,18,-1
 1282 1491 l 1,19,-1
 1217 1107 l 1,20,-1
 1032 1107 l 1,21,-1
 1001 1392 l 1,22,23
 934.714 1424 934.714 1424 847.857 1424 c 128,-1,24
 761 1424 761 1424 691.5 1389 c 128,-1,25
 622 1354 622 1354 569 1294.5 c 128,-1,26
 516 1235 516 1235 478.5 1157 c 0,27,28
 376.667 945.187 376.667 945.187 376.667 679.583 c 0,29,30
 376.667 283.826 376.667 283.826 547.5 163.5 c 0,31,32
 605 123 605 123 686 123 c 0,33,34
 896.566 123 896.566 123 945.5 246.5 c 0,35,36
 979.561 332.463 979.561 332.463 1002 411 c 1,37,-1
 1163 411 l 1,38,-1
 1122 103 l 1,39,40
 921.188 -16 921.188 -16 633 -16 c 0,0,1
EndSplineSet
EndChar

StartChar: D
Encoding: 68 68 32
Width: 1472
Flags: HW
LayerCount: 2
Fore
SplineSet
3 96 m 1,0,-1
 156 126 l 1,1,-1
 321 1400 l 1,2,-1
 183 1425 l 1,3,-1
 194 1530 l 1,4,-1
 501 1530 l 1,5,6
 576 1531 576 1531 654 1538.5 c 128,-1,7
 732 1546 732 1546 812 1546 c 0,8,9
 1130.14 1546 1130.14 1546 1285.5 1369.5 c 0,10,11
 1427.07 1208.67 1427.07 1208.67 1427.07 907.277 c 0,12,13
 1427.07 497.709 1427.07 497.709 1217 248 c 0,14,15
 994.858 -16.0555 994.858 -16.0555 600.462 -16.0556 c 0,16,17
 562.028 -16.0556 562.028 -16.0556 519.514 -12.0278 c 128,-1,18
 477 -8 477 -8 450.5 -6 c 128,-1,19
 424 -4 424 -4 395 -3 c 2,20,-1
 337.5 -1 l 2,21,22
 309 0 309 0 287 0 c 2,23,-1
 -8 0 l 1,24,-1
 3 96 l 1,0,-1
432 134 m 1,25,26
 516 106 516 106 617.5 107.5 c 128,-1,27
 719 109 719 109 794 144.5 c 128,-1,28
 869 180 869 180 926 238 c 128,-1,29
 983 296 983 296 1023.5 372.5 c 0,30,31
 1137.08 587.04 1137.08 587.04 1137.08 881.741 c 128,-1,32
 1137.08 1176.39 1137.08 1176.39 1047 1303.5 c 0,33,34
 960.898 1425 960.898 1425 766 1425 c 0,35,36
 657.25 1425 657.25 1425 594 1402 c 1,37,-1
 432 134 l 1,25,26
EndSplineSet
EndChar

StartChar: E
Encoding: 69 69 33
Width: 1279
Flags: HW
LayerCount: 2
Fore
SplineSet
3 96 m 1,0,-1
 158 126 l 1,1,-1
 320 1400 l 1,2,-1
 181 1425 l 1,3,-1
 192 1530 l 1,4,-1
 1215 1530 l 1,5,-1
 1193 1190 l 1,6,-1
 1029 1190 l 1,7,-1
 988 1396 l 1,8,-1
 598 1416 l 1,9,-1
 526 868 l 1,10,-1
 967 883 l 1,11,-1
 949 696 l 1,12,-1
 510 717 l 1,13,-1
 430 126 l 1,14,-1
 940 156 l 1,15,-1
 1058 408 l 1,16,-1
 1216 385 l 1,17,-1
 1137 0 l 1,18,-1
 -9 0 l 1,19,-1
 3 96 l 1,0,-1
EndSplineSet
EndChar

StartChar: F
Encoding: 70 70 34
Width: 1189
Flags: HW
LayerCount: 2
Fore
SplineSet
14 97 m 1,0,-1
 158 126 l 1,1,-1
 320 1400 l 1,2,-1
 181 1425 l 1,3,-1
 194 1530 l 1,4,-1
 1247 1530 l 1,5,-1
 1213 1184 l 1,6,-1
 1042 1184 l 1,7,-1
 1018 1396 l 1,8,-1
 597 1415 l 1,9,-1
 526 857 l 1,10,-1
 1002 880 l 1,11,-1
 983 683 l 1,12,-1
 510 711 l 1,13,-1
 433 127 l 1,14,-1
 731 97 l 1,15,-1
 723 0 l 1,16,-1
 5 0 l 1,17,-1
 14 97 l 1,0,-1
EndSplineSet
EndChar

StartChar: G
Encoding: 71 71 35
Width: 1396
Flags: HW
LayerCount: 2
Fore
SplineSet
604 -16 m 0,0,1
 524 -16 524 -16 447.5 9 c 128,-1,2
 371 34 371 34 312 78.5 c 128,-1,3
 253 123 253 123 210 183.5 c 128,-1,4
 167 244 167 244 139 315.5 c 0,5,6
 80.7311 464.294 80.7311 464.294 80.7311 653.861 c 128,-1,7
 80.7311 843.429 80.7311 843.429 134.366 1007.71 c 128,-1,8
 188 1172 188 1172 291.5 1293 c 128,-1,9
 395 1414 395 1414 542 1481 c 128,-1,10
 689 1548 689 1548 869 1548 c 0,11,12
 1071 1548 1071 1548 1219 1508 c 2,13,-1
 1286 1490 l 1,14,-1
 1336 1479 l 1,15,-1
 1274 1153 l 1,16,-1
 1087 1153 l 1,17,-1
 1072 1373 l 1,18,19
 992.174 1424 992.174 1424 878.587 1424 c 128,-1,20
 765 1424 765 1424 692 1391.5 c 128,-1,21
 619 1359 619 1359 564.5 1302.5 c 128,-1,22
 510 1246 510 1246 473 1170.5 c 0,23,24
 371.905 964.211 371.905 964.211 371.905 669.794 c 0,25,26
 371.905 291.508 371.905 291.508 541.5 162.5 c 0,27,28
 600 118 600 118 678.5 118 c 0,29,30
 850.419 118 850.419 118 941 170 c 1,31,-1
 994 590 l 1,32,-1
 776 607 l 1,33,-1
 792 738 l 1,34,-1
 1288 738 l 1,35,-1
 1203 89 l 1,36,37
 1140.62 82.963 1140.62 82.963 1071.81 63.9815 c 2,38,-1
 956 32 l 2,39,40
 782.462 -16 782.462 -16 604 -16 c 0,0,1
EndSplineSet
EndChar

StartChar: H
Encoding: 72 72 36
Width: 1593
Flags: HW
LayerCount: 2
Fore
SplineSet
15 96 m 1,0,-1
 158 126 l 1,1,-1
 321 1400 l 1,2,-1
 182 1425 l 1,3,-1
 195 1530 l 1,4,-1
 774 1530 l 1,5,-1
 763 1425 l 1,6,-1
 596 1400 l 1,7,-1
 525 849 l 1,8,-1
 1128 849 l 1,9,-1
 1199 1400 l 1,10,-1
 1036 1425 l 1,11,-1
 1047 1530 l 1,12,-1
 1632 1530 l 1,13,-1
 1620 1425 l 1,14,-1
 1474 1400 l 1,15,-1
 1311 127 l 1,16,-1
 1465 96 l 1,17,-1
 1455 0 l 1,18,-1
 848 0 l 1,19,-1
 859 97 l 1,20,-1
 1036 127 l 1,21,-1
 1110 709 l 1,22,-1
 507 709 l 1,23,-1
 433 126 l 1,24,-1
 598 97 l 1,25,-1
 590 0 l 1,26,-1
 5 0 l 1,27,-1
 15 96 l 1,0,-1
EndSplineSet
EndChar

StartChar: I
Encoding: 73 73 37
Width: 745
Flags: HW
LayerCount: 2
Fore
SplineSet
17 96 m 1,0,-1
 166 126 l 1,1,-1
 329 1400 l 1,2,-1
 189 1425 l 1,3,-1
 201 1530 l 1,4,-1
 778 1530 l 1,5,-1
 767 1425 l 1,6,-1
 604 1400 l 1,7,-1
 441 126 l 1,8,-1
 607 97 l 1,9,-1
 600 0 l 1,10,-1
 6 0 l 1,11,-1
 17 96 l 1,0,-1
EndSplineSet
EndChar

StartChar: J
Encoding: 74 74 38
Width: 740
Flags: HW
LayerCount: 2
Fore
SplineSet
124.5 -13 m 128,-1,1
 151 37 151 37 171 134.5 c 128,-1,2
 191 232 191 232 214.5 394.5 c 128,-1,3
 238 557 238 557 258 726 c 128,-1,4
 278 895 278 895 296 1066 c 128,-1,5
 314 1237 314 1237 333 1400 c 1,6,-1
 186 1425 l 1,7,-1
 200 1530 l 1,8,-1
 775 1530 l 1,9,-1
 764 1425 l 1,10,-1
 603 1401 l 1,11,-1
 503 542.5 l 1,12,13
 453.742 140.226 453.742 140.226 426.871 60.1129 c 128,-1,14
 400 -20 400 -20 341.5 -92.5 c 128,-1,15
 283 -165 283 -165 207.5 -216.5 c 0,16,17
 60.2507 -316.942 60.2507 -316.942 -134 -345 c 1,18,-1
 -178 -247 l 1,19,20
 -36.4835 -205.489 -36.4835 -205.489 56 -107.5 c 0,21,0
 98 -63 98 -63 124.5 -13 c 128,-1,1
EndSplineSet
EndChar

StartChar: K
Encoding: 75 75 39
Width: 1419
Flags: HW
LayerCount: 2
Fore
SplineSet
11 96 m 1,0,-1
 158 126 l 1,1,-1
 321 1400 l 1,2,-1
 182 1425 l 1,3,-1
 195 1530 l 1,4,-1
 774 1530 l 1,5,-1
 762 1425 l 1,6,-1
 596 1400 l 1,7,-1
 507 705 l 1,8,-1
 1124 1400 l 1,9,-1
 993 1425 l 1,10,-1
 1004 1530 l 1,11,-1
 1471 1530 l 1,12,-1
 1460 1425 l 1,13,-1
 1340 1401 l 1,14,-1
 835 870 l 1,15,16
 975.204 630.222 975.204 630.222 1013.1 560.111 c 2,17,-1
 1140 324.5 l 1,18,19
 1229.82 161.332 1229.82 161.332 1272 139 c 1,20,-1
 1401 100 l 1,21,-1
 1388 0 l 1,22,-1
 1035 0 l 1,23,24
 996.733 5.46667 996.733 5.46667 957 75 c 0,25,26
 937 110 937 110 913.5 161.5 c 2,27,-1
 714 593.5 l 1,28,-1
 665 691 l 1,29,-1
 480 497 l 1,30,-1
 433 126 l 1,31,-1
 598 97 l 1,32,-1
 590 0 l 1,33,-1
 -1 0 l 1,34,-1
 11 96 l 1,0,-1
EndSplineSet
EndChar

StartChar: L
Encoding: 76 76 40
Width: 1225
Flags: HW
LayerCount: 2
Fore
SplineSet
15 97 m 1,0,-1
 158 126 l 1,1,-1
 321 1400 l 1,2,-1
 181 1425 l 1,3,-1
 194 1530 l 1,4,-1
 792 1530 l 1,5,-1
 781 1425 l 1,6,-1
 596 1400 l 1,7,-1
 432 123 l 1,8,-1
 841 138 l 1,9,-1
 1004 527 l 1,10,-1
 1153 504 l 1,11,-1
 1063 0 l 1,12,-1
 5 0 l 1,13,-1
 15 97 l 1,0,-1
EndSplineSet
EndChar

StartChar: M
Encoding: 77 77 41
Width: 1970
Flags: HW
LayerCount: 2
Fore
SplineSet
-58 97 m 1,0,-1
 113 126 l 1,1,-1
 429 1400 l 1,2,-1
 252 1425 l 1,3,-1
 266 1530 l 1,4,-1
 828 1530 l 1,5,-1
 968 575 l 1,6,-1
 986 406 l 1,7,-1
 1039 575 l 1,8,9
 1443 1530 l 1,10,-1
 1961 1530 l 1,11,-1
 1949 1425 l 1,12,-1
 1774 1400 l 1,13,-1
 1742 127 l 1,14,-1
 1920 97 l 1,15,-1
 1912 0 l 1,16,-1
 1281 0 l 1,17,-1
 1290 98 l 1,18,-1
 1462 126 l 1,19,-1
 1517 1011 l 1,20,-1
 1535 1381 l 1,21,-1
 1407 1059 l 1,22,-1
 948 -3 l 1,23,-1
 809 -18 l 1,24,-1
 640 1035 l 1,25,-1
 591 1382 l 1,26,-1
 517 1025 l 1,27,-1
 319 126 l 1,28,-1
 517 97 l 1,29,-1
 507 0 l 1,30,-1
 -69 0 l 1,31,-1
 -58 97 l 1,0,-1
EndSplineSet
EndChar

StartChar: N
Encoding: 78 78 42
Width: 1531
Flags: HW
LayerCount: 2
Fore
SplineSet
9 96 m 1,0,-1
 151 125 l 1,1,-1
 329 1400 l 1,2,-1
 171 1425 l 1,3,-1
 187 1530 l 1,4,-1
 635 1530 l 1,5,-1
 1059 477 l 1,6,-1
 1128 265 l 1,7,-1
 1264 1401 l 1,8,-1
 1108 1425 l 1,9,-1
 1120 1530 l 1,10,-1
 1596 1530 l 1,11,-1
 1586 1425 l 1,12,-1
 1451 1400 l 1,13,-1
 1244 0 l 1,14,-1
 971 0 l 1,15,-1
 536 1062 l 1,16,-1
 469 1280 l 1,17,-1
 346 126 l 1,18,-1
 518 97 l 1,19,-1
 509 0 l 1,20,-1
 1 0 l 1,21,-1
 9 96 l 1,0,-1
EndSplineSet
EndChar

StartChar: O
Encoding: 79 79 43
Width: 1443
Flags: HW
LayerCount: 2
Fore
SplineSet
80.9574 639.541 m 0,0,1
 80.9574 1018.35 80.9574 1018.35 279.5 1276 c 0,2,3
 414.105 1450.68 414.105 1450.68 615.5 1516.5 c 0,4,5
 718 1550 718 1550 847.5 1550 c 128,-1,6
 977 1550 977 1550 1080 1497 c 128,-1,7
 1183 1444 1183 1444 1250.5 1354.5 c 0,8,9
 1386.05 1174.78 1386.05 1174.78 1386.05 886.924 c 0,10,11
 1386.05 510.368 1386.05 510.368 1197.5 256.5 c 0,12,13
 992.146 -20 992.146 -20 639 -20 c 0,14,15
 373.509 -20 373.509 -20 227.233 157.398 c 128,-1,16
 80.9574 334.796 80.9574 334.796 80.9574 639.541 c 0,0,1
525.5 147 m 0,17,18
 582 101 582 101 675 101 c 128,-1,19
 768 101 768 101 848 160 c 0,20,21
 1008.8 278.59 1008.8 278.59 1067.5 569 c 0,22,23
 1095.03 705.22 1095.03 705.22 1095.03 861.974 c 0,24,25
 1095.03 1277.29 1095.03 1277.29 932 1389 c 0,26,27
 878 1426 878 1426 809 1426 c 128,-1,28
 740 1426 740 1426 682.5 1398 c 128,-1,29
 625 1370 625 1370 576.5 1320 c 128,-1,30
 528 1270 528 1270 490 1200.5 c 0,31,32
 373.931 988.216 373.931 988.216 373.931 693.496 c 0,33,34
 373.931 270.401 373.931 270.401 525.5 147 c 0,17,18
EndSplineSet
EndChar

StartChar: P
Encoding: 80 80 44
Width: 1274
Flags: HW
LayerCount: 2
Fore
SplineSet
897.5 570.5 m 128,-1,1
 775 529 775 529 652.5 529 c 128,-1,2
 530 529 530 529 484 533 c 1,3,-1
 436 126 l 1,4,-1
 673 97 l 1,5,-1
 665 0 l 1,6,-1
 4 0 l 1,7,-1
 14 96 l 1,8,-1
 157 126 l 1,9,-1
 322 1400 l 1,10,-1
 181 1425 l 1,11,-1
 194 1530 l 1,12,-1
 479 1530 l 1,13,-1
 770 1547 l 1,14,15
 1160.17 1547 1160.17 1547 1254 1321.5 c 0,16,17
 1287.31 1241.45 1287.31 1241.45 1287.31 1116.78 c 128,-1,18
 1287.31 992.115 1287.31 992.115 1241.15 881.058 c 128,-1,19
 1195 770 1195 770 1107.5 691 c 128,-1,0
 1020 612 1020 612 897.5 570.5 c 128,-1,1
500 666 m 1,20,21
 552.25 655 552.25 655 642.125 655.5 c 128,-1,22
 732 656 732 656 802 690 c 0,23,24
 1008.82 790.456 1008.82 790.456 1010.02 1140.4 c 0,25,26
 1010.02 1284.08 1010.02 1284.08 946.318 1354.1 c 128,-1,27
 882.62 1424.12 882.62 1424.12 747.394 1424.12 c 0,28,29
 662.26 1424.12 662.26 1424.12 598 1409 c 1,30,-1
 500 666 l 1,20,21
EndSplineSet
EndChar

StartChar: Q
Encoding: 81 81 45
Width: 1444
Flags: HW
LayerCount: 2
Fore
SplineSet
594 -18 m 1,0,1
 348.548 -4.25467 348.548 -4.25467 213 173 c 0,2,3
 78.9574 348.286 78.9574 348.286 78.9574 639.541 c 0,4,5
 78.9574 1018.35 78.9574 1018.35 277.5 1276 c 0,6,7
 412.105 1450.68 412.105 1450.68 613.5 1516.5 c 0,8,9
 716 1550 716 1550 845.5 1550 c 128,-1,10
 975 1550 975 1550 1078 1497 c 128,-1,11
 1181 1444 1181 1444 1248.5 1354.5 c 0,12,13
 1384.02 1174.8 1384.02 1174.8 1384.02 889.762 c 0,14,15
 1384.02 545.988 1384.02 545.988 1227 302.5 c 0,16,17
 1056.51 38.1351 1056.51 38.1351 760 -10 c 1,18,19
 762.551 -160.489 762.551 -160.489 944 -176.5 c 0,20,21
 995 -181 995 -181 1031 -181 c 128,-1,22
 1067 -181 1067 -181 1097 -178.5 c 128,-1,23
 1127 -176 1127 -176 1161 -170.5 c 0,24,25
 1242.05 -157.389 1242.05 -157.389 1289 -140 c 1,26,-1
 1291 -301 l 1,27,28
 1214.72 -361.222 1214.72 -361.222 1069.5 -387.5 c 0,29,30
 1017 -397 1017 -397 943.5 -397 c 128,-1,31
 870 -397 870 -397 796 -373 c 0,32,33
 642.441 -323.197 642.441 -323.197 599 -183 c 0,34,35
 586.59 -142.949 586.59 -142.949 586.59 -100.962 c 128,-1,36
 586.59 -58.9744 586.59 -58.9744 594 -18 c 1,0,1
523.5 147 m 0,37,38
 580 101 580 101 673 101 c 128,-1,39
 766 101 766 101 846 160 c 0,40,41
 1006.8 278.59 1006.8 278.59 1065.5 569 c 0,42,43
 1093.03 705.22 1093.03 705.22 1093.03 861.974 c 0,44,45
 1093.03 1277.29 1093.03 1277.29 930 1389 c 0,46,47
 876 1426 876 1426 807 1426 c 128,-1,48
 738 1426 738 1426 680.5 1398 c 128,-1,49
 623 1370 623 1370 574.5 1320 c 128,-1,50
 526 1270 526 1270 488 1200.5 c 0,51,52
 371.931 988.216 371.931 988.216 371.931 693.496 c 0,53,54
 371.931 270.401 371.931 270.401 523.5 147 c 0,37,38
EndSplineSet
EndChar

StartChar: R
Encoding: 82 82 46
Width: 1399
Flags: HW
LayerCount: 2
Fore
SplineSet
23 96 m 1,0,-1
 158 126 l 1,1,-1
 321 1400 l 1,2,-1
 182 1425 l 1,3,-1
 194 1530 l 1,4,-1
 443 1530 l 2,5,6
 495.833 1530 495.833 1530 566.417 1535.5 c 0,7,8
 701.167 1546 701.167 1546 803.083 1546 c 128,-1,9
 905 1546 905 1546 1001.5 1522.5 c 128,-1,10
 1098 1499 1098 1499 1161 1452.5 c 0,11,12
 1285.04 1360.94 1285.04 1360.94 1285.04 1173.63 c 0,13,14
 1285.04 915.473 1285.04 915.473 1089.5 774.5 c 0,15,16
 1025 728 1025 728 941 700 c 1,17,18
 987.182 661.207 987.182 661.207 1018.59 592.603 c 128,-1,19
 1050 524 1050 524 1066 482.5 c 2,20,-1
 1094 409 l 1,21,22
 1167.05 224.216 1167.05 224.216 1202.53 178.608 c 128,-1,23
 1238 133 1238 133 1272 117.5 c 128,-1,24
 1306 102 1306 102 1355 102 c 1,25,-1
 1348 -1 l 1,26,-1
 1027 1 l 2,27,28
 1026.57 0.984 1026.57 0.984 1026.13 0.984 c 0,29,30
 976.28 0.984 976.28 0.984 887 247 c 1,31,-1
 838.5 386 l 1,32,33
 745 650 745 650 677 667 c 1,34,35
 641 666 641 666 607 666 c 2,36,-1
 491 666 l 1,37,-1
 427 126 l 1,38,-1
 611 97 l 1,39,-1
 604 0 l 1,40,-1
 14 0 l 1,41,-1
 23 96 l 1,0,-1
508 795 m 1,42,43
 568 791 568 791 624 791 c 0,44,45
 764.357 791 764.357 791 829.179 821 c 0,46,47
 1009.41 904.413 1009.41 904.413 1009.41 1161.79 c 0,48,49
 1009.41 1302.76 1009.41 1302.76 940 1364 c 0,50,51
 872 1424 872 1424 723 1424 c 0,52,53
 694.8 1424 694.8 1424 668.9 1420.5 c 2,54,-1
 624 1414.5 l 2,55,56
 605 1412 605 1412 590 1409 c 1,57,-1
 508 795 l 1,42,43
EndSplineSet
EndChar

StartChar: S
Encoding: 83 83 47
Width: 1126
Flags: HW
LayerCount: 2
Fore
SplineSet
85 368 m 1,0,-1
 246 368 l 1,1,-1
 264 167 l 1,2,3
 357.793 99 357.793 99 481 99 c 0,4,5
 674.94 99 674.94 99 742 225.5 c 0,6,7
 766.057 270.88 766.057 270.88 766.057 325.212 c 128,-1,8
 766.057 379.543 766.057 379.543 750.029 422.771 c 128,-1,9
 734 466 734 466 701.5 506 c 0,10,11
 650.748 568.464 650.748 568.464 550.374 633.232 c 128,-1,12
 450 698 450 698 390 744.5 c 128,-1,13
 330 791 330 791 283.5 846 c 0,14,15
 179.976 968.448 179.976 968.448 179.976 1117.06 c 0,16,17
 179.976 1315.33 179.976 1315.33 328.5 1435 c 0,18,19
 471.223 1550 471.223 1550 699 1550 c 0,20,21
 959.286 1550 959.286 1550 1085 1470 c 1,22,-1
 1035 1188 l 1,23,-1
 887 1188 l 1,24,-1
 858 1375 l 1,25,26
 786.654 1428 786.654 1428 673 1428 c 0,27,28
 510.103 1428 510.103 1428 456.5 1315 c 0,29,30
 436.949 1273.78 436.949 1273.78 436.949 1217.17 c 128,-1,31
 436.949 1160.56 436.949 1160.56 454.974 1114.28 c 128,-1,32
 473 1068 473 1068 508 1026.5 c 0,33,34
 564.556 959.44 564.556 959.44 666.278 894.72 c 128,-1,35
 768 830 768 830 826 786.5 c 128,-1,36
 884 743 884 743 929 691 c 0,37,38
 1029.03 575.414 1029.03 575.414 1029.03 430.867 c 0,39,40
 1029.03 232.673 1029.03 232.673 883.5 107.5 c 0,41,42
 731.78 -23 731.78 -23 475 -23 c 0,43,44
 261.844 -23 261.844 -23 94.5 40 c 0,45,46
 52 56 52 56 35 70 c 1,47,-1
 85 368 l 1,0,-1
EndSplineSet
EndChar

StartChar: T
Encoding: 84 84 48
Width: 1343
Flags: HW
LayerCount: 2
Fore
SplineSet
225 100 m 1,0,-1
 472 126 l 1,1,-1
 644 1409 l 1,2,-1
 363 1382 l 1,3,-1
 243 1049 l 1,4,-1
 92 1048 l 1,5,-1
 170 1530 l 1,6,-1
 1425 1530 l 1,7,-1
 1365 1049 l 1,8,-1
 1220 1041 l 1,9,-1
 1197 1383 l 1,10,-1
 920 1409 l 1,11,-1
 747 126 l 1,12,-1
 1013 100 l 1,13,-1
 1005 0 l 1,14,-1
 214 0 l 1,15,-1
 225 100 l 1,0,-1
EndSplineSet
EndChar

StartChar: U
Encoding: 85 85 49
Width: 1413
Flags: HW
LayerCount: 2
Fore
SplineSet
136.6 459.44 m 0,0,1
 136.6 526.4 136.6 526.4 144 593 c 1,2,-1
 248 1401 l 1,3,-1
 109 1425 l 1,4,-1
 122 1530 l 1,5,-1
 715 1530 l 1,6,-1
 705 1426 l 1,7,-1
 531 1400 l 1,8,-1
 430 617 l 1,9,10
 416 481.667 416 481.667 416.5 412.833 c 128,-1,11
 417 344 417 344 434 284 c 128,-1,12
 451 224 451 224 484 182.5 c 0,13,14
 551.988 97 551.988 97 680 97 c 0,15,16
 1009.52 97 1009.52 97 1073 626 c 1,17,-1
 1177 1400 l 1,18,-1
 1026 1425 l 1,19,-1
 1037 1530 l 1,20,-1
 1495 1530 l 1,21,-1
 1482 1425 l 1,22,-1
 1356 1401 l 1,23,-1
 1255 627 l 2,24,25
 1210.12 281.615 1210.12 281.615 1054.5 127 c 0,26,27
 906.545 -20 906.545 -20 634 -20 c 256,28,29
 379.555 -20 379.555 -20 258.077 100.465 c 128,-1,30
 136.6 220.93 136.6 220.93 136.6 459.44 c 0,0,1
EndSplineSet
EndChar

StartChar: V
Encoding: 86 86 50
Width: 1235
Flags: HW
LayerCount: 2
Fore
SplineSet
152 1400 m 1,0,-1
 26 1425 l 1,1,-1
 38 1530 l 1,2,-1
 605 1530 l 1,3,-1
 595 1425 l 1,4,-1
 438 1400 l 1,5,-1
 568 480 l 1,6,-1
 592 236 l 1,7,-1
 677 480 l 1,8,-1
 1088 1400 l 1,9,-1
 926 1425 l 1,10,-1
 936 1530 l 1,11,-1
 1428 1530 l 1,12,-1
 1414 1425 l 1,13,-1
 1277 1401 l 1,14,-1
 634 -10 l 1,15,-1
 387 -16 l 1,16,-1
 152 1400 l 1,0,-1
EndSplineSet
EndChar

StartChar: W
Encoding: 87 87 51
Width: 1887
Flags: HW
LayerCount: 2
Fore
SplineSet
137 1400 m 1,0,-1
 5 1425 l 1,1,-1
 18 1530 l 1,2,-1
 569 1530 l 1,3,-1
 559 1425 l 1,4,-1
 418 1400 l 1,5,-1
 564 236 l 1,6,-1
 629 439 l 1,7,-1
 956 1268 l 1,8,-1
 943 1402 l 1,9,-1
 804 1425 l 1,10,-1
 814 1530 l 1,11,-1
 1374 1530 l 1,12,-1
 1359 1425 l 1,13,-1
 1215 1401 l 1,14,-1
 1314 473 l 1,15,-1
 1323 236 l 1,16,-1
 1400 454 l 1,17,-1
 1793 1399 l 1,18,-1
 1615 1425 l 1,19,-1
 1625 1530 l 1,20,-1
 2133 1530 l 1,21,-1
 2120 1425 l 1,22,-1
 1981 1400 l 1,23,-1
 1361 -10 l 1,24,-1
 1100 -10 l 1,25,-1
 998 967 l 1,26,-1
 614 -10 l 1,27,-1
 352 -10 l 1,28,-1
 137 1400 l 1,0,-1
EndSplineSet
EndChar

StartChar: X
Encoding: 88 88 52
Width: 1342
Flags: HW
LayerCount: 2
Fore
SplineSet
-58 97 m 1,0,-1
 60 126 l 1,1,-1
 549 759 l 1,2,-1
 246 1399 l 1,3,-1
 117 1425 l 1,4,-1
 127 1530 l 1,5,-1
 716 1530 l 1,6,-1
 706 1425 l 1,7,-1
 562 1401 l 1,8,-1
 747 925 l 1,9,-1
 1064 1400 l 1,10,-1
 927 1425 l 1,11,-1
 936 1530 l 1,12,-1
 1432 1530 l 1,13,-1
 1422 1425 l 1,14,-1
 1285 1401 l 1,15,-1
 815 793 l 1,16,-1
 1144 126 l 1,17,-1
 1284 97 l 1,18,-1
 1275 0 l 1,19,-1
 661 0 l 1,20,-1
 669 97 l 1,21,-1
 823 126 l 1,22,-1
 620 618 l 1,23,-1
 287 126 l 1,24,-1
 437 96 l 1,25,-1
 428 0 l 1,26,-1
 -69 0 l 1,27,-1
 -58 97 l 1,0,-1
EndSplineSet
EndChar

StartChar: Y
Encoding: 89 89 53
Width: 1227
Flags: HW
LayerCount: 2
Fore
SplineSet
212 97 m 1,0,-1
 425 126 l 1,1,-1
 485 598 l 1,2,-1
 137 1400 l 1,3,-1
 30 1425 l 1,4,-1
 41 1530 l 1,5,-1
 627 1530 l 1,6,-1
 613 1425 l 1,7,-1
 442 1400 l 1,8,-1
 687 749 l 1,9,-1
 749 860 l 1,10,-1
 1066 1400 l 1,11,-1
 920 1425 l 1,12,-1
 930 1530 l 1,13,-1
 1403 1530 l 1,14,-1
 1390 1425 l 1,15,-1
 1277 1401 l 1,16,-1
 756 598 l 1,17,-1
 695 126 l 1,18,-1
 924 97 l 1,19,-1
 915 0 l 1,20,-1
 202 0 l 1,21,-1
 212 97 l 1,0,-1
EndSplineSet
EndChar

StartChar: Z
Encoding: 90 90 54
Width: 1220
Flags: HW
LayerCount: 2
Fore
SplineSet
-33 89 m 1,0,-1
 811 1261 l 1,1,-1
 957 1409 l 1,2,-1
 457 1397 l 1,3,-1
 335 1138 l 1,4,-1
 189 1161 l 1,5,-1
 242 1530 l 1,6,-1
 1231 1530 l 1,7,-1
 1259 1444 l 1,8,-1
 421 269 l 1,9,-1
 288 122 l 1,10,-1
 850 146 l 1,11,-1
 1005 438 l 1,12,-1
 1149 407 l 1,13,-1
 1058 0 l 1,14,-1
 -2 0 l 1,15,-1
 -33 89 l 1,0,-1
EndSplineSet
EndChar

StartChar: bracketleft
Encoding: 91 91 55
Width: 864
Flags: HW
LayerCount: 2
Fore
SplineSet
357 -211 m 0,0,1
 145 -211 145 -211 145 -68 c 0,2,3
 145 2 145 2 148 39 c 128,-1,4
 151 76 151 76 159.5 148 c 128,-1,5
 168 220 168 220 181 315.5 c 2,6,-1
 352 1501 l 1,7,8
 377.188 1702.51 377.188 1702.51 517 1740.5 c 0,9,10
 563 1753 563 1753 609 1753 c 0,11,12
 690.083 1753 690.083 1753 882 1706 c 1,13,-1
 866 1601 l 1,14,-1
 591 1601 l 1,15,-1
 368 -55 l 1,16,-1
 400.5 -55 l 1,17,-1
 610.5 -57 l 1,18,-1
 643 -57 l 1,19,-1
 630 -164 l 1,20,-1
 564.5 -182.5 l 1,21,22
 458.882 -211 458.882 -211 357 -211 c 0,0,1
EndSplineSet
EndChar

StartChar: backslash
Encoding: 92 92 56
Width: 854
Flags: HW
LayerCount: 2
Fore
SplineSet
76 1597 m 1,0,-1
 277 1597 l 1,1,-1
 854 -362 l 1,2,-1
 652 -362 l 1,3,-1
 76 1597 l 1,0,-1
EndSplineSet
EndChar

StartChar: asciicircum
Encoding: 94 94 58
Width: 1364
Flags: HW
LayerCount: 2
Fore
SplineSet
673 1531 m 1,0,-1
 900 1531 l 1,1,-1
 1167 510 l 1,2,-1
 957 510 l 1,3,-1
 760 1252 l 1,4,-1
 372 510 l 1,5,-1
 157 510 l 1,6,-1
 673 1531 l 1,0,-1
EndSplineSet
EndChar

StartChar: underscore
Encoding: 95 95 59
Width: 1335
Flags: HW
LayerCount: 2
Fore
SplineSet
1287 -187 m 1,0,-1
 1267 -338 l 1,1,-1
 -111 -338 l 1,2,-1
 -91 -187 l 1,3,-1
 1287 -187 l 1,0,-1
EndSplineSet
EndChar

StartChar: grave
Encoding: 96 96 60
Width: 541
Flags: HW
LayerCount: 2
Fore
SplineSet
411 1246 m 1,0,1
 300.366 1293.41 300.366 1293.41 135 1445 c 0,2,3
 55.2 1518.15 55.2 1518.15 25 1571 c 1,4,-1
 203 1743 l 1,5,-1
 491 1311 l 1,6,-1
 411 1246 l 1,0,1
EndSplineSet
EndChar

StartChar: a
Encoding: 97 97 61
Width: 1194
Flags: HW
LayerCount: 2
Fore
SplineSet
962 207 m 1,0,1
 952.732 131 952.732 131 1004.75 131 c 0,2,3
 1029.5 131 1029.5 131 1087 177 c 1,4,-1
 1117 114 l 1,5,6
 1069.12 38.7539 1069.12 38.7539 959 -3.5 c 0,7,8
 916 -20 916 -20 856 -20 c 128,-1,9
 796 -20 796 -20 756.398 11.875 c 128,-1,10
 716.795 43.75 716.795 43.75 716.795 105.758 c 0,11,12
 716.795 110.295 716.795 110.295 717 115 c 1,13,-1
 715 118 l 1,14,15
 592.333 -20 592.333 -20 413 -20 c 0,16,17
 242.635 -20 242.635 -20 153.5 103.5 c 0,18,19
 72 216.422 72 216.422 72 407 c 0,20,21
 72 692.398 72 692.398 243.5 915.5 c 0,22,23
 361.231 1068.65 361.231 1068.65 539.5 1131 c 0,24,25
 631 1163 631 1163 732.714 1163 c 128,-1,26
 834.429 1163 834.429 1163 957 1124 c 1,27,-1
 1092 1163 l 1,28,-1
 962 207 l 1,0,1
502 138 m 0,29,30
 612.409 138 612.409 138 710 251 c 1,31,-1
 812 1016 l 1,32,33
 768 1032 768 1032 706.5 1032 c 128,-1,34
 645 1032 645 1032 592.5 1004.5 c 128,-1,35
 540 977 540 977 499.5 931 c 128,-1,36
 459 885 459 885 430 824 c 128,-1,37
 401 763 401 763 382.5 695.5 c 0,38,39
 347 565.973 347 565.973 347 427.486 c 128,-1,40
 347 289 347 289 388.5 213.5 c 128,-1,41
 430 138 430 138 502 138 c 0,29,30
EndSplineSet
Substitution2: "Single Substitution lookup 16 subtable" ordfeminine
Substitution2: "'aalt' Access All Alternates in Latin lookup 0 subtable" ordfeminine
EndChar

StartChar: b
Encoding: 98 98 62
Width: 1190
Flags: HW
LayerCount: 2
Fore
SplineSet
648 10.5 m 0,0,1
 559 -20 559 -20 450.25 -20 c 128,-1,2
 341.5 -20 341.5 -20 215 24 c 1,3,-1
 93 -20 l 1,4,-1
 285 1484 l 1,5,-1
 186 1527 l 1,6,-1
 207 1611 l 1,7,-1
 508 1650 l 1,8,-1
 560 1623 l 1,9,-1
 482 1033 l 1,10,11
 606.8 1163 606.8 1163 774 1163 c 0,12,13
 943.115 1163 943.115 1163 1031.5 1045.5 c 0,14,15
 1116 933.165 1116 933.165 1116 730 c 0,16,17
 1116 440.053 1116 440.053 941 219 c 0,18,19
 823.57 70.6672 823.57 70.6672 648 10.5 c 0,0,1
362 132 m 1,20,21
 409.667 110 409.667 110 478.833 110 c 128,-1,22
 548 110 548 110 599.5 136.5 c 128,-1,23
 651 163 651 163 690.5 208 c 128,-1,24
 730 253 730 253 759 313.5 c 128,-1,25
 788 374 788 374 806.5 442 c 0,26,27
 843 576.162 843 576.162 843 680.581 c 128,-1,28
 843 785 843 785 833 837 c 128,-1,29
 823 889 823 889 803 926 c 0,30,31
 760.838 1004 760.838 1004 687 1004 c 0,32,33
 592 1004 592 1004 503 915 c 0,34,35
 478 890 478 890 459 864 c 1,36,-1
 362 132 l 1,20,21
EndSplineSet
EndChar

StartChar: c
Encoding: 99 99 63
Width: 923
Flags: HW
LayerCount: 2
Fore
SplineSet
225.5 922.5 m 0,0,1
 333.053 1071.82 333.053 1071.82 500 1132 c 0,2,3
 586 1163 586 1163 652.5 1163 c 128,-1,4
 719 1163 719 1163 751 1160 c 128,-1,5
 783 1157 783 1157 814.5 1152 c 0,6,7
 877.343 1142.03 877.343 1142.03 928 1120 c 1,8,-1
 856 867 l 1,9,10
 835 880 835 880 807 904.5 c 128,-1,11
 779 929 779 929 749 952.5 c 0,12,13
 674.319 1011 674.319 1011 626.66 1011 c 128,-1,14
 579 1011 579 1011 527.5 971.5 c 0,15,16
 419.549 888.703 419.549 888.703 370.5 685.5 c 0,17,18
 347.849 591.66 347.849 591.66 347.849 530.509 c 128,-1,19
 347.849 469.359 347.849 469.359 348.425 422.679 c 128,-1,20
 349 376 349 376 362 316 c 128,-1,21
 375 256 375 256 399 218 c 0,22,23
 445.737 144 445.737 144 538 144 c 0,24,25
 651.133 144 651.133 144 742 214.5 c 0,26,27
 771 237 771 237 802 265 c 1,28,-1
 853 173 l 1,29,30
 763.304 51.9103 763.304 51.9103 592 0 c 0,31,32
 526 -20 526 -20 442.5 -20 c 0,33,34
 271.231 -20 271.231 -20 172.088 100.831 c 128,-1,35
 72.9444 221.661 72.9444 221.661 72.9444 466.181 c 128,-1,36
 72.9444 710.7 72.9444 710.7 225.5 922.5 c 0,0,1
EndSplineSet
EndChar

StartChar: d
Encoding: 100 100 64
Width: 1217
Flags: HW
LayerCount: 2
Fore
SplineSet
982 208 m 2,0,1
 971.306 131 971.306 131 1014.93 131 c 0,2,3
 1039.86 131 1039.86 131 1099 177 c 1,4,-1
 1129 115 l 1,5,6
 1065.7 35.8772 1065.7 35.8772 972.5 -2.5 c 0,7,8
 930 -20 930 -20 865 -20 c 0,9,10
 728.048 -20 728.048 -20 730 144 c 1,11,12
 645.68 34.0179 645.68 34.0179 513.5 -5.5 c 0,13,14
 465 -20 465 -20 392.5 -20 c 128,-1,15
 320 -20 320 -20 256.5 13 c 128,-1,16
 193 46 193 46 152 103.5 c 0,17,18
 72 215.695 72 215.695 72 407 c 0,19,20
 72 693.676 72 693.676 239.5 915.5 c 0,21,22
 355.117 1068.61 355.117 1068.61 533.5 1131 c 0,23,24
 625 1163 625 1163 704.5 1163 c 128,-1,25
 784 1163 784 1163 854 1149 c 1,26,-1
 904 1482 l 1,27,-1
 764 1525 l 1,28,-1
 784 1608 l 1,29,-1
 1132 1650 l 1,30,-1
 1187 1623 l 1,31,-1
 982 208 l 2,0,1
833 1006 m 1,32,33
 782.857 1032 782.857 1032 711.929 1032 c 128,-1,34
 641 1032 641 1032 588.5 1004.5 c 128,-1,35
 536 977 536 977 495.5 930 c 128,-1,36
 455 883 455 883 426.5 821.5 c 128,-1,37
 398 760 398 760 380 692 c 0,38,39
 345 559.778 345 559.778 345 421.889 c 128,-1,40
 345 284 345 284 385 211 c 128,-1,41
 425 138 425 138 496 138 c 0,42,43
 619.5 138 619.5 138 724 281 c 1,44,-1
 833 1006 l 1,32,33
EndSplineSet
EndChar

StartChar: e
Encoding: 101 101 65
Width: 1050
Flags: HW
LayerCount: 2
Fore
SplineSet
559 139 m 0,0,1
 733.864 139 733.864 139 878 290 c 1,2,-1
 933 197 l 1,3,4
 841.034 61.2414 841.034 61.2414 648.5 2 c 0,5,6
 577 -20 577 -20 478.5 -20 c 128,-1,7
 380 -20 380 -20 300 18 c 0,8,9
 144.609 91.8106 144.609 91.8106 96 263 c 0,10,11
 73.9583 340.625 73.9583 340.625 73.9583 383.521 c 128,-1,12
 73.9583 426.417 73.9583 426.417 74.4792 478.208 c 128,-1,13
 75 530 75 530 97 623.5 c 128,-1,14
 119 717 119 717 158.5 798.5 c 128,-1,15
 198 880 198 880 254 947 c 128,-1,16
 310 1014 310 1014 378.5 1062 c 0,17,18
 522.635 1163 522.635 1163 693 1163 c 0,19,20
 918.901 1163 918.901 1163 980.5 1011.5 c 0,21,22
 1000.03 963.465 1000.03 963.465 1000.03 897.24 c 128,-1,23
 1000.03 831.015 1000.03 831.015 969.015 767.508 c 128,-1,24
 938 704 938 704 885 654 c 128,-1,25
 832 604 832 604 764 567.5 c 128,-1,26
 696 531 696 531 624 507.5 c 0,27,28
 479.086 460.202 479.086 460.202 358 458 c 1,29,30
 357.333 444 357.333 444 357.333 413.111 c 128,-1,31
 357.333 382.222 357.333 382.222 366.667 331.111 c 128,-1,32
 376 280 376 280 400 235.5 c 0,33,34
 452.045 139 452.045 139 559 139 c 0,0,1
633 1036 m 0,35,36
 478.107 1036 478.107 1036 398.5 771.5 c 0,37,38
 369.193 674.126 369.193 674.126 360 573 c 1,39,40
 485.23 580.156 485.23 580.156 602 659.5 c 0,41,42
 737.053 751.266 737.053 751.266 737.053 893.633 c 128,-1,43
 737.053 1036 737.053 1036 633 1036 c 0,35,36
EndSplineSet
EndChar

StartChar: f
Encoding: 102 102 66
Width: 705
Flags: HW
LayerCount: 2
Fore
SplineSet
840 1471 m 1,0,1
 778.286 1519 778.286 1519 720.643 1519 c 128,-1,2
 663 1519 663 1519 637 1503.5 c 128,-1,3
 611 1488 611 1488 593.5 1457 c 0,4,5
 564.393 1405.44 564.393 1405.44 545 1274 c 1,6,-1
 529 1155 l 1,7,-1
 762 1155 l 1,8,-1
 743 998 l 1,9,-1
 508 998 l 1,10,-1
 383 -25 l 1,11,12
 355.646 -239.625 355.646 -239.625 247 -370 c 0,13,14
 127.833 -513 127.833 -513 -53 -513 c 0,15,16
 -158 -513 -158 -513 -230 -495 c 1,17,-1
 -175 -319 l 1,18,-1
 -151 -328.5 l 2,19,20
 -66.1333 -362 -66.1333 -362 -15.5666 -362 c 0,21,22
 79.5049 -362 79.5049 -362 109 -145 c 1,23,-1
 247 998 l 1,24,-1
 115 998 l 1,25,-1
 133 1087 l 1,26,-1
 275 1150 l 1,27,-1
 290 1237 l 2,28,29
 322.416 1425.42 322.416 1425.42 443 1546 c 0,30,31
 567 1670 567 1670 733 1670 c 0,32,33
 839.824 1670 839.824 1670 901 1644 c 1,34,-1
 840 1471 l 1,0,1
EndSplineSet
EndChar

StartChar: g
Encoding: 103 103 67
Width: 1186
Flags: HW
LayerCount: 2
Fore
SplineSet
539.5 1131 m 0,0,1
 631 1163 631 1163 740.5 1163 c 128,-1,2
 850 1163 850 1163 971 1119 c 1,3,-1
 1112 1163 l 1,4,-1
 932 -77 l 2,5,6
 888.801 -375.795 888.801 -375.795 597.5 -474.5 c 0,7,8
 483.878 -513 483.878 -513 354 -513 c 0,9,10
 253.286 -513 253.286 -513 189.643 -496.5 c 128,-1,11
 126 -480 126 -480 111 -473 c 1,12,-1
 161 -273 l 1,13,14
 226.167 -314.893 226.167 -314.893 308.083 -332.446 c 128,-1,15
 390 -350 390 -350 439 -350 c 128,-1,16
 488 -350 488 -350 528 -342.5 c 128,-1,17
 568 -335 568 -335 595 -313 c 0,18,19
 645.428 -271.911 645.428 -271.911 663 -145 c 2,20,-1
 697 98 l 1,21,22
 574.083 -20 574.083 -20 413 -20 c 0,23,24
 242.635 -20 242.635 -20 153.5 103.5 c 0,25,26
 72 216.422 72 216.422 72 407 c 0,27,28
 72 692.398 72 692.398 243.5 915.5 c 0,29,30
 361.231 1068.65 361.231 1068.65 539.5 1131 c 0,0,1
829 1010 m 1,31,32
 781.333 1032 781.333 1032 713.167 1032 c 128,-1,33
 645 1032 645 1032 592.5 1004.5 c 128,-1,34
 540 977 540 977 499.5 930 c 128,-1,35
 459 883 459 883 430 821.5 c 128,-1,36
 401 760 401 760 382.5 692 c 0,37,38
 347 561.513 347 561.513 347 422.757 c 128,-1,39
 347 284 347 284 388 211 c 128,-1,40
 429 138 429 138 500 138 c 0,41,42
 614.167 138 614.167 138 720 265 c 1,43,-1
 829 1010 l 1,31,32
EndSplineSet
EndChar

StartChar: h
Encoding: 104 104 68
Width: 1268
Flags: HW
LayerCount: 2
Fore
SplineSet
1063.5 131 m 128,-1,1
 1086 131 1086 131 1154 182 c 1,2,-1
 1183 119 l 1,3,4
 1134.81 43.266 1134.81 43.266 1014 -3 c 0,5,6
 967 -21 967 -21 914.5 -21 c 128,-1,7
 862 -21 862 -21 830 -10 c 128,-1,8
 798 1 798 1 779.5 20.5 c 0,9,10
 737.396 64.8798 737.396 64.8798 753.5 195.5 c 0,11,12
 762.231 266.319 762.231 266.319 774.616 333.66 c 2,13,-1
 812 535 l 1,14,15
 846 723.889 846 723.889 846 804.944 c 128,-1,16
 846 886 846 886 838.5 914.5 c 128,-1,17
 831 943 831 943 818.5 959 c 0,18,19
 798.188 985 798.188 985 756.094 985 c 128,-1,20
 714 985 714 985 675 965.5 c 128,-1,21
 636 946 636 946 597 912 c 0,22,23
 511.571 837.524 511.571 837.524 453 736 c 1,24,-1
 359 0 l 1,25,-1
 95 0 l 1,26,-1
 281 1482 l 1,27,-1
 159 1525 l 1,28,-1
 175 1608 l 1,29,-1
 513 1650 l 1,30,-1
 566 1623 l 1,31,-1
 476 916 l 1,32,33
 593.095 1088.39 593.095 1088.39 757 1144 c 0,34,35
 813 1163 813 1163 873 1163 c 0,36,37
 1119 1163 1119 1163 1119 861 c 0,38,39
 1119 783.5 1119 783.5 1097.5 665.25 c 128,-1,40
 1076 547 1076 547 1069.5 507 c 128,-1,41
 1063 467 1063 467 1055.5 426.5 c 128,-1,42
 1048 386 1048 386 1042 346 c 0,43,44
 1016.12 173.447 1016.12 173.447 1028.56 152.224 c 128,-1,0
 1041 131 1041 131 1063.5 131 c 128,-1,1
EndSplineSet
EndChar

StartChar: dotlessi
Encoding: 305 305 70
Width: 655
Flags: HW
LayerCount: 2
Fore
SplineSet
406.627 177.751 m 0,0,1
 406.627 131 406.627 131 438.996 131 c 128,-1,2
 471.364 131 471.364 131 537 188 c 1,3,-1
 567 125 l 1,4,5
 506.147 41.3274 506.147 41.3274 398.5 -1.5 c 0,6,7
 352 -20 352 -20 282.5 -20 c 128,-1,8
 213 -20 213 -20 173.866 13.1485 c 128,-1,9
 134.733 46.297 134.733 46.297 134.733 99.9668 c 0,10,11
 134.733 120.717 134.733 120.717 150.866 238.359 c 2,12,-1
 255 980 l 1,13,-1
 99 1031 l 1,14,-1
 117 1112 l 1,15,-1
 491 1163 l 1,16,-1
 543 1139 l 1,17,-1
 409 207 l 2,18,19
 406.627 190.608 406.627 190.608 406.627 177.751 c 0,0,1
EndSplineSet
EndChar

StartChar: dotaccent
Encoding: 729 729 71
Width: 388
Flags: HW
LayerCount: 2
Fore
SplineSet
181 1363 m 0,0,1
 146 1363 146 1363 120.5 1375 c 0,2,3
 68.6836 1399.38 68.6836 1399.38 46 1453 c 0,4,5
 35.9167 1476.83 35.9167 1476.83 35.9167 1508.24 c 128,-1,6
 35.9167 1539.64 35.9167 1539.64 50.4583 1571.32 c 128,-1,7
 65 1603 65 1603 88 1626 c 0,8,9
 138 1676 138 1676 207 1676 c 0,10,11
 274.59 1676 274.59 1676 316 1633.5 c 0,12,13
 353.095 1595.43 353.095 1595.43 353.095 1543.12 c 0,14,15
 353.095 1466.23 353.095 1466.23 304 1415 c 0,16,17
 254.167 1363 254.167 1363 181 1363 c 0,0,1
EndSplineSet
EndChar

StartChar: k
Encoding: 107 107 73
Width: 1118
Flags: HW
LayerCount: 2
Fore
SplineSet
278 1482 m 1,0,-1
 156 1525 l 1,1,-1
 172 1608 l 1,2,-1
 510 1650 l 1,3,-1
 563 1623 l 1,4,-1
 348 0 l 1,5,-1
 84 0 l 1,6,-1
 278 1482 l 1,0,-1
1001 152 m 0,7,8
 1053 152 1053 152 1115 204 c 1,9,-1
 1149 138 l 1,10,11
 1081.57 43.5976 1081.57 43.5976 950 -3 c 0,12,13
 902 -20 902 -20 843.5 -20 c 0,14,15
 725.456 -20 725.456 -20 673 95 c 2,16,-1
 437 610 l 1,17,-1
 440 611 l 1,18,-1
 437 611 l 1,19,-1
 521.5 667 l 1,20,21
 660.725 756.379 660.725 756.379 756 885 c 0,22,23
 801.806 946.074 801.806 946.074 809 1042 c 0,24,25
 814.417 1103.4 814.417 1103.4 863.5 1136.5 c 0,26,27
 902.793 1163 902.793 1163 957.897 1163 c 128,-1,28
 1013 1163 1013 1163 1044.5 1130.5 c 0,29,30
 1077.07 1096.9 1077.07 1096.9 1077.07 1052.31 c 0,31,32
 1077.07 981.8 1077.07 981.8 1038.53 926.9 c 128,-1,33
 1000 872 1000 872 955.5 832 c 128,-1,34
 911 792 911 792 861 756.5 c 0,35,36
 770.524 692.262 770.524 692.262 664 639 c 1,37,-1
 890 245 l 2,38,39
 916 201 916 201 947 176.5 c 128,-1,40
 978 152 978 152 1001 152 c 0,7,8
EndSplineSet
EndChar

StartChar: l
Encoding: 108 108 74
Width: 621
Flags: HW
LayerCount: 2
Fore
SplineSet
381 207 m 2,0,1
 370.143 131 370.143 131 415.4 131 c 0,2,3
 441.8 131 441.8 131 509 187 c 1,4,-1
 538 125 l 1,5,6
 486.997 44.8528 486.997 44.8528 375.5 -1.5 c 0,7,8
 331 -20 331 -20 287 -20 c 128,-1,9
 243 -20 243 -20 213 -12.5 c 128,-1,10
 183 -5 183 -5 161 11 c 0,11,12
 113 45.9091 113 45.9091 113 115 c 0,13,14
 113 139.5 113 139.5 120 192 c 2,15,-1
 297 1482 l 1,16,-1
 170 1525 l 1,17,-1
 190 1608 l 1,18,-1
 524 1650 l 1,19,-1
 574 1623 l 1,20,-1
 381 207 l 2,0,1
EndSplineSet
EndChar

StartChar: m
Encoding: 109 109 75
Width: 1918
Flags: HW
LayerCount: 2
Fore
SplineSet
1562 -21 m 0,0,1
 1396.28 -21 1396.28 -21 1401 130 c 0,2,3
 1404.41 228.813 1404.41 228.813 1428.2 358.407 c 128,-1,4
 1452 488 1452 488 1460 537.5 c 128,-1,5
 1468 587 1468 587 1475 638.5 c 0,6,7
 1491 756.214 1491 756.214 1491 820.607 c 128,-1,8
 1491 885 1491 885 1484 913.5 c 128,-1,9
 1477 942 1477 942 1465.5 958 c 0,10,11
 1446.81 984 1446.81 984 1407.41 984 c 128,-1,12
 1368 984 1368 984 1331.5 967.5 c 128,-1,13
 1295 951 1295 951 1258.5 921.5 c 0,14,15
 1180.83 858.723 1180.83 858.723 1121 763 c 1,16,17
 1111.59 644.412 1111.59 644.412 1093 505 c 1,18,-1
 1031 0 l 1,19,-1
 765 0 l 1,20,-1
 834.5 535 l 2,21,22
 857.222 709.786 857.222 709.786 857.222 767.393 c 128,-1,23
 857.222 825 857.222 825 857.111 855.5 c 128,-1,24
 857 886 857 886 850.5 915.5 c 128,-1,25
 844 945 844 945 831.5 960.5 c 0,26,27
 811.742 985 811.742 985 767.871 985 c 128,-1,28
 724 985 724 985 686 967 c 128,-1,29
 648 949 648 949 610 917.5 c 0,30,31
 527.411 849.038 527.411 849.038 468 752 c 1,32,-1
 365 0 l 1,33,-1
 106 0 l 1,34,-1
 237 962 l 1,35,-1
 134 1022 l 1,36,-1
 151 1111 l 1,37,-1
 458 1163 l 1,38,-1
 509 1139 l 1,39,-1
 491 930 l 1,40,41
 610.365 1092.47 610.365 1092.47 766.5 1145 c 0,42,43
 820 1163 820 1163 876 1163 c 0,44,45
 1099.47 1163 1099.47 1163 1121 919 c 1,46,47
 1238.62 1092.16 1238.62 1092.16 1403 1145 c 0,48,49
 1459 1163 1459 1163 1515.5 1163 c 128,-1,50
 1572 1163 1572 1163 1617 1146.5 c 128,-1,51
 1662 1130 1662 1130 1694.5 1094 c 0,52,53
 1764 1017.02 1764 1017.02 1764 861 c 0,54,55
 1764 787.765 1764 787.765 1743.5 668.382 c 2,56,-1
 1690 346.5 l 1,57,58
 1663.18 178.336 1663.18 178.336 1681.5 146 c 0,59,60
 1690 131 1690 131 1713.56 131 c 128,-1,61
 1737.12 131 1737.12 131 1803 187 c 1,62,-1
 1833 125 l 1,63,64
 1771.12 39.9202 1771.12 39.9202 1664.5 -2.5 c 0,65,66
 1618 -21 1618 -21 1562 -21 c 0,0,1
EndSplineSet
EndChar

StartChar: n
Encoding: 110 110 76
Width: 1279
Flags: HW
LayerCount: 2
Fore
SplineSet
1042.5 145.5 m 128,-1,1
 1051 131 1051 131 1073.75 131 c 128,-1,2
 1096.5 131 1096.5 131 1154 177 c 1,3,-1
 1183 114 l 1,4,5
 1130.32 38.7369 1130.32 38.7369 1020.5 -3.5 c 0,6,7
 975 -21 975 -21 923.5 -21 c 128,-1,8
 872 -21 872 -21 840 -9.5 c 128,-1,9
 808 2 808 2 789.5 22.5 c 0,10,11
 747.86 68.6417 747.86 68.6417 763.5 195.5 c 0,12,13
 772.231 266.319 772.231 266.319 784.616 333.66 c 2,14,-1
 805 443 l 2,15,16
 812 485 812 485 821.5 535 c 128,-1,17
 831 585 831 585 838.5 637 c 0,18,19
 856 758.333 856 758.333 856 822.167 c 128,-1,20
 856 886 856 886 849.5 914.5 c 128,-1,21
 843 943 843 943 830.5 959 c 0,22,23
 810.188 985 810.188 985 768.094 985 c 128,-1,24
 726 985 726 985 687.5 966.5 c 128,-1,25
 649 948 649 948 610.5 915.5 c 0,26,27
 529.042 846.737 529.042 846.737 468 745 c 1,28,-1
 366 0 l 1,29,-1
 107 0 l 1,30,-1
 237 963 l 1,31,-1
 135 1022 l 1,32,-1
 152 1111 l 1,33,-1
 460 1163 l 1,34,-1
 510 1139 l 1,35,-1
 492 931 l 1,36,37
 613.089 1094.63 613.089 1094.63 771.5 1145.5 c 0,38,39
 826 1163 826 1163 883 1163 c 0,40,41
 1129 1163 1129 1163 1129 861 c 0,42,43
 1129 783.5 1129 783.5 1107.5 665.25 c 128,-1,44
 1086 547 1086 547 1079 507 c 0,45,46
 1037.13 266.238 1037.13 266.238 1035.56 213.119 c 128,-1,0
 1034 160 1034 160 1042.5 145.5 c 128,-1,1
EndSplineSet
EndChar

StartChar: o
Encoding: 111 111 77
Width: 1170
Flags: HW
LayerCount: 2
Fore
SplineSet
316 11 m 0,0,1
 73.7978 108.51 73.7978 108.51 73.7978 458.094 c 0,2,3
 73.7978 739.321 73.7978 739.321 232.5 942.5 c 0,4,5
 311 1043 311 1043 422 1103 c 128,-1,6
 533 1163 533 1163 652 1163 c 128,-1,7
 771 1163 771 1163 848.5 1132 c 128,-1,8
 926 1101 926 1101 979 1042 c 0,9,10
 1091.21 917.092 1091.21 917.092 1091.21 683.755 c 0,11,12
 1091.21 400.988 1091.21 400.988 933 199.5 c 0,13,14
 825.037 62.0003 825.037 62.0003 665.5 7.5 c 0,15,16
 585 -20 585 -20 489 -20 c 128,-1,17
 393 -20 393 -20 316 11 c 0,0,1
635 1033 m 0,18,19
 539.517 1033 539.517 1033 470.5 935.5 c 0,20,21
 380.881 808.896 380.881 808.896 360 570.5 c 0,22,23
 355.5 519.125 355.5 519.125 355.5 486.562 c 0,24,25
 355.5 278.946 355.5 278.946 399.25 191.973 c 128,-1,26
 443 105 443 105 534 105 c 0,27,28
 629.489 105 629.489 105 697 203 c 0,29,30
 807.167 362.919 807.167 362.919 807.167 697.96 c 128,-1,31
 807.167 1033 807.167 1033 635 1033 c 0,18,19
EndSplineSet
Substitution2: "Single Substitution lookup 16 subtable" ordmasculine
Substitution2: "'aalt' Access All Alternates in Latin lookup 0 subtable" ordmasculine
EndChar

StartChar: p
Encoding: 112 112 78
Width: 1195
Flags: HW
LayerCount: 2
Fore
SplineSet
654.5 10.5 m 128,-1,1
 566 -20 566 -20 491.8 -20 c 128,-1,2
 417.6 -20 417.6 -20 348 -8 c 1,3,-1
 277 -520 l 1,4,-1
 23 -520 l 1,5,-1
 225 982 l 1,6,-1
 111 1032 l 1,7,-1
 130 1111 l 1,8,-1
 457 1163 l 1,9,-1
 507 1139 l 1,10,-1
 493 1037 l 1,11,12
 613.96 1163 613.96 1163 777 1163 c 0,13,14
 1031.24 1163 1031.24 1163 1099.5 909 c 0,15,16
 1121 829 1121 829 1121 734 c 128,-1,17
 1121 639 1121 639 1100.5 548.5 c 128,-1,18
 1080 458 1080 458 1041 374.5 c 128,-1,19
 1002 291 1002 291 945 219 c 128,-1,20
 888 147 888 147 815.5 94 c 128,-1,0
 743 41 743 41 654.5 10.5 c 128,-1,1
368 134 m 1,21,22
 412.571 110 412.571 110 484.786 110 c 128,-1,23
 557 110 557 110 607.5 136.5 c 128,-1,24
 658 163 658 163 697 208 c 128,-1,25
 736 253 736 253 764 313.5 c 128,-1,26
 792 374 792 374 810.5 442 c 0,27,28
 846 572.487 846 572.487 846 678.743 c 128,-1,29
 846 785 846 785 836 837 c 128,-1,30
 826 889 826 889 806 926 c 0,31,32
 763.838 1004 763.838 1004 690 1004 c 0,33,34
 574.36 1004 574.36 1004 471 868 c 1,35,-1
 368 134 l 1,21,22
EndSplineSet
EndChar

StartChar: q
Encoding: 113 113 79
Width: 1191
Flags: HW
LayerCount: 2
Fore
SplineSet
696 105 m 1,0,1
 576 -20 576 -20 409 -20 c 0,2,3
 240.061 -20 240.061 -20 152 103.5 c 0,4,5
 72 215.695 72 215.695 72 407 c 0,6,7
 72 693.676 72 693.676 239.5 915.5 c 0,8,9
 355.117 1068.61 355.117 1068.61 533.5 1131 c 0,10,11
 625 1163 625 1163 735 1163 c 128,-1,12
 845 1163 845 1163 966 1119 c 1,13,-1
 967 1120 l 1,14,-1
 1095 1148 l 1,15,-1
 904 -293 l 2,16,17
 896.788 -339.875 896.788 -339.875 919 -360.5 c 0,18,19
 926 -367 926 -367 935 -367 c 0,20,21
 967.5 -367 967.5 -367 1034 -311 c 1,22,-1
 1063 -374 l 1,23,24
 1013 -452.567 1013 -452.567 892.5 -499.5 c 0,25,26
 845 -518 845 -518 795 -518 c 128,-1,27
 745 -518 745 -518 714 -506.5 c 128,-1,28
 683 -495 683 -495 664 -475 c 0,29,30
 626.769 -435.81 626.769 -435.81 631 -366 c 1,31,-1
 696 105 l 1,0,1
821 1011 m 1,32,33
 773.273 1032 773.273 1032 707.136 1032 c 128,-1,34
 641 1032 641 1032 588.5 1004.5 c 128,-1,35
 536 977 536 977 495.5 930 c 128,-1,36
 455 883 455 883 426.5 821.5 c 128,-1,37
 398 760 398 760 380 692 c 0,38,39
 345 559.778 345 559.778 345 421.889 c 128,-1,40
 345 284 345 284 385 211 c 128,-1,41
 425 138 425 138 496 138 c 0,42,43
 615.64 138 615.64 138 719 274 c 1,44,-1
 821 1011 l 1,32,33
EndSplineSet
EndChar

StartChar: r
Encoding: 114 114 80
Width: 840
Flags: HW
LayerCount: 2
Fore
SplineSet
821 864 m 1,0,1
 794.6 886 794.6 886 716 886 c 256,2,3
 560.429 886 560.429 886 464 736 c 1,4,-1
 367 0 l 1,5,-1
 108 0 l 1,6,-1
 235 962 l 1,7,-1
 131 1022 l 1,8,-1
 149 1111 l 1,9,-1
 434 1163 l 1,10,-1
 484 1139 l 1,11,-1
 484 889 l 1,12,13
 547.044 1066.31 547.044 1066.31 692.5 1137 c 0,14,15
 746 1163 746 1163 789.5 1163 c 0,16,17
 858.571 1163 858.571 1163 878 1146 c 1,18,-1
 821 864 l 1,0,1
EndSplineSet
EndChar

StartChar: s
Encoding: 115 115 81
Width: 879
Flags: HW
LayerCount: 2
Fore
SplineSet
335 125 m 0,0,1
 513 125 513 125 513 258 c 0,2,3
 513 349.369 513 349.369 404.5 434.5 c 1,4,-1
 335 487 l 1,5,6
 133 635.133 133 635.133 133 833 c 0,7,8
 133 986.759 133 986.759 259 1078 c 0,9,10
 376.381 1163 376.381 1163 559 1163 c 0,11,12
 676.231 1163 676.231 1163 740.615 1147.5 c 128,-1,13
 805 1132 805 1132 817 1126 c 1,14,-1
 777 939 l 1,15,16
 738.404 988.624 738.404 988.624 641.5 1016.5 c 0,17,18
 605 1027 605 1027 567 1027 c 128,-1,19
 529 1027 529 1027 499.5 1020.5 c 128,-1,20
 470 1014 470 1014 446 999 c 0,21,22
 387.692 962.558 387.692 962.558 387.692 890.325 c 0,23,24
 387.692 830.174 387.692 830.174 420.346 788.087 c 0,25,26
 468.893 725.515 468.893 725.515 532.447 677.758 c 128,-1,27
 596 630 596 630 634.5 595.5 c 128,-1,28
 673 561 673 561 703 518.5 c 0,29,30
 770 423.583 770 423.583 770 323.792 c 128,-1,31
 770 224 770 224 733.5 162 c 128,-1,32
 697 100 697 100 636 59.5 c 0,33,34
 516.259 -20 516.259 -20 333 -20 c 0,35,36
 186.478 -20 186.478 -20 71 21.5 c 0,37,38
 39 33 39 33 25 44 c 1,39,-1
 67 220 l 1,40,41
 139.2 161.337 139.2 161.337 248.5 135 c 0,42,43
 290 125 290 125 335 125 c 0,0,1
EndSplineSet
EndChar

StartChar: t
Encoding: 116 116 82
Width: 730
Flags: HW
LayerCount: 2
Fore
SplineSet
143.5 73.5 m 128,-1,1
 128 108 128 108 128 136 c 128,-1,2
 128 164 128 164 128.5 172.5 c 128,-1,3
 129 181 129 181 130.5 200.5 c 0,4,5
 134.167 248.167 134.167 248.167 148 345 c 1,6,-1
 234 1005 l 1,7,-1
 114 1005 l 1,8,-1
 136 1103 l 1,9,-1
 259 1150 l 1,10,11
 330.273 1221.27 330.273 1221.27 406 1416 c 1,12,-1
 548 1416 l 1,13,-1
 514 1155 l 1,14,-1
 749 1155 l 1,15,-1
 728 1005 l 1,16,-1
 495 1005 l 1,17,-1
 412 390 l 2,18,19
 396 268.857 396 268.857 396 226.429 c 128,-1,20
 396 184 396 184 413 164.5 c 128,-1,21
 430 145 430 145 462 145 c 128,-1,22
 494 145 494 145 518 150.5 c 128,-1,23
 542 156 542 156 567 166 c 0,24,25
 622.417 188.167 622.417 188.167 655 215 c 1,26,-1
 677 136 l 1,27,28
 592.523 38.8515 592.523 38.8515 434.5 -4.5 c 0,29,30
 378 -20 378 -20 328.5 -20 c 128,-1,31
 279 -20 279 -20 245 -11.5 c 128,-1,32
 211 -3 211 -3 185 18 c 128,-1,0
 159 39 159 39 143.5 73.5 c 128,-1,1
EndSplineSet
EndChar

StartChar: u
Encoding: 117 117 83
Width: 1242
Flags: HW
LayerCount: 2
Fore
SplineSet
751 135 m 1,0,1
 612.034 -20 612.034 -20 410 -20 c 0,2,3
 224.549 -20 224.549 -20 160.5 119 c 0,4,5
 137 170 137 170 137 224.5 c 128,-1,6
 137 279 137 279 140.5 321.5 c 128,-1,7
 144 364 144 364 149.5 410 c 128,-1,8
 155 456 155 456 162 504 c 2,9,-1
 228 962 l 1,10,-1
 115 1032 l 1,11,-1
 132 1121 l 1,12,-1
 455 1163 l 1,13,-1
 505 1139 l 1,14,-1
 436 589 l 2,15,16
 425 499 425 499 413.5 421.5 c 128,-1,17
 402 344 402 344 402 292 c 128,-1,18
 402 240 402 240 410 211 c 128,-1,19
 418 182 418 182 433 164.5 c 0,20,21
 460 133 460 133 506.5 133 c 128,-1,22
 553 133 553 133 584.5 142.5 c 128,-1,23
 616 152 616 152 645 167.5 c 0,24,25
 702.448 198.205 702.448 198.205 747 247 c 1,26,-1
 869 1155 l 1,27,-1
 1128 1155 l 1,28,-1
 1002 208 l 2,29,30
 1000.04 193.098 1000.04 193.098 1000.04 181.118 c 0,31,32
 1000.04 132 1000.04 132 1030.81 132 c 128,-1,33
 1061.59 132 1061.59 132 1132 189 c 1,34,-1
 1161 126 l 1,35,36
 1137.61 85.9024 1137.61 85.9024 1088.8 51.9512 c 0,37,38
 986.812 -19 986.812 -19 898.906 -19 c 128,-1,39
 811 -19 811 -19 779.699 18.4731 c 128,-1,40
 748.398 55.9462 748.398 55.9462 748.398 87.3118 c 128,-1,41
 748.398 118.677 748.398 118.677 751 135 c 1,0,1
EndSplineSet
EndChar

StartChar: w
Encoding: 119 119 84
Width: 1720
Flags: HW
LayerCount: 2
Fore
SplineSet
320 -20 m 1,0,-1
 147 945 l 1,1,2
 131.101 1027.15 131.101 1027.15 68.5 993 c 0,3,4
 52 984 52 984 36 973 c 1,5,-1
 6 1043 l 1,6,7
 48.0338 1106.05 48.0338 1106.05 155 1147.5 c 0,8,9
 195 1163 195 1163 259 1163 c 0,10,11
 389.597 1163 389.597 1163 408 1026 c 1,12,-1
 479 390 l 1,13,-1
 497 192 l 1,14,-1
 850 1155 l 1,15,-1
 1076 1155 l 1,16,-1
 1166 373 l 1,17,-1
 1189 192 l 1,18,-1
 1289 358 l 1,19,20
 1380.56 512.198 1380.56 512.198 1424.5 693 c 0,21,22
 1454.56 816.681 1454.56 816.681 1441.5 896.5 c 0,23,24
 1437 924 1437 924 1431 949 c 2,25,-1
 1420 996.5 l 2,26,27
 1415 1019 1415 1019 1415 1040 c 0,28,29
 1415 1097 1415 1097 1448.5 1130 c 128,-1,30
 1482 1163 1482 1163 1534 1163 c 128,-1,31
 1586 1163 1586 1163 1614.5 1147.5 c 128,-1,32
 1643 1132 1643 1132 1659.5 1104 c 0,33,34
 1690 1052.24 1690 1052.24 1690 978.121 c 128,-1,35
 1690 904 1690 904 1677 849.5 c 128,-1,36
 1664 795 1664 795 1641 736.5 c 128,-1,37
 1618 678 1618 678 1587.5 617.5 c 128,-1,38
 1557 557 1557 557 1524 499.5 c 1,39,40
 1442.46 364.004 1442.46 364.004 1395 292 c 2,41,-1
 1195 -8 l 1,42,-1
 982 -19 l 1,43,-1
 929 355 l 1,44,-1
 893 680 l 1,45,-1
 890 821 l 1,46,-1
 841 680 l 1,47,-1
 696 325 l 1,48,-1
 546 -6 l 1,49,-1
 320 -20 l 1,0,-1
EndSplineSet
EndChar

StartChar: x
Encoding: 120 120 85
Width: 1019
Flags: HW
LayerCount: 2
Fore
SplineSet
880 145 m 0,0,1
 918.294 145 918.294 145 981 197 c 1,2,-1
 1021 128 l 1,3,4
 1001.09 91.5029 1001.09 91.5029 947.046 54.7514 c 0,5,6
 837.118 -20 837.118 -20 731 -20 c 0,7,8
 634.026 -20 634.026 -20 596.5 42 c 0,9,10
 585 61 585 61 576 85 c 2,11,-1
 460 403 l 1,12,-1
 202 0 l 1,13,-1
 -61 0 l 1,14,-1
 386 587 l 1,15,-1
 212 939 l 2,16,17
 197 968 197 968 182.5 988 c 128,-1,18
 168 1008 168 1008 148 1008 c 256,19,20
 110.8 1008 110.8 1008 66 976 c 1,21,-1
 29 1045 l 1,22,23
 49.0315 1075.05 49.0315 1075.05 99.0157 1104.02 c 0,24,25
 200.75 1163 200.75 1163 282.875 1163 c 128,-1,26
 365 1163 365 1163 402 1136 c 128,-1,27
 439 1109 439 1109 456 1059 c 2,28,-1
 556 762 l 1,29,-1
 812 1155 l 1,30,-1
 1071 1155 l 1,31,-1
 627 574 l 1,32,-1
 805 233 l 1,33,34
 849 145 849 145 880 145 c 0,0,1
EndSplineSet
EndChar

StartChar: y
Encoding: 121 121 86
Width: 1078
Flags: HW
LayerCount: 2
Fore
SplineSet
-74 -289 m 1,0,1
 25 -355 25 -355 147 -355 c 0,2,3
 327.795 -355 327.795 -355 469 -62 c 1,4,-1
 341 -62 l 1,5,-1
 151 945 l 1,6,7
 143 976 143 976 134.5 988.5 c 128,-1,8
 126 1001 126 1001 100.423 1001 c 128,-1,9
 74.8462 1001 74.8462 1001 31 963 c 1,10,-1
 2 1033 l 1,11,12
 51.7361 1104.05 51.7361 1104.05 158.5 1146.5 c 0,13,14
 200 1163 200 1163 243.5 1163 c 128,-1,15
 287 1163 287 1163 316.5 1153.5 c 128,-1,16
 346 1144 346 1144 365 1126 c 0,17,18
 397.628 1095.09 397.628 1095.09 407.314 1044.04 c 128,-1,19
 417 993 417 993 426 933.5 c 0,20,21
 515.176 305.439 515.176 305.439 521 267 c 1,22,-1
 540 51 l 1,23,-1
 650 271 l 1,24,25
 762.281 518.678 762.281 518.678 793 677 c 0,26,27
 806 744 806 744 809.091 784.545 c 128,-1,28
 812.182 825.091 812.182 825.091 812.182 843.545 c 128,-1,29
 812.182 862 812.182 862 808.091 887 c 128,-1,30
 804 912 804 912 797 936 c 0,31,32
 779 997.714 779 997.714 779 1047.36 c 128,-1,33
 779 1097 779 1097 813 1130 c 128,-1,34
 847 1163 847 1163 907 1163 c 0,35,36
 1057 1163 1057 1163 1057 960 c 0,37,38
 1057 772.55 1057 772.55 906 463 c 1,39,40
 664.934 -10.8196 664.934 -10.8196 616.967 -94.9098 c 0,41,42
 538.625 -232.25 538.625 -232.25 495.313 -290.625 c 128,-1,43
 452 -349 452 -349 417 -384.5 c 128,-1,44
 382 -420 382 -420 335.5 -448.5 c 0,45,46
 231.895 -512 231.895 -512 98 -512 c 0,47,48
 -22.2 -512 -22.2 -512 -123 -476 c 1,49,-1
 -74 -289 l 1,0,1
EndSplineSet
EndChar

StartChar: z
Encoding: 122 122 87
Width: 1035
Flags: HW
LayerCount: 2
Fore
SplineSet
53 -23 m 1,0,-1
 -12 39 l 1,1,-1
 632 829 l 1,2,-1
 750 931 l 1,3,-1
 404 932 l 2,4,5
 330.857 932 330.857 932 280.5 887 c 0,6,7
 233.347 844.863 233.347 844.863 225 776 c 1,8,-1
 149 776 l 1,9,10
 147 799 147 799 147 832.5 c 128,-1,11
 147 866 147 866 149 903.5 c 128,-1,12
 151 941 151 941 156 979.5 c 128,-1,13
 161 1018 161 1018 170 1051 c 0,14,15
 189.786 1123.55 189.786 1123.55 223 1142 c 0,16,17
 259 1163 259 1163 324 1163 c 256,18,19
 407.889 1163 407.889 1163 537.444 1152 c 2,20,-1
 716.5 1137 l 2,21,22
 827.875 1128 827.875 1128 894.438 1128 c 128,-1,23
 961 1128 961 1128 996 1163 c 1,24,-1
 1051 1103 l 1,25,-1
 402 298 l 1,26,-1
 297 205 l 1,27,-1
 672 205 l 2,28,29
 786.915 205 786.915 205 837 303.5 c 0,30,31
 852 333 852 333 857 367 c 1,32,-1
 930 367 l 1,33,34
 931.583 330.584 931.583 330.584 931.583 301.167 c 128,-1,35
 931.583 271.75 931.583 271.75 929.292 237.375 c 128,-1,36
 927 203 927 203 922 165 c 128,-1,37
 917 127 917 127 908 93.5 c 0,38,39
 887.982 18.9879 887.982 18.9879 855 -3 c 0,40,41
 826.111 -23 826.111 -23 753 -23 c 256,42,43
 656.667 -23 656.667 -23 521.333 -12.5 c 128,-1,44
 386 -2 386 -2 332.5 1.5 c 0,45,46
 202.571 10 202.571 10 140.986 10 c 128,-1,47
 79.4 10 79.4 10 53 -23 c 1,0,-1
EndSplineSet
EndChar

StartChar: braceleft
Encoding: 123 123 88
Width: 1034
Flags: HW
LayerCount: 2
Fore
SplineSet
268.5 -133.5 m 128,-1,1
 254 -106 254 -106 254 -83 c 128,-1,2
 254 -60 254 -60 258 -29.5 c 2,3,-1
 346 579 l 1,4,5
 346 634.591 346 634.591 218 685.5 c 0,6,7
 174 703 174 703 129 714 c 1,8,-1
 147 838 l 1,9,10
 392 898 392 898 404 966 c 1,11,-1
 485 1498 l 1,12,13
 508.47 1642.73 508.47 1642.73 575 1698.5 c 0,14,15
 636.439 1750 636.439 1750 760 1750 c 0,16,17
 828.083 1750 828.083 1750 1020 1703 c 1,18,19
 1016 1679 1016 1679 1012.5 1660.5 c 2,20,-1
 1006 1625 l 2,21,22
 1003 1608 1003 1608 1003 1601 c 1,23,-1
 727 1601 l 1,24,-1
 631 970 l 2,25,26
 618.759 886.35 618.759 886.35 498.5 827.5 c 0,27,28
 475 816 475 816 448 804 c 2,29,-1
 388 776 l 1,30,31
 493.652 722 493.652 722 523.326 691.5 c 0,32,33
 580.339 632.9 580.339 632.9 571 575 c 2,34,-1
 476 -55 l 1,35,-1
 751 -55 l 1,36,37
 748.385 -62.8461 748.385 -62.8461 744.192 -99.423 c 2,38,-1
 737 -161 l 1,39,40
 614.614 -196.996 614.614 -196.996 558.807 -202.498 c 128,-1,41
 503 -208 503 -208 459 -208 c 128,-1,42
 415 -208 415 -208 376.5 -201 c 128,-1,43
 338 -194 338 -194 310.5 -177.5 c 128,-1,0
 283 -161 283 -161 268.5 -133.5 c 128,-1,1
EndSplineSet
EndChar

StartChar: bar
Encoding: 124 124 89
Width: 854
Flags: HW
LayerCount: 2
Fore
SplineSet
350 1780 m 1,0,-1
 543 1780 l 1,1,-1
 543 -186 l 1,2,-1
 350 -186 l 1,3,-1
 350 1780 l 1,0,-1
EndSplineSet
EndChar

StartChar: asciitilde
Encoding: 126 126 91
Width: 1137
Flags: HW
LayerCount: 2
Fore
SplineSet
405 873 m 0,0,1
 278.66 873 278.66 873 208 766 c 1,2,-1
 130 862 l 1,3,4
 156.524 941.571 156.524 941.571 241.5 1003 c 0,5,6
 336.95 1072 336.95 1072 442 1072 c 0,7,8
 512.667 1072 512.667 1072 561.833 1042 c 128,-1,9
 611 1012 611 1012 637 991 c 128,-1,10
 663 970 663 970 688 952 c 0,11,12
 746.333 910 746.333 910 794 910 c 0,13,14
 917.038 910 917.038 910 991 1022 c 1,15,-1
 1079 926 l 1,16,17
 1056.52 842.223 1056.52 842.223 966.5 775.5 c 0,18,19
 872.73 706 872.73 706 762 706 c 0,20,21
 664.977 706 664.977 706 564 789.5 c 0,22,23
 501.944 840.815 501.944 840.815 468.472 856.908 c 128,-1,24
 435 873 435 873 405 873 c 0,0,1
EndSplineSet
EndChar

StartChar: exclam
Encoding: 33 33 93
Width: 701
Flags: HW
LayerCount: 2
Fore
SplineSet
379 1778 m 1,0,-1
 669 1778 l 1,1,-1
 419 508 l 1,2,-1
 248 508 l 1,3,-1
 379 1778 l 1,0,-1
158 18.5 m 0,4,5
 140 37 140 37 131.326 61.1957 c 128,-1,6
 122.652 85.3913 122.652 85.3913 122.652 121.049 c 128,-1,7
 122.652 156.707 122.652 156.707 141.326 190.853 c 128,-1,8
 160 225 160 225 186 248 c 0,9,10
 240.261 296 240.261 296 291.63 296 c 128,-1,11
 343 296 343 296 369 284 c 0,12,13
 441.125 250.712 441.125 250.712 441.125 159.969 c 0,14,15
 441.125 77.0648 441.125 77.0648 376 24 c 0,16,17
 320.773 -21 320.773 -21 251 -21 c 0,18,19
 196.432 -21 196.432 -21 158 18.5 c 0,4,5
EndSplineSet
EndChar

StartChar: sterling
Encoding: 163 163 94
Width: 1382
Flags: HW
LayerCount: 2
Fore
SplineSet
39 -20 m 0,0,1
 -52.4706 -20 -52.4706 -20 -52.4706 58.6505 c 0,2,3
 -52.4706 123.418 -52.4706 123.418 28 174 c 0,4,5
 107.545 224 107.545 224 203 224 c 1,6,7
 263.814 312.881 263.814 312.881 288 458 c 2,8,-1
 334 734 l 1,9,-1
 173 734 l 1,10,-1
 191 890 l 1,11,-1
 361 890 l 1,12,-1
 380 1002 l 1,13,14
 414.219 1229.09 414.219 1229.09 575.5 1393.5 c 0,15,16
 743.733 1565 743.733 1565 961 1565 c 0,17,18
 1159.42 1565 1159.42 1565 1245 1476 c 1,19,-1
 1137 1287 l 1,20,21
 1121.97 1320.82 1121.97 1320.82 1079.98 1350.91 c 0,22,23
 990.558 1415 990.558 1415 900 1415 c 0,24,25
 769.786 1415 769.786 1415 696.5 1235 c 0,26,27
 668 1165 668 1165 658.5 1106.5 c 128,-1,28
 649 1048 649 1048 646 1032 c 128,-1,29
 643 1016 643 1016 639.5 994 c 0,30,31
 632.787 951.803 632.787 951.803 620 890 c 1,32,-1
 904 890 l 1,33,-1
 887 734 l 1,34,-1
 591 734 l 1,35,36
 584 697 584 697 580 670 c 128,-1,37
 576 643 576 643 567.5 592 c 128,-1,38
 559 541 559 541 534.5 471.5 c 128,-1,39
 510 402 510 402 483 350.5 c 128,-1,40
 456 299 456 299 429.5 261 c 2,41,-1
 383 193 l 1,42,43
 425 184 425 184 470 171.5 c 128,-1,44
 515 159 515 159 562 148.5 c 0,45,46
 676.143 123 676.143 123 761.571 123 c 128,-1,47
 847 123 847 123 908 140 c 128,-1,48
 969 157 969 157 1005 186.5 c 0,49,50
 1069 238.944 1069 238.944 1069 340 c 0,51,52
 1069 430.857 1069 430.857 981 500 c 1,53,-1
 1153 654 l 1,54,55
 1261.6 576.928 1261.6 576.928 1301.5 439.5 c 0,56,57
 1315 393 1315 393 1315 335 c 128,-1,58
 1315 277 1315 277 1290.5 212.5 c 128,-1,59
 1266 148 1266 148 1207.5 96 c 0,60,61
 1077 -20 1077 -20 812 -20 c 0,62,63
 677.086 -20 677.086 -20 568.543 9 c 128,-1,64
 460 38 460 38 398.5 57.5 c 128,-1,65
 337 77 337 77 276 93 c 1,66,67
 212.281 21.7842 212.281 21.7842 108 -9.5 c 0,68,69
 73 -20 73 -20 39 -20 c 0,0,1
EndSplineSet
EndChar

StartChar: section
Encoding: 167 167 95
Width: 1194
Flags: HW
LayerCount: 2
Fore
SplineSet
955 401 m 1,0,1
 1020.73 317.347 1020.73 317.347 1020.73 217.81 c 0,2,3
 1020.73 87.6243 1020.73 87.6243 931.5 -13.5 c 0,4,5
 820.978 -138.758 820.978 -138.758 620 -175 c 0,6,7
 559 -186 559 -186 494.5 -186 c 128,-1,8
 430 -186 430 -186 359 -178.5 c 128,-1,9
 288 -171 288 -171 226.5 -159 c 0,10,11
 92.147 -132.785 92.147 -132.785 53 -106 c 1,12,-1
 101 234 l 1,13,-1
 247 234 l 1,14,-1
 278 18 l 1,15,16
 347.231 -57 347.231 -57 522 -57 c 0,17,18
 681.038 -57 681.038 -57 754.5 52.5 c 0,19,20
 785.3 98.4094 785.3 98.4094 785.3 149.48 c 128,-1,21
 785.3 200.55 785.3 200.55 759.65 234.275 c 128,-1,22
 734 268 734 268 688 297.5 c 128,-1,23
 642 327 642 327 582.5 354 c 2,24,-1
 460.5 410 l 2,25,26
 306.582 481.418 306.582 481.418 247.791 540.209 c 0,27,28
 140.467 647.533 140.467 647.533 140.467 774.538 c 0,29,30
 140.467 938.393 140.467 938.393 280 1083 c 1,31,32
 209.98 1167.02 209.98 1167.02 209.98 1269.28 c 0,33,34
 209.98 1465.4 209.98 1465.4 394.5 1580.5 c 0,35,36
 542.794 1673 542.794 1673 731 1673 c 0,37,38
 939.923 1673 939.923 1673 1077.5 1624 c 0,39,40
 1114 1611 1114 1611 1134 1598 c 1,41,-1
 1088 1283 l 1,42,-1
 946 1283 l 1,43,-1
 905 1491 l 1,44,45
 846.943 1549.06 846.943 1549.06 717.153 1549.06 c 0,46,47
 550.267 1549.06 550.267 1549.06 481 1460 c 0,48,49
 448.695 1418.46 448.695 1418.46 448.695 1363.2 c 128,-1,50
 448.695 1307.93 448.695 1307.93 473.847 1269.97 c 128,-1,51
 499 1232 499 1232 544.5 1200 c 128,-1,52
 590 1168 590 1168 649 1140.5 c 2,53,-1
 769.5 1084.5 l 2,54,55
 925.56 1012.18 925.56 1012.18 982.28 956.09 c 0,56,57
 1085.82 853.701 1085.82 853.701 1085.82 729.351 c 0,58,59
 1085.82 544.398 1085.82 544.398 955 401 c 1,0,1
404 981 m 1,60,61
 365.609 917.015 365.609 917.015 365.609 866.627 c 128,-1,62
 365.609 816.239 365.609 816.239 384.304 782.12 c 128,-1,63
 403 748 403 748 438.5 718 c 128,-1,64
 474 688 474 688 522 662.5 c 128,-1,65
 570 637 570 637 623 612 c 2,66,-1
 730.5 560.5 l 2,67,68
 785 534 785 534 835 503 c 1,69,70
 867.409 558.558 867.409 558.558 867.409 609.904 c 128,-1,71
 867.409 661.25 867.409 661.25 849.705 697.125 c 128,-1,72
 832 733 832 733 797 764 c 128,-1,73
 762 795 762 795 715 821.5 c 128,-1,74
 668 848 668 848 615.5 873 c 2,75,-1
 508 924 l 2,76,77
 453 950 453 950 404 981 c 1,60,61
EndSplineSet
EndChar

StartChar: dieresis
Encoding: 168 168 96
Width: 809
Flags: HW
LayerCount: 2
Fore
SplineSet
673.5 1377 m 128,-1,1
 643 1363 643 1363 610 1363 c 128,-1,2
 577 1363 577 1363 553 1375 c 128,-1,3
 529 1387 529 1387 511.5 1407 c 0,4,5
 450.211 1477.04 450.211 1477.04 488.5 1572 c 0,6,7
 514.129 1635.56 514.129 1635.56 572 1662.5 c 0,8,9
 601 1676 601 1676 634.5 1676 c 128,-1,10
 668 1676 668 1676 693.5 1664.5 c 0,11,12
 743.09 1642.14 743.09 1642.14 763.5 1589.5 c 0,13,14
 772.095 1567.33 772.095 1567.33 772.095 1553.95 c 128,-1,15
 772.095 1540.57 772.095 1540.57 771.548 1521.79 c 128,-1,16
 771 1503 771 1503 759 1471 c 128,-1,17
 747 1439 747 1439 725.5 1415 c 128,-1,0
 704 1391 704 1391 673.5 1377 c 128,-1,1
237.5 1377 m 128,-1,19
 207 1363 207 1363 174 1363 c 128,-1,20
 141 1363 141 1363 117 1375 c 0,21,22
 68.7143 1399.14 68.7143 1399.14 48 1453 c 0,23,24
 38.9091 1476.64 38.9091 1476.64 38.9091 1490.55 c 128,-1,25
 38.9091 1504.45 38.9091 1504.45 39.4545 1522.73 c 128,-1,26
 40 1541 40 1541 52.5 1572 c 128,-1,27
 65 1603 65 1603 86 1626 c 0,28,29
 131.652 1676 131.652 1676 200 1676 c 0,30,31
 293.959 1676 293.959 1676 327.5 1589.5 c 0,32,33
 336.095 1567.33 336.095 1567.33 336.095 1553.95 c 128,-1,34
 336.095 1540.57 336.095 1540.57 335.548 1521.79 c 128,-1,35
 335 1503 335 1503 323 1471 c 128,-1,36
 311 1439 311 1439 289.5 1415 c 128,-1,18
 268 1391 268 1391 237.5 1377 c 128,-1,19
EndSplineSet
EndChar

StartChar: copyright
Encoding: 169 169 97
Width: 1768
Flags: HW
LayerCount: 2
Fore
SplineSet
168 806 m 256,0,1
 168 1013.5 168 1013.5 273 1192 c 0,2,3
 374.421 1364.42 374.421 1364.42 548 1465.5 c 0,4,5
 725.727 1569 725.727 1569 933 1569 c 256,6,7
 1141.27 1569 1141.27 1569 1319 1465.5 c 0,8,9
 1492.58 1364.42 1492.58 1364.42 1594 1192 c 0,10,11
 1699 1013.5 1699 1013.5 1699 806 c 256,12,13
 1699 490 1699 490 1474 265 c 0,14,15
 1332 123 1332 123 1136 69 c 0,16,17
 1038 42 1038 42 933 42 c 256,18,19
 725.727 42 725.727 42 548 145.5 c 0,20,21
 375.788 245.788 375.788 245.788 273 419.5 c 0,22,23
 168 596.95 168 596.95 168 806 c 256,0,1
297 806 m 256,24,25
 297 537.313 297 537.313 481.5 348 c 0,26,27
 666.669 158 666.669 158 933 158 c 256,28,29
 1200.33 158 1200.33 158 1385.5 348 c 0,30,31
 1502.52 468.072 1502.52 468.072 1547.5 634 c 0,32,33
 1570 717 1570 717 1570 806 c 256,34,35
 1570 1072.58 1570 1072.58 1385.5 1263.5 c 0,36,37
 1270.12 1382.89 1270.12 1382.89 1104 1430.5 c 0,38,39
 1022 1454 1022 1454 933 1454 c 256,40,41
 760.452 1454 760.452 1454 610 1365 c 0,42,43
 467.77 1280.86 467.77 1280.86 383 1132 c 0,44,45
 297 980.976 297 980.976 297 806 c 256,24,25
1179 544 m 1,46,-1
 1213 458 l 1,47,48
 1144.66 399.426 1144.66 399.426 1008 374 c 0,49,50
 965 366 965 366 897.5 366 c 128,-1,51
 830 366 830 366 760 400.5 c 128,-1,52
 690 435 690 435 641.5 494.5 c 0,53,54
 542 616.567 542 616.567 542 802 c 0,55,56
 541.967 805 541.967 805 541.967 807.99 c 0,57,58
 541.967 991.263 541.967 991.263 654 1114.5 c 0,59,60
 774.455 1247 774.455 1247 969 1247 c 0,61,62
 1131.75 1247 1131.75 1247 1203 1209 c 1,63,-1
 1203 989 l 1,64,-1
 1114 989 l 1,65,-1
 1065 1109 l 1,66,67
 1022.1 1148 1022.1 1148 957.55 1148 c 128,-1,68
 893 1148 893 1148 853.5 1128.5 c 128,-1,69
 814 1109 814 1109 785 1072.5 c 0,70,71
 721 991.948 721 991.948 721 861 c 0,72,73
 720.956 856.333 720.956 856.333 720.956 804.589 c 128,-1,74
 720.956 752.844 720.956 752.844 741.978 683.422 c 128,-1,75
 763 614 763 614 797.5 570.5 c 0,76,77
 862.138 489 862.138 489 972.806 489 c 128,-1,78
 1083.47 489 1083.47 489 1179 544 c 1,46,-1
EndSplineSet
EndChar

StartChar: guilsinglleft
Encoding: 8249 8249 99
Width: 1190
Flags: HW
LayerCount: 2
Fore
SplineSet
249 690 m 1,0,-1
 961 1091 l 1,1,-1
 1009 946 l 1,2,-1
 524 610 l 1,3,-1
 918 279 l 1,4,-1
 833 147 l 1,5,-1
 227 530 l 1,6,-1
 249 690 l 1,0,-1
EndSplineSet
EndChar

StartChar: registered
Encoding: 174 174 100
Width: 1768
Flags: HW
LayerCount: 2
Fore
SplineSet
168 806 m 256,0,1
 168 1013.5 168 1013.5 273 1192 c 0,2,3
 374.421 1364.42 374.421 1364.42 548 1465.5 c 0,4,5
 725.727 1569 725.727 1569 933 1569 c 256,6,7
 1141.27 1569 1141.27 1569 1319 1465.5 c 0,8,9
 1492.58 1364.42 1492.58 1364.42 1594 1192 c 0,10,11
 1699 1013.5 1699 1013.5 1699 806 c 256,12,13
 1699 490 1699 490 1474 265 c 0,14,15
 1332 123 1332 123 1136 69 c 0,16,17
 1038 42 1038 42 933 42 c 256,18,19
 725.727 42 725.727 42 548 145.5 c 0,20,21
 375.788 245.788 375.788 245.788 273 419.5 c 0,22,23
 168 596.95 168 596.95 168 806 c 256,0,1
297 806 m 256,24,25
 297 537.313 297 537.313 481.5 348 c 0,26,27
 666.669 158 666.669 158 933 158 c 256,28,29
 1200.33 158 1200.33 158 1385.5 348 c 0,30,31
 1502.52 468.072 1502.52 468.072 1547.5 634 c 0,32,33
 1570 717 1570 717 1570 806 c 256,34,35
 1570 1072.58 1570 1072.58 1385.5 1263.5 c 0,36,37
 1270.12 1382.89 1270.12 1382.89 1104 1430.5 c 0,38,39
 1022 1454 1022 1454 933 1454 c 256,40,41
 760.452 1454 760.452 1454 610 1365 c 0,42,43
 467.77 1280.86 467.77 1280.86 383 1132 c 0,44,45
 297 980.976 297 980.976 297 806 c 256,24,25
716 1240 m 1,46,-1
 954 1245 l 1,47,48
 1189.55 1245 1189.55 1245 1257 1108.5 c 0,49,50
 1278 1066 1278 1066 1279 1020 c 128,-1,51
 1280 974 1280 974 1272.5 935 c 128,-1,52
 1265 896 1265 896 1241.5 861.5 c 0,53,54
 1190.63 786.825 1190.63 786.825 1055 752 c 1,55,56
 1128.75 709.855 1128.75 709.855 1187.5 601.5 c 2,57,-1
 1230.5 523 l 2,58,59
 1251 486 1251 486 1281 465 c 1,60,61
 1305 453 1305 453 1338 453 c 1,62,-1
 1338 375 l 1,63,-1
 1153 375 l 2,64,65
 1133 375 1133 375 1118 393.5 c 128,-1,66
 1103 412 1103 412 1088 442 c 128,-1,67
 1073 472 1073 472 1056.5 510.5 c 128,-1,68
 1040 549 1040 549 1017.5 589 c 0,69,70
 963.836 684.403 963.836 684.403 893 735 c 1,71,-1
 815 735 l 1,72,-1
 815 469 l 1,73,-1
 912 449 l 1,74,-1
 912 375 l 1,75,-1
 567 375 l 1,76,-1
 567 449 l 1,77,-1
 650 469 l 1,78,-1
 650 1134 l 1,79,-1
 567 1156 l 1,80,-1
 567 1240 l 1,81,-1
 716 1240 l 1,46,-1
927 1140 m 2,82,-1
 887.25 1140 l 2,83,84
 862.5 1140 862.5 1140 815 1130 c 1,85,-1
 815 843 l 1,86,87
 856.6 835 856.6 835 919.8 835 c 128,-1,88
 983 835 983 835 1011 847.5 c 128,-1,89
 1039 860 1039 860 1058.5 881.5 c 0,90,91
 1098 925.051 1098 925.051 1098 993 c 0,92,93
 1098 1140 1098 1140 927 1140 c 2,82,-1
EndSplineSet
EndChar

StartChar: macron
Encoding: 175 175 101
Width: 614
Flags: HW
LayerCount: 2
Fore
SplineSet
28 1594 m 1,0,-1
 568 1594 l 1,1,-1
 566 1415 l 1,2,-1
 26 1415 l 1,3,-1
 28 1594 l 1,0,-1
EndSplineSet
EndChar

StartChar: degree
Encoding: 176 176 102
Width: 928
Flags: HW
LayerCount: 2
Fore
SplineSet
524.5 945 m 0,0,1
 451 945 451 945 390 971.5 c 0,2,3
 266.441 1025.18 266.441 1025.18 216.5 1148.5 c 0,4,5
 192.961 1206.63 192.961 1206.63 192.961 1272.6 c 0,6,7
 192.961 1418.33 192.961 1418.33 294.5 1515.5 c 0,8,9
 394.292 1611 394.292 1611 543 1611 c 0,10,11
 684.589 1611 684.589 1611 781.5 1513 c 0,12,13
 875.038 1418.41 875.038 1418.41 875.038 1283.3 c 0,14,15
 875.038 1135.56 875.038 1135.56 772.5 1039.5 c 0,16,17
 671.629 945 671.629 945 524.5 945 c 0,0,1
531 1084 m 0,18,19
 570 1084 570 1084 604 1098.5 c 128,-1,20
 638 1113 638 1113 663 1139 c 0,21,22
 717 1195.16 717 1195.16 717 1278 c 0,23,24
 717.067 1280.67 717.067 1280.67 717.067 1300.52 c 128,-1,25
 717.067 1320.37 717.067 1320.37 703.533 1354.68 c 128,-1,26
 690 1389 690 1389 666 1415 c 0,27,28
 613.385 1472 613.385 1472 537 1472 c 0,29,30
 456.327 1472 456.327 1472 404.5 1417 c 0,31,32
 350.931 1360.15 350.931 1360.15 350.931 1272.5 c 0,33,34
 350.931 1194.67 350.931 1194.67 401.5 1141 c 0,35,36
 455.212 1084 455.212 1084 531 1084 c 0,18,19
EndSplineSet
EndChar

StartChar: plusminus
Encoding: 177 177 103
Width: 1350
Flags: HW
LayerCount: 2
Fore
SplineSet
574 526 m 1,0,-1
 600 690 l 1,1,-1
 459 683 l 1,2,-1
 249 683 l 1,3,-1
 267 861 l 1,4,-1
 487 861 l 1,5,-1
 626 850 l 1,6,-1
 639 1015 l 1,7,-1
 666 1245 l 1,8,-1
 864 1245 l 1,9,-1
 838 1015 l 1,10,-1
 809 851 l 1,11,-1
 924 861 l 1,12,-1
 1164 861 l 1,13,-1
 1146 683 l 1,14,-1
 896 683 l 1,15,-1
 784 690 l 1,16,17
 782 648 782 648 778.5 608 c 128,-1,18
 775 568 775 568 773 526 c 1,19,-1
 746 285 l 1,20,-1
 547 285 l 1,21,-1
 574 526 l 1,0,-1
197 180 m 1,22,-1
 1056 180 l 1,23,-1
 1039 15 l 1,24,-1
 180 15 l 1,25,-1
 197 180 l 1,22,-1
EndSplineSet
EndChar

StartChar: acute
Encoding: 180 180 104
Width: 559
Flags: HW
LayerCount: 2
Fore
SplineSet
50 1312 m 1,0,-1
 367 1743 l 1,1,-1
 534 1566 l 1,2,3
 504.574 1510.42 504.574 1510.42 362 1395 c 0,4,5
 208 1270.33 208 1270.33 128 1241 c 1,6,-1
 50 1312 l 1,0,-1
EndSplineSet
EndChar

StartChar: paragraph
Encoding: 182 182 105
Width: 1364
Flags: HW
LayerCount: 2
Fore
SplineSet
109.971 1101.32 m 0,0,1
 109.971 1571 109.971 1571 715 1571 c 0,2,3
 811.143 1571 811.143 1571 886.571 1565 c 0,4,5
 1032.77 1553.37 1032.77 1553.37 1115 1552 c 1,6,-1
 1393 1552 l 1,7,-1
 1382 1449 l 1,8,-1
 1215 1416 l 1,9,10
 1197 1261 1197 1261 1176 1096.5 c 2,11,-1
 1090 436 l 2,12,13
 1069 272 1069 272 1051 116 c 1,14,-1
 1196 86 l 1,15,-1
 1187 0 l 1,16,-1
 801 0 l 1,17,-1
 976 1414 l 1,18,-1
 782 1414 l 1,19,-1
 605 0 l 1,20,-1
 196 0 l 1,21,-1
 204 87 l 1,22,-1
 389 117 l 1,23,-1
 469 726 l 1,24,25
 311.893 728.014 311.893 728.014 212.5 829.5 c 0,26,27
 109.971 934.187 109.971 934.187 109.971 1101.32 c 0,0,1
EndSplineSet
EndChar

StartChar: cedilla
Encoding: 184 184 107
Width: 479
Flags: HW
LayerCount: 2
Fore
SplineSet
251 -224 m 128,-1,1
 266 -189 266 -189 269.25 -148 c 128,-1,2
 272.5 -107 272.5 -107 272.5 -68.5 c 128,-1,3
 272.5 -30 272.5 -30 260 30 c 1,4,-1
 327 34 l 1,5,-1
 395 30 l 1,6,7
 436 -31.5 436 -31.5 436 -177.375 c 0,8,9
 436 -343.095 436 -343.095 362.5 -408.547 c 128,-1,10
 289 -474 289 -474 152 -474 c 0,11,12
 80 -474 80 -474 36 -463 c 128,-1,13
 -8 -452 -8 -452 -16 -446 c 1,14,-1
 19 -304 l 1,15,16
 46.8571 -319 46.8571 -319 87.4286 -319 c 128,-1,17
 128 -319 128 -319 158.5 -310 c 128,-1,18
 189 -301 189 -301 212.5 -280 c 128,-1,0
 236 -259 236 -259 251 -224 c 128,-1,1
EndSplineSet
EndChar

StartChar: questiondown
Encoding: 191 191 109
Width: 1021
Flags: HW
LayerCount: 2
Fore
SplineSet
674 1131.5 m 128,-1,1
 640 1119 640 1119 594.5 1119 c 128,-1,2
 549 1119 549 1119 515 1155.5 c 128,-1,3
 481 1192 481 1192 481 1241.5 c 128,-1,4
 481 1291 481 1291 498.5 1325.5 c 128,-1,5
 516 1360 516 1360 543 1384.5 c 0,6,7
 598.653 1435 598.653 1435 669 1435 c 0,8,9
 761.061 1435 761.061 1435 791 1353.5 c 0,10,11
 800 1329 800 1329 800 1294.5 c 128,-1,12
 800 1260 800 1260 782 1226 c 128,-1,13
 764 1192 764 1192 736 1168 c 128,-1,0
 708 1144 708 1144 674 1131.5 c 128,-1,1
73 12.5 m 0,14,15
 73 98 73 98 97.5 167 c 128,-1,16
 122 236 122 236 162 287.5 c 128,-1,17
 202 339 202 339 253.5 377.5 c 128,-1,18
 305 416 305 416 358.5 449 c 2,19,-1
 463.5 513.5 l 2,20,21
 646.608 625.498 646.608 625.498 649 781 c 0,22,23
 649 813 649 813 639 844 c 128,-1,24
 629 875 629 875 626 893 c 1,25,-1
 784 946 l 1,26,-1
 799 945 l 1,27,28
 864 870 864 870 864 734 c 0,29,30
 864 587.73 864 587.73 665.5 460 c 1,31,-1
 547 387 l 1,32,33
 362.32 287.056 362.32 287.056 314 209 c 1,34,35
 293.86 156.132 293.86 156.132 293.86 96.9781 c 128,-1,36
 293.86 37.8246 293.86 37.8246 319.43 -19.5877 c 128,-1,37
 345 -77 345 -77 393 -120 c 0,38,39
 495.698 -212 495.698 -212 653 -212 c 0,40,41
 752.81 -212 752.81 -212 847 -166 c 1,42,-1
 805 -346 l 1,43,44
 766.525 -384.475 766.525 -384.475 642 -403.5 c 0,45,46
 606 -409 606 -409 575 -409 c 0,47,48
 312.612 -409 312.612 -409 182.5 -280 c 0,49,50
 73 -171.436 73 -171.436 73 12.5 c 0,14,15
EndSplineSet
EndChar

StartChar: germandbls
Encoding: 223 223 110
Width: 1194
Flags: HW
LayerCount: 2
Fore
SplineSet
155 927 m 1,0,1
 222.695 1434.71 222.695 1434.71 533 1548 c 0,2,3
 634.348 1585 634.348 1585 744.174 1585 c 128,-1,4
 854 1585 854 1585 920 1566 c 128,-1,5
 986 1547 986 1547 1035.5 1509.5 c 0,6,7
 1143 1428.06 1143 1428.06 1143 1288 c 256,8,9
 1143 1115.23 1143 1115.23 1001.5 1012.5 c 0,10,11
 911.015 946.805 911.015 946.805 885.508 913.403 c 128,-1,12
 860 880 860 880 860 851.5 c 128,-1,13
 860 823 860 823 867 804 c 128,-1,14
 874 785 874 785 888 762 c 128,-1,15
 902 739 902 739 923 710.5 c 2,16,-1
 1021 581 l 2,17,18
 1120 451.538 1120 451.538 1120 325 c 0,19,20
 1120 171.966 1120 171.966 994.5 76.5 c 0,21,22
 872.899 -16 872.899 -16 689 -16 c 0,23,24
 530.765 -16 530.765 -16 434 31 c 1,25,-1
 460 218 l 1,26,27
 509.123 156.596 509.123 156.596 605.5 126 c 0,28,29
 637 116 637 116 669.5 116 c 128,-1,30
 702 116 702 116 734.5 120.5 c 128,-1,31
 767 125 767 125 792 141.5 c 0,32,33
 847 177.8 847 177.8 847 282 c 0,34,35
 847 379 847 379 757 523 c 1,36,37
 680.421 617.812 680.421 617.812 646.5 724 c 0,38,39
 635 760 635 760 635 794.5 c 128,-1,40
 635 829 635 829 643 856.5 c 128,-1,41
 651 884 651 884 665 907.5 c 128,-1,42
 679 931 679 931 698.5 953 c 2,43,-1
 741 999 l 1,44,45
 877 1137.23 877 1137.23 877 1287 c 0,46,47
 877 1408.48 877 1408.48 791 1450 c 0,48,49
 762 1464 762 1464 714.5 1464 c 128,-1,50
 667 1464 667 1464 618.5 1432 c 128,-1,51
 570 1400 570 1400 530.5 1329 c 0,52,53
 448.718 1182 448.718 1182 412 867 c 1,54,-1
 304 0 l 1,55,-1
 40 0 l 1,56,-1
 155 927 l 1,0,1
EndSplineSet
EndChar

StartChar: oslash
Encoding: 248 248 111
Width: 1170
Flags: HW
LayerCount: 2
Fore
SplineSet
962 1061 m 1,0,1
 1091.21 934.946 1091.21 934.946 1091.21 685.755 c 0,2,3
 1091.21 402.988 1091.21 402.988 933 201.5 c 0,4,5
 825.037 64.0003 825.037 64.0003 665.5 9.5 c 0,6,7
 585 -18 585 -18 472 -18 c 128,-1,8
 359 -18 359 -18 268 36 c 1,9,-1
 150 -132 l 1,10,-1
 61 -83 l 1,11,-1
 189 99 l 1,12,13
 73.7978 225.828 73.7978 225.828 73.7978 460.094 c 0,14,15
 73.7978 741.321 73.7978 741.321 232.5 944.5 c 0,16,17
 311 1045 311 1045 422 1105 c 128,-1,18
 533 1165 533 1165 661 1165 c 128,-1,19
 789 1165 789 1165 879 1120 c 1,20,-1
 1008 1303 l 1,21,-1
 1097 1254 l 1,22,-1
 962 1061 l 1,0,1
756 962 m 1,23,24
 714 1035 714 1035 635 1035 c 0,25,26
 539.517 1035 539.517 1035 470.5 937.5 c 0,27,28
 380.881 810.896 380.881 810.896 360 572.5 c 0,29,30
 355.5 521.125 355.5 521.125 355.5 488.562 c 0,31,32
 355.5 397.8 355.5 397.8 362 338 c 1,33,-1
 756 962 l 1,23,24
395 203 m 1,34,35
 438 107 438 107 534 107 c 0,36,37
 629.489 107 629.489 107 697 205 c 0,38,39
 807.167 364.919 807.167 364.919 807.167 685.208 c 0,40,41
 807.167 778.033 807.167 778.033 797 837 c 1,42,-1
 395 203 l 1,34,35
EndSplineSet
EndChar

StartChar: endash
Encoding: 8211 8211 112
Width: 1543
Flags: HW
LayerCount: 2
Fore
SplineSet
275 861 m 1,0,-1
 1372 861 l 1,1,-1
 1337 684 l 1,2,-1
 240 684 l 1,3,-1
 275 861 l 1,0,-1
EndSplineSet
EndChar

StartChar: emdash
Encoding: 8212 8212 113
Width: 2034
Flags: HW
LayerCount: 2
Fore
SplineSet
272 861 m 1,0,-1
 1863 861 l 1,1,-1
 1830 684 l 1,2,-1
 240 684 l 1,3,-1
 272 861 l 1,0,-1
EndSplineSet
EndChar

StartChar: quoteleft
Encoding: 8216 8216 114
Width: 692
Flags: HW
LayerCount: 2
Fore
SplineSet
385 927 m 1,0,1
 291.054 951.426 291.054 951.426 242 1039.5 c 0,2,3
 200 1114.91 200 1114.91 200 1218.45 c 128,-1,4
 200 1322 200 1322 236.5 1404.5 c 128,-1,5
 273 1487 273 1487 330.5 1551 c 0,6,7
 435.56 1667.94 435.56 1667.94 596 1734 c 1,8,-1
 649 1646 l 1,9,-1
 647 1624 l 1,10,11
 565.571 1596.86 565.571 1596.86 504.5 1501.5 c 0,12,13
 441 1402.35 441 1402.35 441 1300 c 0,14,15
 441 1198.55 441 1198.55 503 1154.5 c 0,16,17
 522 1141 522 1141 546 1138 c 1,18,-1
 541 1097 l 1,19,-1
 385 927 l 1,0,1
EndSplineSet
EndChar

StartChar: dagger
Encoding: 8224 8224 120
Width: 816
Flags: HW
LayerCount: 2
Fore
SplineSet
437 1325.5 m 2,0,-1
 438 1431.5 l 2,1,2
 438 1457 438 1457 439 1469 c 2,3,-1
 460 1646 l 1,4,-1
 680 1646 l 1,5,-1
 650 1469 l 1,6,-1
 591 1288 l 1,7,-1
 873 1288 l 1,8,-1
 849 1117 l 1,9,-1
 589 1117 l 1,10,-1
 584 1008 l 1,11,-1
 413 151 l 1,12,-1
 266 151 l 1,13,-1
 365 1008 l 1,14,-1
 390 1117 l 1,15,-1
 120 1117 l 1,16,-1
 145 1288 l 1,17,-1
 436 1288 l 1,18,19
 437 1300 437 1300 437 1325.5 c 2,0,-1
EndSplineSet
EndChar

StartChar: bullet
Encoding: 8226 8226 121
Width: 858
Flags: HW
LayerCount: 2
Fore
SplineSet
517.5 507 m 128,-1,1
 466 481 466 481 412.5 481 c 128,-1,2
 359 481 359 481 322 497 c 128,-1,3
 285 513 285 513 257.5 541 c 0,4,5
 198 601.582 198 601.582 198 667.791 c 128,-1,6
 198 734 198 734 218.5 784.5 c 128,-1,7
 239 835 239 835 275.5 875.5 c 0,8,9
 357.062 966 357.062 966 475 966 c 0,10,11
 558.83 966 558.83 966 618.5 908.5 c 128,-1,12
 678 851.164 678 851.164 678 784.082 c 128,-1,13
 678 717 678 717 659 666 c 128,-1,14
 640 615 640 615 604.5 574 c 128,-1,0
 569 533 569 533 517.5 507 c 128,-1,1
EndSplineSet
EndChar

StartChar: mu
Encoding: 181 181 124
Width: 1364
Flags: HW
LayerCount: 2
Fore
SplineSet
366 34 m 1,0,-1
 306 -372 l 1,1,-1
 81 -372 l 1,2,-1
 189 358 l 1,3,4
 198 429 198 429 209.5 498 c 2,5,-1
 232 637.5 l 2,6,7
 259.025 810.704 259.025 810.704 270 933 c 1,8,9
 271.811 1000 271.811 1000 238 1000 c 0,10,11
 212.571 1000 212.571 1000 167 971 c 1,12,-1
 137 1037 l 1,13,14
 242 1157 242 1157 395.583 1157 c 128,-1,15
 549.167 1157 549.167 1157 542 1028 c 0,16,17
 531.865 865.846 531.865 865.846 503.933 709.423 c 128,-1,18
 476 553 476 553 470 510.5 c 0,19,20
 457 418.417 457 418.417 457 348.208 c 128,-1,21
 457 278 457 278 467 241.5 c 128,-1,22
 477 205 477 205 494.5 183 c 0,23,24
 525.523 144 525.523 144 574.261 144 c 128,-1,25
 623 144 623 144 655.5 157.5 c 128,-1,26
 688 171 688 171 716 191.5 c 128,-1,27
 744 212 744 212 767.5 236.5 c 2,28,-1
 811 283 l 1,29,-1
 926 1148 l 1,30,-1
 1186 1148 l 1,31,-1
 1061 208 l 2,32,33
 1059.04 193.098 1059.04 193.098 1059.04 181.118 c 0,34,35
 1059.04 132 1059.04 132 1092 132 c 0,36,37
 1118.14 132 1118.14 132 1171 169 c 1,38,-1
 1201 106 l 1,39,40
 1157.76 35.7314 1157.76 35.7314 1044 -4.5 c 0,41,42
 1003 -19 1003 -19 957 -19 c 0,43,44
 825.148 -19 825.148 -19 825.148 88.9465 c 0,45,46
 825.148 102.444 825.148 102.444 827 118 c 1,47,48
 766 57 766 57 724 32.5 c 0,49,50
 634 -20 634 -20 527 -20 c 128,-1,51
 420 -20 420 -20 366 34 c 1,0,-1
EndSplineSet
EndChar

StartChar: logicalnot
Encoding: 172 172 125
Width: 1370
Flags: HW
LayerCount: 2
Fore
SplineSet
228 863 m 1,0,-1
 1198 863 l 1,1,-1
 1136 322 l 1,2,-1
 939 322 l 1,3,-1
 984 711 l 1,4,-1
 211 711 l 1,5,-1
 228 863 l 1,0,-1
EndSplineSet
EndChar

StartChar: yen
Encoding: 165 165 126
Width: 1483
Flags: HW
LayerCount: 2
Fore
SplineSet
340 97 m 1,0,-1
 588 127 l 1,1,-1
 618 376 l 1,2,-1
 234 376 l 1,3,-1
 250 515 l 1,4,-1
 634 515 l 1,5,-1
 659 716 l 1,6,-1
 273 716 l 1,7,-1
 289 857 l 1,8,-1
 595 857 l 1,9,-1
 298 1414 l 1,10,-1
 182 1436 l 1,11,-1
 195 1542 l 1,12,-1
 785 1542 l 1,13,-1
 772 1436 l 1,14,-1
 594 1415 l 1,15,-1
 778 1010 l 1,16,-1
 826 884 l 1,17,-1
 906 1014 l 1,18,-1
 1168 1419 l 1,19,-1
 1039 1436 l 1,20,-1
 1052 1542 l 1,21,-1
 1563 1542 l 1,22,-1
 1550 1437 l 1,23,-1
 1417 1409 l 1,24,-1
 997 857 l 1,25,-1
 1285 857 l 1,26,-1
 1269 716 l 1,27,-1
 897 716 l 1,28,-1
 872 515 l 1,29,-1
 1245 515 l 1,30,-1
 1229 376 l 1,31,-1
 855 376 l 1,32,-1
 825 127 l 1,33,-1
 1081 97 l 1,34,-1
 1072 0 l 1,35,-1
 330 0 l 1,36,-1
 340 97 l 1,0,-1
EndSplineSet
EndChar

StartChar: divide
Encoding: 247 247 127
Width: 1370
Flags: HW
LayerCount: 2
Fore
SplineSet
811 1042.5 m 128,-1,1
 778 1031 778 1031 748.5 1031 c 128,-1,2
 719 1031 719 1031 694.5 1041.5 c 128,-1,3
 670 1052 670 1052 652 1070.5 c 0,4,5
 612.095 1111.51 612.095 1111.51 615.047 1162.26 c 128,-1,6
 618 1213 618 1213 635 1245 c 128,-1,7
 652 1277 652 1277 678 1299.5 c 0,8,9
 732.889 1347 732.889 1347 783.944 1347 c 128,-1,10
 835 1347 835 1347 861 1335 c 128,-1,11
 887 1323 887 1323 904 1303.5 c 0,12,13
 936.233 1266.53 936.233 1266.53 934.117 1214.26 c 128,-1,14
 932 1162 932 1162 914.5 1130 c 128,-1,15
 897 1098 897 1098 870.5 1076 c 128,-1,0
 844 1054 844 1054 811 1042.5 c 128,-1,1
277 862 m 1,16,-1
 1181 862 l 1,17,-1
 1163 685 l 1,18,-1
 259 685 l 1,19,-1
 277 862 l 1,16,-1
547 240.5 m 0,20,21
 529 259 529 259 520.326 283.196 c 128,-1,22
 511.652 307.391 511.652 307.391 511.652 342.986 c 128,-1,23
 511.652 378.581 511.652 378.581 529.826 412.79 c 128,-1,24
 548 447 548 447 574 469.5 c 0,25,26
 628.889 517 628.889 517 679.944 517 c 128,-1,27
 731 517 731 517 757 505 c 0,28,29
 829.125 471.712 829.125 471.712 829.125 380.969 c 0,30,31
 829.125 298.821 829.125 298.821 765.5 246 c 0,32,33
 711.295 201 711.295 201 641 201 c 0,34,35
 585.432 201 585.432 201 547 240.5 c 0,20,21
EndSplineSet
EndChar

StartChar: Ccedilla
Encoding: 199 199 128
Width: 1287
Flags: HW
LayerCount: 2
Fore
SplineSet
364 -302 m 1,0,1
 391.857 -317 391.857 -317 432.429 -317 c 128,-1,2
 473 -317 473 -317 503.5 -308 c 128,-1,3
 534 -299 534 -299 557.5 -278 c 0,4,5
 616.6 -225.187 616.6 -225.187 616.6 -81.72 c 0,6,7
 616.6 -44.4 616.6 -44.4 613 -15 c 1,8,9
 342.176 -7.529 342.176 -7.529 201 191 c 0,10,11
 76.9365 365.464 76.9365 365.464 76.9365 645.293 c 0,12,13
 76.9365 1049.92 76.9365 1049.92 306 1300 c 0,14,15
 415 1419 415 1419 564.5 1483.5 c 128,-1,16
 714 1548 714 1548 889 1548 c 0,17,18
 1072.88 1548 1072.88 1548 1189.5 1515.5 c 0,19,20
 1220 1507 1220 1507 1246 1501 c 1,21,-1
 1282 1491 l 1,22,-1
 1217 1107 l 1,23,-1
 1032 1107 l 1,24,-1
 1001 1392 l 1,25,26
 934.714 1424 934.714 1424 847.857 1424 c 128,-1,27
 761 1424 761 1424 691.5 1389 c 128,-1,28
 622 1354 622 1354 569 1294.5 c 128,-1,29
 516 1235 516 1235 478.5 1157 c 0,30,31
 376.667 945.187 376.667 945.187 376.667 679.583 c 0,32,33
 376.667 283.826 376.667 283.826 547.5 163.5 c 0,34,35
 605 123 605 123 686 123 c 0,36,37
 896.566 123 896.566 123 945.5 246.5 c 0,38,39
 979.561 332.463 979.561 332.463 1002 411 c 1,40,-1
 1163 411 l 1,41,-1
 1122 103 l 1,42,43
 957.131 9.8131 957.131 9.8131 759 -10 c 1,44,45
 780.533 -79.9833 780.533 -79.9833 780.533 -138.192 c 128,-1,46
 780.533 -196.4 780.533 -196.4 780 -210 c 0,47,48
 771 -350 771 -350 702.5 -411 c 128,-1,49
 634 -472 634 -472 497 -472 c 0,50,51
 425 -472 425 -472 381 -461 c 128,-1,52
 337 -450 337 -450 329 -444 c 1,53,-1
 364 -302 l 1,0,1
EndSplineSet
EndChar

StartChar: AE
Encoding: 198 198 129
Width: 1947
Flags: HW
LayerCount: 2
Fore
SplineSet
740 1401 m 1,0,-1
 426 1425 l 1,1,-1
 441 1530 l 1,2,-1
 1882 1530 l 1,3,-1
 1860 1201 l 1,4,-1
 1701 1201 l 1,5,-1
 1660 1396 l 1,6,-1
 1286 1416 l 1,7,-1
 1217 868 l 1,8,-1
 1636 883 l 1,9,-1
 1619 696 l 1,10,-1
 1201 717 l 1,11,-1
 1125 126 l 1,12,-1
 1621 156 l 1,13,-1
 1728 397 l 1,14,-1
 1886 374 l 1,15,-1
 1818 0 l 1,16,-1
 684 0 l 1,17,-1
 696 96 l 1,18,-1
 851 126 l 1,19,-1
 890 446 l 1,20,-1
 417 446 l 1,21,-1
 247 126 l 1,22,-1
 436 96 l 1,23,-1
 429 0 l 1,24,-1
 -163 0 l 1,25,-1
 -152 96 l 1,26,-1
 4 126 l 1,27,-1
 740 1401 l 1,0,-1
906 582 m 1,28,-1
 1005 1397 l 1,29,-1
 923 1399 l 1,30,-1
 489 582 l 1,31,-1
 906 582 l 1,28,-1
EndSplineSet
EndChar

StartChar: cent
Encoding: 162 162 130
Width: 1056
Flags: HW
LayerCount: 2
Fore
SplineSet
247 875 m 0,0,1
 330.912 1012.12 330.912 1012.12 465 1091 c 0,2,3
 533 1131 533 1131 615 1149 c 1,4,-1
 664 1358 l 1,5,-1
 814 1358 l 1,6,-1
 767 1162 l 1,7,8
 899.836 1157.17 899.836 1157.17 982 1120 c 1,9,-1
 910 867 l 1,10,11
 889 880 889 880 861 904.5 c 128,-1,12
 833 929 833 929 803 952.5 c 0,13,14
 728.319 1011 728.319 1011 680.66 1011 c 128,-1,15
 633 1011 633 1011 581.5 971.5 c 0,16,17
 473.549 888.703 473.549 888.703 424.5 685.5 c 0,18,19
 401.849 591.66 401.849 591.66 401.849 530.509 c 128,-1,20
 401.849 469.359 401.849 469.359 402.425 422.679 c 128,-1,21
 403 376 403 376 416 316 c 128,-1,22
 429 256 429 256 453 218 c 0,23,24
 499.737 144 499.737 144 592 144 c 0,25,26
 705.133 144 705.133 144 796 214.5 c 0,27,28
 825 237 825 237 856 265 c 1,29,-1
 907 173 l 1,30,31
 831.445 68.0618 831.445 68.0618 677.5 10.5 c 0,32,33
 620 -11 620 -11 551 -17 c 1,34,-1
 515 -215 l 1,35,-1
 365 -215 l 1,36,-1
 403 -9 l 1,37,38
 272 22 272 22 199.464 136.344 c 128,-1,39
 126.929 250.689 126.929 250.689 126.929 464.737 c 128,-1,40
 126.929 678.786 126.929 678.786 247 875 c 0,0,1
EndSplineSet
EndChar

StartChar: ae
Encoding: 230 230 131
Width: 1711
Flags: HW
LayerCount: 2
Fore
SplineSet
1146 -20 m 0,0,1
 845.78 -20 845.78 -20 770 243 c 1,2,3
 666.186 69.976 666.186 69.976 504.5 4.5 c 0,4,5
 444 -20 444 -20 373 -20 c 0,6,7
 72 -20 72 -20 72 392 c 0,8,9
 72 674.933 72 674.933 256 908 c 0,10,11
 379.973 1065.03 379.973 1065.03 567 1130 c 0,12,13
 662 1163 662 1163 765.75 1163 c 128,-1,14
 869.5 1163 869.5 1163 982 1128 c 1,15,-1
 1083 1163 l 1,16,-1
 1069 1078 l 1,17,18
 1201.68 1163 1201.68 1163 1357 1163 c 0,19,20
 1582.13 1163 1582.13 1163 1642 1010 c 0,21,22
 1661.03 961.365 1661.03 961.365 1661.03 895.182 c 128,-1,23
 1661.03 829 1661.03 829 1630.52 766 c 128,-1,24
 1600 703 1600 703 1547.5 653 c 128,-1,25
 1495 603 1495 603 1427.5 567 c 128,-1,26
 1360 531 1360 531 1289.5 507 c 0,27,28
 1152.31 460.297 1152.31 460.297 1026 458 c 1,29,30
 1025.62 444.476 1025.62 444.476 1025.62 431.406 c 0,31,32
 1025.62 139 1025.62 139 1212 139 c 0,33,34
 1390 139 1390 139 1541 290 c 1,35,-1
 1596 197 l 1,36,37
 1542.29 117.715 1542.29 117.715 1436.5 57 c 0,38,39
 1302.33 -20 1302.33 -20 1146 -20 c 0,0,1
1398.05 885.617 m 0,40,41
 1398.05 1036 1398.05 1036 1296 1036 c 0,42,43
 1143.04 1036 1143.04 1036 1066 771.5 c 0,44,45
 1038.44 676.894 1038.44 676.894 1029 573 c 1,46,47
 1149.09 580.064 1149.09 580.064 1266 659.5 c 0,48,49
 1346.9 714.47 1346.9 714.47 1381.5 798.5 c 0,50,51
 1398.05 838.703 1398.05 838.703 1398.05 885.617 c 0,40,41
345 409 m 0,52,53
 345 151 345 151 457 151 c 0,54,55
 540 151 540 151 627.5 235 c 0,56,57
 693.029 297.907 693.029 297.907 747 393 c 1,58,-1
 747 422 l 1,59,-1
 729 402 l 1,60,-1
 826 1024 l 1,61,62
 798.8 1032 798.8 1032 741.4 1032 c 128,-1,63
 684 1032 684 1032 626.5 1003.5 c 128,-1,64
 569 975 569 975 523.5 927 c 128,-1,65
 478 879 478 879 444.5 816 c 128,-1,66
 411 753 411 753 389 684 c 0,67,68
 345 546 345 546 345 409 c 0,52,53
EndSplineSet
EndChar

StartChar: circumflex
Encoding: 710 710 132
Width: 795
Flags: HW
LayerCount: 2
Fore
SplineSet
50 1286 m 1,0,-1
 397 1660 l 1,1,-1
 575 1660 l 1,2,-1
 775 1286 l 1,3,-1
 676 1228 l 1,4,-1
 460 1462 l 1,5,-1
 132 1229 l 1,6,-1
 50 1286 l 1,0,-1
EndSplineSet
EndChar

StartChar: caron
Encoding: 711 711 133
Width: 794
Flags: HW
LayerCount: 2
Fore
SplineSet
60 1602 m 1,0,-1
 156 1660 l 1,1,-1
 380 1433 l 1,2,3
 392 1443 392 1443 417 1461 c 2,4,-1
 663.5 1632.5 l 2,5,6
 688 1650 688 1650 700 1660 c 1,7,-1
 785 1603 l 1,8,-1
 453 1247 l 1,9,-1
 277 1247 l 1,10,-1
 60 1602 l 1,0,-1
EndSplineSet
EndChar

StartChar: breve
Encoding: 728 728 134
Width: 717
Flags: HW
LayerCount: 2
Fore
SplineSet
496 1330 m 128,-1,1
 435 1300 435 1300 355.5 1300 c 128,-1,2
 276 1300 276 1300 219.5 1328.5 c 128,-1,3
 163 1357 163 1357 126 1403 c 0,4,5
 55 1491.27 55 1491.27 55 1623 c 0,6,7
 55 1645 55 1645 58 1666 c 1,8,-1
 203 1666 l 1,9,-1
 203 1648.5 l 2,10,11
 203 1535.63 203 1535.63 286.5 1496 c 0,12,13
 316 1482 316 1482 366 1482 c 128,-1,14
 416 1482 416 1482 451 1501 c 128,-1,15
 486 1520 486 1520 507 1548 c 0,16,17
 538.345 1589.79 538.345 1589.79 553 1666 c 1,18,-1
 695 1666 l 1,19,-1
 695 1649.5 l 2,20,21
 695 1586.4 695 1586.4 668.5 1520.7 c 128,-1,22
 642 1455 642 1455 599.5 1407.5 c 128,-1,0
 557 1360 557 1360 496 1330 c 128,-1,1
EndSplineSet
EndChar

StartChar: ring
Encoding: 730 730 135
Width: 722
Flags: HW
LayerCount: 2
Fore
SplineSet
494.5 1270.5 m 128,-1,1
 432 1253 432 1253 363 1253 c 128,-1,2
 294 1253 294 1253 238 1271 c 0,3,4
 74.2727 1323.63 74.2727 1323.63 74.2727 1490.58 c 0,5,6
 74.2727 1649.96 74.2727 1649.96 204.5 1731.5 c 0,7,8
 305.91 1795 305.91 1795 441 1795 c 0,9,10
 653.548 1795 653.548 1795 713 1649.5 c 0,11,12
 729.409 1609.34 729.409 1609.34 729.409 1580.69 c 0,13,14
 729.409 1476.28 729.409 1476.28 694.205 1418.14 c 128,-1,15
 659 1360 659 1360 608 1324 c 128,-1,0
 557 1288 557 1288 494.5 1270.5 c 128,-1,1
329 1380.5 m 128,-1,17
 356 1368 356 1368 388 1368 c 128,-1,18
 420 1368 420 1368 451 1375 c 128,-1,19
 482 1382 482 1382 506 1400 c 0,20,21
 563.32 1442.99 563.32 1442.99 563.32 1537.73 c 0,22,23
 563.32 1596.15 563.32 1596.15 534.66 1627.08 c 0,24,25
 484.683 1681 484.683 1681 421 1681 c 0,26,27
 303.803 1681 303.803 1681 260 1597.5 c 0,28,29
 241.692 1562.6 241.692 1562.6 241.692 1524.65 c 128,-1,30
 241.692 1486.69 241.692 1486.69 251.846 1460.85 c 128,-1,31
 262 1435 262 1435 282 1414 c 128,-1,16
 302 1393 302 1393 329 1380.5 c 128,-1,17
EndSplineSet
EndChar

StartChar: tilde
Encoding: 732 732 136
Width: 816
Flags: HW
LayerCount: 2
Fore
SplineSet
244 1478 m 1,0,1
 177.267 1478 177.267 1478 97 1392 c 1,2,-1
 35 1496 l 1,3,4
 89.4561 1604.91 89.4561 1604.91 210.5 1650.5 c 0,5,6
 249 1665 249 1665 286 1665 c 128,-1,7
 323 1665 323 1665 350.5 1654.5 c 128,-1,8
 378 1644 378 1644 399.5 1627.5 c 128,-1,9
 421 1611 421 1611 439.5 1592.5 c 2,10,-1
 475.5 1557.5 l 2,11,12
 515.273 1520 515.273 1520 549.136 1520 c 128,-1,13
 583 1520 583 1520 605 1529.5 c 128,-1,14
 627 1539 627 1539 645 1554.5 c 128,-1,15
 663 1570 663 1570 678.5 1588.5 c 2,16,-1
 708 1625 l 1,17,-1
 781 1514 l 1,18,19
 753.642 1440.35 753.642 1440.35 683.5 1388 c 0,20,21
 609.8 1333 609.8 1333 530 1333 c 0,22,23
 432.703 1333 432.703 1333 367 1404.5 c 0,24,25
 324.722 1450.51 324.722 1450.51 298.861 1463.75 c 128,-1,26
 273 1477 273 1477 244 1478 c 1,0,1
EndSplineSet
EndChar

StartChar: hungarumlaut
Encoding: 733 733 137
Width: 917
Flags: HW
LayerCount: 2
Fore
SplineSet
456 1296 m 1,0,-1
 712 1727 l 1,1,-1
 867 1611 l 1,2,3
 845.189 1529.99 845.189 1529.99 733 1402.5 c 0,4,5
 618.242 1272.09 618.242 1272.09 540 1242 c 1,6,-1
 456 1296 l 1,0,-1
2 1296 m 1,7,-1
 251 1727 l 1,8,-1
 409 1610 l 1,9,10
 375.047 1491.16 375.047 1491.16 209.5 1335.5 c 0,11,12
 136.365 1266.73 136.365 1266.73 85 1242 c 1,13,-1
 2 1296 l 1,7,-1
EndSplineSet
EndChar

StartChar: ogonek
Encoding: 731 731 138
Width: 566
Flags: HW
LayerCount: 2
Fore
SplineSet
483 -315 m 1,0,1
 358.826 -434 358.826 -434 199 -434 c 0,2,3
 78.1509 -434 78.1509 -434 44 -343.5 c 0,4,5
 34 -317 34 -317 34.5 -288.5 c 0,6,7
 36.1981 -191.71 36.1981 -191.71 136.5 -93 c 0,8,9
 194.281 -36.1363 194.281 -36.1363 243.64 -9.06816 c 2,10,-1
 322 35 l 1,11,-1
 379 59 l 1,12,-1
 450 23 l 1,13,14
 266 -122.263 266 -122.263 265.105 -201.132 c 128,-1,15
 264.209 -280.001 264.209 -280.001 318.605 -280 c 128,-1,16
 373 -280 373 -280 453 -216 c 1,17,-1
 483 -315 l 1,0,1
EndSplineSet
EndChar

StartChar: fraction
Encoding: 8260 8260 139
Width: 1026
Flags: HW
LayerCount: 2
Fore
SplineSet
777 1530 m 1,0,-1
 966 1530 l 1,1,-1
 285 0 l 1,2,-1
 96 0 l 1,3,-1
 777 1530 l 1,0,-1
EndSplineSet
EndChar

StartChar: dollar
Encoding: 36 36 140
Width: 1205
Flags: HW
LayerCount: 2
Fore
SplineSet
854 1545 m 1,0,1
 1035.76 1527.35 1035.76 1527.35 1127 1470 c 1,2,-1
 1076 1197 l 1,3,-1
 923 1197 l 1,4,-1
 892 1377 l 1,5,6
 813.185 1433 813.185 1433 697 1433 c 0,7,8
 540 1433 540 1433 480 1311.5 c 0,9,10
 457.814 1266.57 457.814 1266.57 457.814 1210.1 c 128,-1,11
 457.814 1153.63 457.814 1153.63 476.407 1108.81 c 128,-1,12
 495 1064 495 1064 532 1023 c 0,13,14
 591.087 957.525 591.087 957.525 695.544 893.762 c 128,-1,15
 800 830 800 830 859 787.5 c 128,-1,16
 918 745 918 745 964 693.5 c 0,17,18
 1066 579.304 1066 579.304 1066 437 c 0,19,20
 1066 251.415 1066 251.415 939.5 128 c 0,21,22
 808.958 0.642314 808.958 0.642314 587 -19 c 1,23,-1
 553 -230 l 1,24,-1
 373 -230 l 1,25,-1
 407 -19 l 1,26,27
 234.778 -5.11111 234.778 -5.11111 109.5 45 c 0,28,29
 77 58 77 58 63 70 c 1,30,-1
 117 368 l 1,31,-1
 282 368 l 1,32,-1
 297 171 l 1,33,34
 400.469 94 400.469 94 526 94 c 0,35,36
 717.557 94 717.557 94 784.5 231 c 0,37,38
 809.2 281.549 809.2 281.549 809.2 334.949 c 128,-1,39
 809.2 388.35 809.2 388.35 792.1 429.675 c 128,-1,40
 775 471 775 471 740.5 509.5 c 0,41,42
 691.175 564.544 691.175 564.544 586.088 631.272 c 128,-1,43
 481 698 481 698 420.5 743.5 c 128,-1,44
 360 789 360 789 313 843 c 0,45,46
 209 962.489 209 962.489 209 1110 c 0,47,48
 209 1297.95 209 1297.95 342.5 1416.5 c 0,49,50
 470.985 1530.59 470.985 1530.59 674 1547 c 1,51,-1
 703 1729 l 1,52,-1
 884 1729 l 1,53,-1
 854 1545 l 1,0,1
EndSplineSet
EndChar

StartChar: ordfeminine
Encoding: 170 170 141
Width: 854
Flags: HW
LayerCount: 2
Fore
SplineSet
561 869 m 1,0,1
 456.913 743 456.913 743 308 743 c 0,2,3
 193.481 743 193.481 743 130.5 822.5 c 0,4,5
 69 900.131 69 900.131 69 1040 c 0,6,7
 69 1238.24 69 1238.24 219.5 1403 c 0,8,9
 316.905 1509.63 316.905 1509.63 453.5 1554.5 c 0,10,11
 522 1577 522 1577 602.727 1577 c 128,-1,12
 683.455 1577 683.455 1577 770 1549 c 1,13,-1
 895 1586 l 1,14,-1
 776 906 l 1,15,16
 769.52 852 769.52 852 788 852 c 256,17,18
 808.615 852 808.615 852 844 872 c 1,19,-1
 872 825 l 1,20,21
 860.645 807.967 860.645 807.967 814.322 785.984 c 0,22,23
 723.75 743 723.75 743 667.375 743 c 128,-1,24
 611 743 611 743 584.948 774.351 c 128,-1,25
 558.896 805.701 558.896 805.701 558.896 830.922 c 128,-1,26
 558.896 856.143 558.896 856.143 561 869 c 1,0,1
562 944 m 1,27,-1
 648 1442 l 1,28,29
 612 1475 612 1475 556 1475 c 128,-1,30
 500 1475 500 1475 448.5 1436.5 c 128,-1,31
 397 1398 397 1398 365 1337.5 c 0,32,33
 303 1220.28 303 1220.28 303 1055 c 0,34,35
 303 965 303 965 327 918 c 128,-1,36
 351 871 351 871 417.393 871 c 128,-1,37
 483.786 871 483.786 871 562 944 c 1,27,-1
EndSplineSet
EndChar

StartChar: ordmasculine
Encoding: 186 186 142
Width: 854
Flags: HW
LayerCount: 2
Fore
SplineSet
739.5 861 m 128,-1,1
 673 797 673 797 588.776 764.985 c 128,-1,2
 504.552 732.97 504.552 732.97 422.563 732.97 c 128,-1,3
 340.575 732.97 340.575 732.97 276.787 758.485 c 128,-1,4
 213 784 213 784 168 830 c 0,5,6
 73 927.111 73 927.111 73 1066.56 c 128,-1,7
 73 1206 73 1206 116 1300.5 c 0,8,9
 200.993 1487.29 200.993 1487.29 379.5 1557 c 0,10,11
 461.515 1589.03 461.515 1589.03 542.116 1589.03 c 0,12,13
 707.569 1589.03 707.569 1589.03 800 1488 c 0,14,15
 888 1391.81 888 1391.81 888 1251.91 c 128,-1,16
 888 1112 888 1112 847 1018.5 c 128,-1,0
 806 925 806 925 739.5 861 c 128,-1,1
311.5 995 m 0,17,18
 341.589 842.971 341.589 842.971 428.037 842.971 c 0,19,20
 551.597 842.971 551.597 842.971 610.5 963 c 0,21,22
 657 1057.75 657 1057.75 657 1216 c 0,23,24
 657 1336.88 657 1336.88 631 1391.94 c 128,-1,25
 605 1447 605 1447 580 1466.5 c 128,-1,26
 555 1486 555 1486 518 1486 c 128,-1,27
 481 1486 481 1486 448 1468.5 c 128,-1,28
 415 1451 415 1451 390 1422 c 128,-1,29
 365 1393 365 1393 348.5 1354.5 c 128,-1,30
 332 1316 332 1316 321.5 1273.5 c 0,31,32
 302 1194.57 302 1194.57 302 1118.79 c 128,-1,33
 302 1043 302 1043 311.5 995 c 0,17,18
EndSplineSet
EndChar

StartChar: percent
Encoding: 37 37 143
Width: 1911
Flags: HW
LayerCount: 2
Fore
SplineSet
1328 1530 m 1,0,-1
 1517 1530 l 1,1,-1
 570 0 l 1,2,-1
 381 0 l 1,3,-1
 1328 1530 l 1,0,-1
648.5 778.5 m 128,-1,5
 570 740 570 740 486 740 c 128,-1,6
 402 740 402 740 347 764.5 c 128,-1,7
 292 789 292 789 255 831.5 c 0,8,9
 180 917.649 180 917.649 180 1055 c 0,10,11
 180 1221.54 180 1221.54 299.5 1349.5 c 0,12,13
 426.041 1485 426.041 1485 603 1485 c 0,14,15
 751.444 1485 751.444 1485 828.5 1399.5 c 0,16,17
 900 1320.16 900 1320.16 900 1185 c 0,18,19
 900 1011.62 900 1011.62 783 880 c 0,20,4
 727 817 727 817 648.5 778.5 c 128,-1,5
381 1057 m 256,21,22
 381 848 381 848 502 848 c 0,23,24
 592.703 848 592.703 848 645.5 966.5 c 0,25,26
 690 1066.38 690 1066.38 690 1177 c 0,27,28
 690 1378 690 1378 575 1378 c 0,29,30
 484.165 1378 484.165 1378 428 1264.5 c 0,31,32
 381 1169.52 381 1169.52 381 1057 c 256,21,22
1027 382.5 m 0,33,34
 1027 455 1027 455 1058.5 532.5 c 128,-1,35
 1090 610 1090 610 1146.5 670.5 c 0,36,37
 1273.04 806 1273.04 806 1450 806 c 0,38,39
 1598.44 806 1598.44 806 1675.5 720.5 c 0,40,41
 1747 641.164 1747 641.164 1747 506 c 0,42,43
 1747 332.625 1747 332.625 1630 201 c 0,44,45
 1505.56 61 1505.56 61 1320 61 c 0,46,47
 1181.66 61 1181.66 61 1102 152.5 c 0,48,49
 1027 238.649 1027 238.649 1027 382.5 c 0,33,34
1537 498 m 0,50,51
 1537 699 1537 699 1422 699 c 0,52,53
 1331.16 699 1331.16 699 1275 585.5 c 0,54,55
 1228 490.521 1228 490.521 1228 378 c 256,56,57
 1228 169 1228 169 1349 169 c 0,58,59
 1439.7 169 1439.7 169 1492.5 287.5 c 0,60,61
 1537 387.378 1537 387.378 1537 498 c 0,50,51
EndSplineSet
Ligature2: "'frac' Diagonal Fractions in Latin lookup 10 subtable" zero slash zero
EndChar

StartChar: Oslash
Encoding: 216 216 144
Width: 1443
Flags: HW
LayerCount: 2
Fore
SplineSet
639 -18 m 0,0,1
 445.766 -18 445.766 -18 313 78 c 1,2,-1
 173 -127 l 1,3,-1
 84 -78 l 1,4,-1
 237 147 l 1,5,6
 80.9574 325.628 80.9574 325.628 80.9574 641.541 c 0,7,8
 80.9574 1020.35 80.9574 1020.35 279.5 1278 c 0,9,10
 414.105 1452.68 414.105 1452.68 615.5 1518.5 c 0,11,12
 718 1552 718 1552 860.149 1552 c 128,-1,13
 1002.3 1552 1002.3 1552 1123 1475 c 1,14,-1
 1258 1670 l 1,15,-1
 1347 1621 l 1,16,-1
 1203 1411 l 1,17,18
 1386.05 1227.95 1386.05 1227.95 1386.05 888.924 c 0,19,20
 1386.05 512.368 1386.05 512.368 1197.5 258.5 c 0,21,22
 992.146 -18 992.146 -18 639 -18 c 0,0,1
1002 1317 m 1,23,24
 930.056 1428 930.056 1428 805 1428 c 0,25,26
 679.32 1428 679.32 1428 576.5 1322 c 0,27,28
 429.354 1170.3 429.354 1170.3 386.5 873.5 c 0,29,30
 373.931 786.448 373.931 786.448 373.931 737.603 c 128,-1,31
 373.931 688.759 373.931 688.759 374.466 641.379 c 0,32,33
 376.244 483.716 376.244 483.716 405 367 c 1,34,-1
 1002 1317 l 1,23,24
448 247 m 1,35,36
 521.075 103 521.075 103 668 103 c 0,37,38
 865.33 103 865.33 103 983.5 325.5 c 0,39,40
 1095.03 535.505 1095.03 535.505 1095.03 863.974 c 0,41,42
 1095.03 1070.55 1095.03 1070.55 1052 1207 c 1,43,-1
 448 247 l 1,35,36
EndSplineSet
EndChar

StartChar: ccedilla
Encoding: 231 231 150
Width: 924
Flags: HW
LayerCount: 2
Fore
SplineSet
161 -304 m 1,0,1
 188.857 -319 188.857 -319 229.429 -319 c 128,-1,2
 270 -319 270 -319 300.5 -310 c 128,-1,3
 331 -301 331 -301 354.5 -280 c 0,4,5
 413.6 -227.187 413.6 -227.187 413.6 -84.04 c 0,6,7
 413.6 -47.2 413.6 -47.2 410 -19 c 1,8,9
 252 -6 252 -6 164 111 c 0,10,11
 73.9444 230.733 73.9444 230.733 73.9444 449.012 c 0,12,13
 73.9444 710.7 73.9444 710.7 226.5 922.5 c 0,14,15
 334.053 1071.82 334.053 1071.82 501 1132 c 0,16,17
 587 1163 587 1163 653.5 1163 c 128,-1,18
 720 1163 720 1163 752 1160 c 128,-1,19
 784 1157 784 1157 815.5 1152 c 0,20,21
 878.343 1142.03 878.343 1142.03 929 1120 c 1,22,-1
 857 867 l 1,23,24
 836 880 836 880 808 904.5 c 128,-1,25
 780 929 780 929 750 952.5 c 0,26,27
 675.319 1011 675.319 1011 627.66 1011 c 128,-1,28
 580 1011 580 1011 528.5 971.5 c 0,29,30
 420.549 888.703 420.549 888.703 371.5 685.5 c 0,31,32
 348.849 591.66 348.849 591.66 348.849 530.509 c 128,-1,33
 348.849 469.359 348.849 469.359 349.425 422.679 c 128,-1,34
 350 376 350 376 363 316 c 128,-1,35
 376 256 376 256 400 218 c 0,36,37
 446.737 144 446.737 144 539 144 c 0,38,39
 652.133 144 652.133 144 743 214.5 c 0,40,41
 772 237 772 237 803 265 c 1,42,-1
 854 173 l 1,43,44
 786.472 80.1489 786.472 80.1489 660 23.5 c 0,45,46
 612 2 612 2 555 -9 c 1,47,48
 578 -78 578 -78 578 -136.333 c 128,-1,49
 578 -194.667 578 -194.667 577 -212 c 0,50,51
 568 -352 568 -352 499.5 -413 c 128,-1,52
 431 -474 431 -474 294 -474 c 0,53,54
 222 -474 222 -474 178 -463 c 128,-1,55
 134 -452 134 -452 126 -446 c 1,56,-1
 161 -304 l 1,0,1
EndSplineSet
EndChar

StartChar: oe
Encoding: 339 339 189
Width: 1761
Flags: HW
LayerCount: 2
Fore
SplineSet
870 132 m 1,0,1
 709.437 -20 709.437 -20 492 -20 c 0,2,3
 191.62 -20 191.62 -20 105 244.5 c 0,4,5
 73.6444 340.246 73.6444 340.246 73.6444 466.423 c 128,-1,6
 73.6444 592.6 73.6444 592.6 112.822 717.3 c 128,-1,7
 152 842 152 842 231 942.5 c 128,-1,8
 310 1043 310 1043 422 1103 c 128,-1,9
 534 1163 534 1163 673 1163 c 0,10,11
 908.012 1163 908.012 1163 1009 994 c 1,12,13
 1180.14 1163 1180.14 1163 1405 1163 c 128,-1,14
 1629.9 1163 1629.9 1163 1691.5 1011.5 c 0,15,16
 1711.03 963.465 1711.03 963.465 1711.03 897.24 c 128,-1,17
 1711.03 831.015 1711.03 831.015 1680.02 767.508 c 128,-1,18
 1649 704 1649 704 1596 654 c 128,-1,19
 1543 604 1543 604 1475 567.5 c 128,-1,20
 1407 531 1407 531 1335 507.5 c 0,21,22
 1190.09 460.202 1190.09 460.202 1069 458 c 1,23,24
 1068.33 444 1068.33 444 1068.33 413.111 c 128,-1,25
 1068.33 382.222 1068.33 382.222 1077.67 331.111 c 128,-1,26
 1087 280 1087 280 1111 235.5 c 0,27,28
 1163.04 139 1163.04 139 1270 139 c 0,29,30
 1444.86 139 1444.86 139 1589 290 c 1,31,-1
 1644 197 l 1,32,33
 1551.77 60.8526 1551.77 60.8526 1360.5 2 c 0,34,35
 1289 -20 1289 -20 1204 -20 c 0,36,37
 982.348 -20 982.348 -20 870 132 c 1,0,1
1448.05 885.758 m 0,38,39
 1448.05 1036 1448.05 1036 1344 1036 c 0,40,41
 1189.11 1036 1189.11 1036 1109.5 771.5 c 0,42,43
 1081.63 678.887 1081.63 678.887 1072 573 c 1,44,45
 1195.05 580.031 1195.05 580.031 1313.5 659.5 c 0,46,47
 1395.4 714.446 1395.4 714.446 1431 798.5 c 0,48,49
 1448.05 838.763 1448.05 838.763 1448.05 885.758 c 0,38,39
532 105 m 0,50,51
 628.308 105 628.308 105 696.5 203.5 c 0,52,53
 757.167 291.13 757.167 291.13 785 441 c 1,54,55
 789.299 537.729 789.299 537.729 805 611 c 1,56,57
 806.286 644 806.286 644 806.286 682.179 c 128,-1,58
 806.286 720.357 806.286 720.357 803.143 779.679 c 128,-1,59
 800 839 800 839 782 899 c 0,60,61
 741.8 1033 741.8 1033 634 1033 c 0,62,63
 492.625 1033 492.625 1033 416.5 830 c 0,64,65
 355.5 667.333 355.5 667.333 355.5 468.312 c 0,66,67
 355.5 105 355.5 105 532 105 c 0,50,51
EndSplineSet
EndChar

StartChar: daggerdbl
Encoding: 8225 8225 190
Width: 816
Flags: HW
LayerCount: 2
Fore
SplineSet
605 1117 m 1,0,1
 603 1099 603 1099 603 1063.5 c 2,2,-1
 603 981 l 1,3,-1
 534 790 l 1,4,-1
 774 790 l 1,5,-1
 749 618 l 1,6,-1
 533 618 l 1,7,8
 533 610 533 610 532.5 593.5 c 128,-1,9
 532 577 532 577 531.5 558.5 c 0,10,11
 530.567 523.966 530.567 523.966 527 499 c 1,12,-1
 418 -51 l 1,13,-1
 270 -51 l 1,14,-1
 298 499 l 1,15,-1
 333 618 l 1,16,-1
 117 618 l 1,17,-1
 145 790 l 1,18,-1
 368 790 l 1,19,-1
 364 981 l 1,20,-1
 411 1117 l 1,21,-1
 150 1117 l 1,22,-1
 177 1288 l 1,23,-1
 458 1288 l 1,24,-1
 456 1469 l 1,25,-1
 475 1646 l 1,26,-1
 696 1646 l 1,27,-1
 668 1469 l 1,28,-1
 613 1288 l 1,29,-1
 879 1288 l 1,30,-1
 854 1117 l 1,31,-1
 605 1117 l 1,0,1
EndSplineSet
EndChar

StartChar: Euro
Encoding: 8364 8364 191
Width: 1388
Flags: HW
LayerCount: 2
Fore
SplineSet
229 695 m 1,0,1
 232.754 796.354 232.754 796.354 252 899 c 1,2,-1
 99 899 l 1,3,-1
 118 1039 l 1,4,-1
 290 1039 l 1,5,6
 373.701 1280.37 373.701 1280.37 560.5 1417 c 0,7,8
 736.867 1546 736.867 1546 960 1546 c 0,9,10
 1102.53 1546 1102.53 1546 1216.5 1510.5 c 1,11,-1
 1274 1492 l 2,12,13
 1283 1489 1283 1489 1295.5 1486.5 c 128,-1,14
 1308 1484 1308 1484 1320.5 1481 c 2,15,-1
 1344 1475.5 l 2,16,17
 1355 1473 1355 1473 1361 1472 c 1,18,-1
 1302 1187 l 1,19,-1
 1181 1187 l 1,20,-1
 1158 1341 l 1,21,22
 1077.25 1417 1077.25 1417 911 1417 c 0,23,24
 719 1417 719 1417 609 1197 c 0,25,26
 574 1127 574 1127 550 1039 c 1,27,-1
 1050 1039 l 1,28,-1
 1031 899 l 1,29,-1
 520 899 l 1,30,31
 505.286 810.714 505.286 810.714 501 695 c 1,32,-1
 979 695 l 1,33,-1
 966 554 l 1,34,-1
 501 554 l 1,35,36
 509 349 509 349 575.5 236.5 c 128,-1,37
 642 124 642 124 767 124 c 0,38,39
 948.244 124 948.244 124 1017 215 c 1,40,-1
 1087 377 l 1,41,-1
 1217 376 l 1,42,-1
 1169 70 l 1,43,44
 1106.17 65.6667 1106.17 65.6667 1051.58 50.3333 c 128,-1,45
 997 35 997 35 964.5 24.5 c 128,-1,46
 932 14 932 14 894.5 5 c 0,47,48
 807 -16 807 -16 702 -16 c 128,-1,49
 597 -16 597 -16 509.5 29.5 c 128,-1,50
 422 75 422 75 363 153 c 0,51,52
 251.695 300.148 251.695 300.148 232 554 c 1,53,-1
 32 554 l 1,54,-1
 48 695 l 1,55,-1
 229 695 l 1,0,1
EndSplineSet
EndChar

StartChar: infinity
Encoding: 8734 8734 192
Width: 2148
Flags: HW
LayerCount: 2
Fore
SplineSet
1090 789 m 1,0,1
 1289.71 1057.03 1289.71 1057.03 1546.83 1057.03 c 0,2,3
 1732.54 1057.03 1732.54 1057.03 1851.5 937 c 0,4,5
 1968.03 819.42 1968.03 819.42 1968.03 644.893 c 0,6,7
 1968.03 444.657 1968.03 444.657 1845 316.5 c 0,8,9
 1717.8 184 1717.8 184 1507 184 c 0,10,11
 1308.03 184 1308.03 184 1149.5 355 c 0,12,13
 1105 403 1105 403 1064 453 c 1,14,15
 868.843 184 868.843 184 620 184 c 0,16,17
 617.159 183.971 617.159 183.971 614.334 183.971 c 0,18,19
 427.613 183.971 427.613 183.971 304 306.5 c 0,20,21
 184 425.447 184 425.447 184 594 c 0,22,23
 184 792.894 184 792.894 313.5 924.5 c 0,24,25
 443.88 1057 443.88 1057 645 1057 c 0,26,27
 843.546 1057 843.546 1057 1003.5 886.5 c 0,28,29
 1049 838 1049 838 1090 789 c 1,0,1
462.5 807 m 0,30,31
 437 770 437 770 424.371 726.968 c 128,-1,32
 411.742 683.935 411.742 683.935 411.742 634.604 c 128,-1,33
 411.742 585.272 411.742 585.272 430.871 532.136 c 128,-1,34
 450 479 450 479 483 441 c 0,35,36
 555.947 357 555.947 357 671 357 c 0,37,38
 790.538 357 790.538 357 903 486 c 0,39,40
 937 525 937 525 969 569 c 1,41,42
 938 614 938 614 903 670 c 128,-1,43
 868 726 868 726 825.5 774.5 c 0,44,45
 725.165 889 725.165 889 608 889 c 0,46,47
 519.013 889 519.013 889 462.5 807 c 0,30,31
1186 674 m 1,48,-1
 1259 569.5 l 2,49,50
 1417.26 342 1417.26 342 1578 342 c 0,51,52
 1663.26 342 1663.26 342 1709.5 420.5 c 0,53,54
 1749.1 487.72 1749.1 487.72 1749.1 598.583 c 0,55,56
 1749.1 603.762 1749.1 603.762 1748.05 632.381 c 128,-1,57
 1747 661 1747 661 1731.5 710.5 c 128,-1,58
 1716 760 1716 760 1684.5 798.5 c 0,59,60
 1614.55 884 1614.55 884 1495 884 c 0,61,62
 1347.16 884 1347.16 884 1186 674 c 1,48,-1
EndSplineSet
EndChar

StartChar: lessequal
Encoding: 8804 8804 193
Width: 1364
Flags: HW
LayerCount: 2
Fore
SplineSet
207 767 m 1,0,-1
 1205 1204 l 1,1,-1
 1181 996 l 1,2,-1
 504 726 l 1,3,-1
 1118 453 l 1,4,-1
 1094 246 l 1,5,-1
 198 689 l 1,6,-1
 207 767 l 1,0,-1
160 159 m 1,7,-1
 1108 159 l 1,8,-1
 1088 -1 l 1,9,-1
 140 -1 l 1,10,-1
 160 159 l 1,7,-1
EndSplineSet
EndChar

StartChar: greaterequal
Encoding: 8805 8805 194
Width: 1364
Flags: HW
LayerCount: 2
Fore
SplineSet
226 456 m 1,0,-1
 905 728 l 1,1,-1
 293 999 l 1,2,-1
 318 1207 l 1,3,-1
 1210 767 l 1,4,-1
 1201 689 l 1,5,-1
 197 246 l 1,6,-1
 226 456 l 1,0,-1
161 159 m 1,7,-1
 1109 159 l 1,8,-1
 1089 -1 l 1,9,-1
 141 -1 l 1,10,-1
 161 159 l 1,7,-1
EndSplineSet
EndChar

StartChar: partialdiff
Encoding: 8706 8706 195
Width: 1364
Flags: HW
LayerCount: 2
Fore
SplineSet
264 1551 m 1,0,1
 425.824 1682 425.824 1682 655 1682 c 0,2,3
 865.513 1682 865.513 1682 1006.5 1558.5 c 0,4,5
 1182.09 1404.69 1182.09 1404.69 1223.5 1113 c 0,6,7
 1235 1032 1235 1032 1235 943.5 c 128,-1,8
 1235 855 1235 855 1223.5 741 c 128,-1,9
 1212 627 1212 627 1184 517.5 c 128,-1,10
 1156 408 1156 408 1109 310 c 128,-1,11
 1062 212 1062 212 990 137.5 c 0,12,13
 833.919 -24 833.919 -24 587 -24 c 0,14,15
 382.603 -24 382.603 -24 261 123.5 c 0,16,17
 158.684 247.605 158.684 247.605 158.684 416.936 c 0,18,19
 158.684 555.573 158.684 555.573 209.342 671.287 c 128,-1,20
 260 787 260 787 339.5 863.5 c 0,21,22
 504.216 1022 504.216 1022 752 1022 c 0,23,24
 887.966 1022 887.966 1022 999 952 c 1,25,26
 992.846 1419.69 992.846 1419.69 725.5 1517.5 c 0,27,28
 664 1540 664 1540 570.696 1540 c 128,-1,29
 477.391 1540 477.391 1540 360 1465 c 1,30,-1
 264 1551 l 1,0,1
992 765 m 1,31,32
 885.78 878 885.78 878 689 878 c 0,33,34
 593.379 878 593.379 878 510.5 787.5 c 0,35,36
 399.379 666.161 399.379 666.161 399.379 461.308 c 0,37,38
 399.379 336.873 399.379 336.873 437.69 260.937 c 128,-1,39
 476 185 476 185 521 148.5 c 128,-1,40
 566 112 566 112 627 112 c 128,-1,41
 688 112 688 112 733.5 134 c 128,-1,42
 779 156 779 156 815 194 c 128,-1,43
 851 232 851 232 878 283.5 c 128,-1,44
 905 335 905 335 924.5 394.5 c 0,45,46
 968.946 530.117 968.946 530.117 986 703.5 c 2,47,-1
 992 765 l 1,31,32
EndSplineSet
EndChar

StartChar: summation
Encoding: 8721 8721 196
Width: 1587
Flags: HW
LayerCount: 2
Fore
SplineSet
727 672 m 1,0,-1
 227 1399 l 1,1,-1
 246 1538 l 1,2,-1
 1318 1538 l 1,3,-1
 1348 1201 l 1,4,-1
 1197 1201 l 1,5,-1
 1123 1386 l 1,6,-1
 513 1411 l 1,7,-1
 1012 704 l 1,8,-1
 496 -37 l 1,9,-1
 1127 -10 l 1,10,-1
 1246 213 l 1,11,-1
 1391 182 l 1,12,-1
 1330 -176 l 1,13,-1
 234 -175 l 1,14,-1
 217 -67 l 1,15,-1
 727 672 l 1,0,-1
EndSplineSet
EndChar

StartChar: product
Encoding: 8719 8719 197
Width: 1759
Flags: HW
LayerCount: 2
Fore
SplineSet
353 -41 m 1,0,-1
 353 1398 l 1,1,-1
 171 1422 l 1,2,-1
 171 1537 l 1,3,-1
 1663 1537 l 1,4,-1
 1663 1422 l 1,5,-1
 1476 1398 l 1,6,-1
 1476 -41 l 1,7,-1
 1660 -79 l 1,8,-1
 1660 -175 l 1,9,-1
 1023 -175 l 1,10,-1
 1023 -79 l 1,11,-1
 1207 -42 l 1,12,-1
 1207 1411 l 1,13,-1
 622 1411 l 1,14,-1
 622 -41 l 1,15,-1
 802 -78 l 1,16,-1
 802 -175 l 1,17,-1
 174 -175 l 1,18,-1
 174 -78 l 1,19,-1
 353 -41 l 1,0,-1
EndSplineSet
EndChar

StartChar: pi
Encoding: 960 960 198
Width: 1621
Flags: HW
LayerCount: 2
Fore
SplineSet
118 135 m 1,0,1
 321.139 177.766 321.139 177.766 400.5 370.5 c 0,2,3
 425 430 425 430 443 499 c 2,4,-1
 550 914 l 1,5,-1
 449 914 l 2,6,7
 375.25 914 375.25 914 317.5 837 c 0,8,9
 301 815 301 815 292 791 c 1,10,-1
 161 806 l 1,11,12
 160.818 812.909 160.818 812.909 160.818 832.682 c 0,13,14
 160.818 1024.63 160.818 1024.63 317.5 1102 c 0,15,16
 396.475 1141 396.475 1141 495 1141 c 2,17,-1
 1230 1141 l 2,18,19
 1293 1141 1293 1141 1333.5 1163 c 128,-1,20
 1374 1185 1374 1185 1394 1246 c 1,21,-1
 1537 1246 l 1,22,23
 1517.31 1009.71 1517.31 1009.71 1349.5 938 c 0,24,25
 1291 913 1291 913 1213 913 c 2,26,-1
 1169 913 l 1,27,-1
 1144.5 714 l 2,28,29
 1111.2 444.445 1111.2 444.445 1108.1 376.222 c 128,-1,30
 1105 308 1105 308 1104.39 296.5 c 128,-1,31
 1103.78 285 1103.78 285 1103.78 263.389 c 128,-1,32
 1103.78 241.778 1103.78 241.778 1118.89 214.389 c 128,-1,33
 1134 187 1134 187 1161.5 186 c 128,-1,34
 1189 185 1189 185 1212 193 c 128,-1,35
 1235 201 1235 201 1257 220 c 0,36,37
 1306.06 262.366 1306.06 262.366 1328 341 c 1,38,-1
 1472 341 l 1,39,40
 1445.64 196.003 1445.64 196.003 1350.5 94 c 0,41,42
 1242.31 -21.9999 1242.31 -21.9999 1079 -22 c 0,43,44
 975 -22 975 -22 921.5 35 c 128,-1,45
 868 92 868 92 868 185 c 0,46,47
 868 279.1 868 279.1 907 515.05 c 2,48,-1
 974 913 l 1,49,-1
 738 913 l 1,50,-1
 661 440 l 1,51,52
 590.634 1.05115 590.634 1.05115 280 -24 c 1,53,-1
 118 135 l 1,0,1
EndSplineSet
EndChar

StartChar: integral
Encoding: 8747 8747 199
Width: 1186
Flags: HW
LayerCount: 2
Fore
SplineSet
199 -228 m 1,0,1
 211.829 -270.764 211.829 -270.764 245.415 -298.882 c 0,2,3
 307.667 -351 307.667 -351 360.333 -351 c 128,-1,4
 413 -351 413 -351 450.5 -336 c 128,-1,5
 488 -321 488 -321 512 -284 c 0,6,7
 560 -210 560 -210 560 -32 c 0,8,9
 560 134.116 560 134.116 524 301.558 c 128,-1,10
 488 469 488 469 462.5 568.5 c 128,-1,11
 437 668 437 668 415.5 767 c 0,12,13
 365 999.535 365 999.535 365 1139.77 c 128,-1,14
 365 1280 365 1280 399 1378.5 c 128,-1,15
 433 1477 433 1477 494.5 1550 c 0,16,17
 626.767 1707 626.767 1707 831 1707 c 0,18,19
 972.276 1707 972.276 1707 1064 1637 c 0,20,21
 1102 1608 1102 1608 1126 1560 c 1,22,-1
 977 1445 l 1,23,24
 967.683 1486.93 967.683 1486.93 934.342 1514.96 c 0,25,26
 871.27 1568 871.27 1568 817.635 1568 c 128,-1,27
 764 1568 764 1568 726.5 1552.5 c 128,-1,28
 689 1537 689 1537 664.5 1500.5 c 0,29,30
 616 1428.24 616 1428.24 616 1249 c 0,31,32
 616 1077.23 616 1077.23 651.5 912.116 c 128,-1,33
 687 747 687 747 711.5 647.5 c 128,-1,34
 736 548 736 548 757.5 448 c 0,35,36
 807 217.767 807 217.767 807 74.8837 c 128,-1,37
 807 -68 807 -68 774 -167 c 128,-1,38
 741 -266 741 -266 680 -338.5 c 0,39,40
 548.324 -495 548.324 -495 345 -495 c 0,41,42
 203.017 -495 203.017 -495 112.5 -425 c 0,43,44
 75 -396 75 -396 51 -348 c 1,45,-1
 199 -228 l 1,0,1
EndSplineSet
EndChar

StartChar: Omega
Encoding: 8486 8486 200
Width: 1672
Flags: HW
LayerCount: 2
Fore
SplineSet
-36 400 m 1,0,-1
 104 391 l 1,1,-1
 130 166 l 1,2,-1
 439 166 l 1,3,4
 322.438 271.566 322.438 271.566 240 447.5 c 0,5,6
 157.107 624.405 157.107 624.405 157.107 793.016 c 0,7,8
 157.107 966.593 157.107 966.593 218.054 1110.8 c 128,-1,9
 279 1255 279 1255 377 1349.5 c 0,10,11
 581.815 1547 581.815 1547 925 1547 c 0,12,13
 1216.36 1547 1216.36 1547 1380.5 1390 c 0,14,15
 1534.64 1242.57 1534.64 1242.57 1534.64 993 c 0,16,17
 1534.64 769.991 1534.64 769.991 1410.5 531 c 0,18,19
 1295.5 309.595 1295.5 309.595 1130 176 c 1,20,-1
 1433 176 l 1,21,-1
 1513 419 l 1,22,-1
 1656 415 l 1,23,-1
 1587 0 l 1,24,-1
 917 0 l 1,25,-1
 877 139 l 1,26,27
 1035.6 238.636 1035.6 238.636 1138 446.5 c 0,28,29
 1255.26 684.544 1255.26 684.544 1255.26 961.208 c 0,30,31
 1255.26 1154.36 1255.26 1154.36 1167.5 1280 c 0,32,33
 1066.21 1425 1066.21 1425 889 1425 c 0,34,35
 680 1425 680 1425 558.5 1263 c 0,36,37
 425.815 1086.09 425.815 1086.09 425.815 781.687 c 0,38,39
 425.815 524.137 425.815 524.137 558.5 292.5 c 0,40,41
 617.969 188.68 617.969 188.68 678 139 c 1,42,-1
 623 0 l 1,43,-1
 -46 0 l 1,44,-1
 -36 400 l 1,0,-1
EndSplineSet
EndChar

StartChar: radical
Encoding: 8730 8730 201
Width: 1587
Flags: HW
LayerCount: 2
Fore
SplineSet
72 578 m 1,0,-1
 281 729 l 1,1,-1
 482 729 l 1,2,-1
 683 -86 l 1,3,-1
 1430 1917 l 1,4,-1
 1693 1917 l 1,5,-1
 777 -363 l 1,6,-1
 554 -363 l 1,7,-1
 286 513 l 1,8,9
 149 440 l 1,10,-1
 72 578 l 1,0,-1
EndSplineSet
EndChar

StartChar: Delta
Encoding: 8710 8710 203
Width: 1407
Flags: HW
LayerCount: 2
Fore
SplineSet
-43 22 m 1,0,-1
 721 1508 l 1,1,-1
 773 1508 l 1,2,-1
 1342 27 l 1,3,-1
 1325 0 l 1,4,-1
 -31 0 l 1,5,-1
 -43 22 l 1,0,-1
1018 186 m 1,6,-1
 675 1120 l 1,7,-1
 211 186 l 1,8,-1
 1018 186 l 1,6,-1
EndSplineSet
EndChar

StartChar: v
Encoding: 118 118 204
Width: 1070
Flags: HW
LayerCount: 2
Fore
SplineSet
892 1163 m 0,0,1
 1042 1163 1042 1163 1042 955 c 0,2,3
 1042 758.87 1042 758.87 806.5 400.5 c 1,4,-1
 740 303 l 1,5,-1
 495 -9 l 1,6,-1
 323 -21 l 1,7,-1
 145 945 l 2,8,9
 129.824 1023.41 129.824 1023.41 69 993 c 0,10,11
 51 984 51 984 35 973 c 1,12,-1
 6 1043 l 1,13,14
 26.6337 1073.95 26.6337 1073.95 69.8168 1102.98 c 0,15,16
 159.122 1163 159.122 1163 240.061 1163 c 128,-1,17
 321 1163 321 1163 358.5 1127.5 c 128,-1,18
 396 1092 396 1092 405 1026 c 2,19,-1
 491 405 l 1,20,-1
 512 205 l 1,21,-1
 606 353 l 1,22,-1
 671 469.5 l 1,23,24
 776.101 664.445 776.101 664.445 796 851 c 0,25,26
 798.974 888.173 798.974 888.173 787.487 930.587 c 0,27,28
 765 1013.62 765 1013.62 765 1055.31 c 128,-1,29
 765 1097 765 1097 798.5 1130 c 128,-1,30
 832 1163 832 1163 892 1163 c 0,0,1
EndSplineSet
EndChar

StartChar: ellipsis
Encoding: 8230 8230 205
Width: 1578
Flags: HW
LayerCount: 2
Fore
SplineSet
1121 63.5 m 0,0,1
 1112 90 1112 90 1114 125.5 c 128,-1,2
 1116 161 1116 161 1131.5 193 c 128,-1,3
 1147 225 1147 225 1171.5 248 c 0,4,5
 1222.63 296 1222.63 296 1273.32 296 c 128,-1,6
 1324 296 1324 296 1350.5 284 c 0,7,8
 1422.44 251.421 1422.44 251.421 1422.44 165.346 c 0,9,10
 1422.44 76.8376 1422.44 76.8376 1360 24 c 0,11,12
 1306.82 -21 1306.82 -21 1237 -21 c 0,13,14
 1149.7 -21 1149.7 -21 1121 63.5 c 0,0,1
595 63.5 m 0,15,16
 586 90 586 90 588 125.5 c 128,-1,17
 590 161 590 161 605.5 193 c 128,-1,18
 621 225 621 225 645.5 248 c 0,19,20
 696.63 296 696.63 296 747.315 296 c 128,-1,21
 798 296 798 296 824.5 284 c 0,22,23
 896.444 251.421 896.444 251.421 896.444 165.346 c 0,24,25
 896.444 76.8376 896.444 76.8376 834 24 c 0,26,27
 780.818 -21 780.818 -21 711 -21 c 0,28,29
 623.698 -21 623.698 -21 595 63.5 c 0,15,16
94.5 18.5 m 0,30,31
 78 37 78 37 69.8182 61.0909 c 128,-1,32
 61.6364 85.1818 61.6364 85.1818 61.6364 120.651 c 128,-1,33
 61.6364 156.12 61.6364 156.12 78.3182 190.56 c 128,-1,34
 95 225 95 225 119.5 248 c 0,35,36
 170.63 296 170.63 296 221.315 296 c 128,-1,37
 272 296 272 296 298.5 284 c 0,38,39
 370.444 251.421 370.444 251.421 370.444 165.346 c 0,40,41
 370.444 76.8376 370.444 76.8376 308 24 c 0,42,43
 254.818 -21 254.818 -21 185 -21 c 0,44,45
 129.73 -21 129.73 -21 94.5 18.5 c 0,30,31
EndSplineSet
EndChar

StartChar: perthousand
Encoding: 8240 8240 206
Width: 2713
Flags: HW
LayerCount: 2
Fore
SplineSet
1819 382.5 m 0,0,1
 1819 455 1819 455 1850.5 532.5 c 128,-1,2
 1882 610 1882 610 1938.5 670.5 c 0,3,4
 2065.04 806 2065.04 806 2242 806 c 0,5,6
 2390.44 806 2390.44 806 2467.5 720.5 c 0,7,8
 2539 641.164 2539 641.164 2539 506 c 0,9,10
 2539 332.625 2539 332.625 2422 201 c 0,11,12
 2297.56 61.0001 2297.56 61.0001 2112 61 c 0,13,14
 1973.66 61 1973.66 61 1894 152.5 c 0,15,16
 1819 238.649 1819 238.649 1819 382.5 c 0,0,1
2329 498 m 0,17,18
 2329 699 2329 699 2214 699 c 0,19,20
 2123.17 699 2123.17 699 2067 585.5 c 0,21,22
 2020 490.521 2020 490.521 2020 378 c 256,23,24
 2020 169 2020 169 2141 169 c 0,25,26
 2231.7 169 2231.7 169 2284.5 287.5 c 0,27,28
 2329 387.378 2329 387.378 2329 498 c 0,17,18
1328 1530 m 1,29,-1
 1517 1530 l 1,30,-1
 570 0 l 1,31,-1
 381 0 l 1,32,-1
 1328 1530 l 1,29,-1
648.5 778.5 m 128,-1,34
 570 740 570 740 486 740 c 128,-1,35
 402 740 402 740 347 764.5 c 128,-1,36
 292 789 292 789 255 831.5 c 0,37,38
 180 917.649 180 917.649 180 1055 c 0,39,40
 180 1221.54 180 1221.54 299.5 1349.5 c 0,41,42
 426.041 1485 426.041 1485 603 1485 c 0,43,44
 751.444 1485 751.444 1485 828.5 1399.5 c 0,45,46
 900 1320.16 900 1320.16 900 1185 c 0,47,48
 900 1011.62 900 1011.62 783 880 c 0,49,33
 727 817 727 817 648.5 778.5 c 128,-1,34
381 1057 m 256,50,51
 381 848 381 848 502 848 c 0,52,53
 592.703 848 592.703 848 645.5 966.5 c 0,54,55
 690 1066.38 690 1066.38 690 1177 c 0,56,57
 690 1378 690 1378 575 1378 c 0,58,59
 484.165 1378 484.165 1378 428 1264.5 c 0,60,61
 381 1169.52 381 1169.52 381 1057 c 256,50,51
1027 382.5 m 0,62,63
 1027 455 1027 455 1058.5 532.5 c 128,-1,64
 1090 610 1090 610 1146.5 670.5 c 0,65,66
 1273.04 806 1273.04 806 1450 806 c 0,67,68
 1598.44 806 1598.44 806 1675.5 720.5 c 0,69,70
 1747 641.164 1747 641.164 1747 506 c 0,71,72
 1747 332.625 1747 332.625 1630 201 c 0,73,74
 1505.56 61 1505.56 61 1320 61 c 0,75,76
 1181.66 61 1181.66 61 1102 152.5 c 0,77,78
 1027 238.649 1027 238.649 1027 382.5 c 0,62,63
1537 498 m 0,79,80
 1537 699 1537 699 1422 699 c 0,81,82
 1331.16 699 1331.16 699 1275 585.5 c 0,83,84
 1228 490.521 1228 490.521 1228 378 c 256,85,86
 1228 169 1228 169 1349 169 c 0,87,88
 1439.7 169 1439.7 169 1492.5 287.5 c 0,89,90
 1537 387.378 1537 387.378 1537 498 c 0,79,80
EndSplineSet
Ligature2: "'frac' Diagonal Fractions in Latin lookup 10 subtable" zero slash zero zero
EndChar

StartChar: florin
Encoding: 402 402 207
Width: 1058
Flags: HW
LayerCount: 2
Fore
SplineSet
1035 1468 m 1,0,1
 963 1504 963 1504 854 1504 c 0,2,3
 770.422 1504 770.422 1504 733.711 1474.5 c 0,4,5
 662.699 1417.44 662.699 1417.44 650 1285 c 1,6,-1
 634 1148 l 1,7,-1
 915 1148 l 1,8,-1
 902 985 l 1,9,-1
 614 985 l 1,10,-1
 447 -356 l 1,11,-1
 209 -356 l 1,12,-1
 380 985 l 1,13,-1
 174 985 l 1,14,-1
 184 1090 l 1,15,-1
 395 1148 l 1,16,-1
 402 1203 l 1,17,18
 424.432 1410.5 424.432 1410.5 587 1557.5 c 0,19,20
 733.529 1690 733.529 1690 870.365 1690 c 128,-1,21
 1007.2 1690 1007.2 1690 1048 1673 c 1,22,-1
 1035 1468 l 1,0,1
EndSplineSet
EndChar

StartChar: trademark
Encoding: 8482 8482 210
Width: 2167
Flags: HW
LayerCount: 2
Fore
SplineSet
862 817 m 1,0,-1
 969 832 l 1,1,-1
 1081 1424 l 1,2,-1
 982 1433 l 1,3,-1
 994 1530 l 1,4,-1
 1345 1530 l 1,5,-1
 1472 952 l 1,6,-1
 1728 1530 l 1,7,-1
 2067 1530 l 1,8,-1
 2055 1433 l 1,9,-1
 1958 1424 l 1,10,-1
 1937 833 l 1,11,-1
 2033 817 l 1,12,-1
 2022 734 l 1,13,-1
 1662 734 l 1,14,-1
 1673 817 l 1,15,-1
 1769 833 l 1,16,-1
 1789 1204 l 1,17,-1
 1808 1427 l 1,18,-1
 1479 726 l 1,19,-1
 1359 726 l 1,20,-1
 1221 1280 l 1,21,-1
 1186 1430 l 1,22,-1
 1080 832 l 1,23,-1
 1173 817 l 1,24,-1
 1162 734 l 1,25,-1
 851 734 l 1,26,-1
 862 817 l 1,0,-1
218 817 m 1,27,-1
 344 832 l 1,28,-1
 427 1425 l 1,29,-1
 262 1412 l 1,30,-1
 203 1276 l 1,31,-1
 128 1275 l 1,32,-1
 180 1530 l 1,33,-1
 879 1530 l 1,34,-1
 847 1277 l 1,35,-1
 774 1272 l 1,36,-1
 766 1413 l 1,37,-1
 602 1427 l 1,38,-1
 518 833 l 1,39,-1
 648 817 l 1,40,-1
 637 734 l 1,41,-1
 207 734 l 1,42,-1
 218 817 l 1,27,-1
EndSplineSet
EndChar

StartChar: notequal
Encoding: 8800 8800 211
Width: 1026
Flags: HW
LayerCount: 2
Fore
SplineSet
276 324 m 1,0,-1
 78 324 l 1,1,-1
 99 501 l 1,2,-1
 355 501 l 1,3,-1
 508 843 l 1,4,-1
 150 843 l 1,5,-1
 170 1020 l 1,6,-1
 587 1020 l 1,7,-1
 723 1324 l 1,8,-1
 912 1324 l 1,9,-1
 776 1020 l 1,10,-1
 985 1020 l 1,11,-1
 965 843 l 1,12,-1
 697 843 l 1,13,-1
 544 501 l 1,14,-1
 914 501 l 1,15,-1
 893 324 l 1,16,-1
 465 324 l 1,17,-1
 321 0 l 1,18,-1
 132 0 l 1,19,-1
 276 324 l 1,0,-1
EndSplineSet
EndChar

StartChar: OE
Encoding: 338 338 212
Width: 2278
Flags: HW
LayerCount: 2
Fore
SplineSet
1124 212 m 1,0,1
 941.869 -20 941.869 -20 632 -20 c 0,2,3
 366.409 -20 366.409 -20 220.5 159.5 c 0,4,5
 78.9565 333.629 78.9565 333.629 78.9565 639.769 c 0,6,7
 78.9565 1020.64 78.9565 1020.64 275 1275.5 c 0,8,9
 408.779 1449.41 408.779 1449.41 610 1515.5 c 0,10,11
 712 1549 712 1549 830 1549 c 0,12,13
 1140.86 1549 1140.86 1549 1256 1270 c 1,14,-1
 1289 1530 l 1,15,-1
 2161 1530 l 1,16,-1
 2140 1190 l 1,17,-1
 1981 1190 l 1,18,-1
 1940 1396 l 1,19,-1
 1545 1416 l 1,20,-1
 1475 868 l 1,21,-1
 1916 883 l 1,22,-1
 1898 696 l 1,23,-1
 1459 717 l 1,24,-1
 1379 126 l 1,25,-1
 1897 156 l 1,26,-1
 2015 408 l 1,27,-1
 2173 385 l 1,28,-1
 2094 0 l 1,29,-1
 1098 0 l 1,30,-1
 1124 212 l 1,0,1
1089.03 862.158 m 0,31,32
 1089.03 1424 1089.03 1424 800 1424 c 0,33,34
 673.869 1424 673.869 1424 570.5 1318.5 c 0,35,36
 423.46 1168.43 423.46 1168.43 379 871.5 c 0,37,38
 365.933 784.233 365.933 784.233 365.933 735.383 c 128,-1,39
 365.933 686.533 365.933 686.533 366.467 623.767 c 128,-1,40
 367 561 367 561 381 456 c 128,-1,41
 395 351 395 351 428 272 c 0,42,43
 499.43 101 499.43 101 660 101 c 0,44,45
 858.33 101 858.33 101 976.5 323.5 c 0,46,47
 1089.03 535.387 1089.03 535.387 1089.03 862.158 c 0,31,32
EndSplineSet
EndChar

StartChar: lozenge
Encoding: 9674 9674 224
Width: 1364
Flags: HW
LayerCount: 2
Fore
SplineSet
157 691 m 1,0,-1
 157 745 l 1,1,-1
 588 1441 l 1,2,-1
 775 1441 l 1,3,-1
 1206 745 l 1,4,-1
 1206 691 l 1,5,-1
 775 -5 l 1,6,-1
 588 -5 l 1,7,-1
 157 691 l 1,0,-1
983 718 m 1,8,-1
 681 1235 l 1,9,-1
 379 718 l 1,10,-1
 681 201 l 1,11,-1
 983 718 l 1,8,-1
EndSplineSet
EndChar

StartChar: Aring
Encoding: 197 197 239
Width: 1359
Flags: HW
LayerCount: 2
Fore
SplineSet
672 1500 m 1,0,1
 517.444 1550.87 517.444 1550.87 517.444 1711.81 c 0,2,3
 517.444 1867.89 517.444 1867.89 648.5 1947.5 c 0,4,5
 746.446 2007 746.446 2007 885 2007 c 0,6,7
 1098.75 2007 1098.75 2007 1157 1867.5 c 0,8,9
 1173.41 1828.2 1173.41 1828.2 1173.41 1799.62 c 128,-1,10
 1173.41 1771.05 1173.41 1771.05 1171.7 1740.52 c 128,-1,11
 1170 1710 1170 1710 1152.5 1668 c 128,-1,12
 1135 1626 1135 1626 1107.5 1594 c 0,13,14
 1053.91 1531.64 1053.91 1531.64 965 1502 c 1,15,-1
 1210 128 l 1,16,-1
 1368 96 l 1,17,-1
 1362 0 l 1,18,-1
 773 0 l 1,19,-1
 779 96 l 1,20,-1
 925 125 l 1,21,-1
 880 426 l 1,22,-1
 349 426 l 1,23,-1
 213 126 l 1,24,-1
 381 96 l 1,25,-1
 374 0 l 1,26,-1
 -141 0 l 1,27,-1
 -132 96 l 1,28,-1
 7 125 l 1,29,-1
 672 1500 l 1,0,1
949 1621.5 m 0,30,31
 1006.33 1663.31 1006.33 1663.31 1006.33 1757.15 c 0,32,33
 1006.33 1816.67 1006.33 1816.67 977.667 1845.33 c 0,34,35
 928 1895 928 1895 864 1895 c 0,36,37
 695.432 1895 695.432 1895 685 1742 c 0,38,39
 681.059 1678.94 681.059 1678.94 725 1635 c 0,40,41
 768 1592 768 1592 815.5 1592 c 0,42,43
 908.543 1592 908.543 1592 949 1621.5 c 0,30,31
860 562 m 1,44,-1
 768 1177 l 1,45,-1
 758 1330 l 1,46,-1
 410 562 l 1,47,-1
 860 562 l 1,44,-1
EndSplineSet
EndChar

StartChar: hyphen
Encoding: 45 45 245
Width: 1276
Flags: HW
LayerCount: 2
Fore
SplineSet
258 861 m 1,0,-1
 1105 861 l 1,1,-1
 1087 683 l 1,2,-1
 240 683 l 1,3,-1
 258 861 l 1,0,-1
EndSplineSet
EndChar

StartChar: dotlessj
Encoding: 567 567 248
Width: 650
Flags: HW
LayerCount: 2
Fore
SplineSet
-193 -385 m 1,0,1
 -165 -397 -165 -397 -107 -397 c 128,-1,2
 -49 -397 -49 -397 -1 -358.5 c 128,-1,3
 47 -320 47 -320 77.5 -255.5 c 0,4,5
 127.985 -148.738 127.985 -148.738 152 65 c 2,6,-1
 253 980 l 1,7,-1
 92 1031 l 1,8,-1
 112 1112 l 1,9,-1
 493 1163 l 1,10,-1
 543 1139 l 1,11,-1
 409 0 l 2,12,13
 379.94 -249.913 379.94 -249.913 241.5 -390.5 c 0,14,15
 111.023 -523 111.023 -523 -74 -523 c 0,16,17
 -193 -523 -193 -523 -230 -486 c 1,18,-1
 -193 -385 l 1,0,1
EndSplineSet
EndChar

StartChar: currency
Encoding: 164 164 249
Width: 1540
Flags: HW
LayerCount: 2
Fore
SplineSet
1023 323 m 1,0,1
 914.412 252 914.412 252 783.8 252 c 128,-1,2
 653.188 252 653.188 252 548 318 c 1,3,-1
 346 116 l 1,4,-1
 218 243 l 1,5,-1
 418 443 l 1,6,7
 342 554.889 342 554.889 342 688.416 c 128,-1,8
 342 821.943 342 821.943 416 934 c 1,9,-1
 215 1135 l 1,10,-1
 342 1263 l 1,11,-1
 545 1059 l 1,12,13
 654.969 1128 654.969 1128 786.04 1128 c 128,-1,14
 917.111 1128 917.111 1128 1029 1052 c 1,15,-1
 1228 1250 l 1,16,-1
 1355 1122 l 1,17,-1
 1155 922 l 1,18,19
 1222 815.219 1222 815.219 1222 687.668 c 128,-1,20
 1222 560.118 1222 560.118 1150 450 c 1,21,-1
 1353 248 l 1,22,-1
 1225 121 l 1,23,-1
 1023 323 l 1,0,1
533 690.5 m 0,24,25
 533 637 533 637 552.5 589.5 c 128,-1,26
 572 542 572 542 605.5 506.5 c 0,27,28
 677.69 430 677.69 430 782 430 c 256,29,30
 884.732 430 884.732 430 958 506.5 c 0,31,32
 1031 582.721 1031 582.721 1031 690 c 0,33,34
 1031 798.279 1031 798.279 958 874.5 c 0,35,36
 884.732 951 884.732 951 782 951 c 256,37,38
 677.69 951 677.69 951 605.5 874.5 c 0,39,40
 533 797.672 533 797.672 533 690.5 c 0,24,25
EndSplineSet
EndChar

StartChar: brokenbar
Encoding: 166 166 250
Width: 854
Flags: HW
LayerCount: 2
Fore
SplineSet
350 1780 m 1,0,-1
 543 1780 l 1,1,-1
 543 901 l 1,2,-1
 350 901 l 1,3,-1
 350 1780 l 1,0,-1
350 693 m 1,4,-1
 543 693 l 1,5,-1
 543 -186 l 1,6,-1
 350 -186 l 1,7,-1
 350 693 l 1,4,-1
EndSplineSet
EndChar

StartChar: Eth
Encoding: 208 208 251
Width: 1467
Flags: HW
LayerCount: 2
Fore
SplineSet
-2 98 m 1,0,-1
 151 128 l 1,1,-1
 226 712 l 1,2,-1
 84 712 l 1,3,-1
 105 862 l 1,4,-1
 246 862 l 1,5,-1
 316 1402 l 1,6,-1
 178 1427 l 1,7,-1
 189 1532 l 1,8,-1
 496 1532 l 1,9,10
 571 1533 571 1533 649 1540.5 c 128,-1,11
 727 1548 727 1548 807 1548 c 0,12,13
 1125.14 1548 1125.14 1548 1280.5 1371.5 c 0,14,15
 1422.07 1210.67 1422.07 1210.67 1422.07 909.277 c 0,16,17
 1422.07 499.709 1422.07 499.709 1212 250 c 0,18,19
 989.858 -14.0555 989.858 -14.0555 595.462 -14.0556 c 0,20,21
 557.028 -14.0556 557.028 -14.0556 514.514 -10.0278 c 128,-1,22
 472 -6 472 -6 445.5 -4 c 128,-1,23
 419 -2 419 -2 390 -1 c 2,24,-1
 332.5 1 l 2,25,26
 304 2 304 2 282 2 c 2,27,-1
 -13 2 l 1,28,-1
 -2 98 l 1,0,-1
427 136 m 1,29,30
 511 108 511 108 612.5 109.5 c 128,-1,31
 714 111 714 111 789 146.5 c 128,-1,32
 864 182 864 182 921 240 c 128,-1,33
 978 298 978 298 1018.5 374.5 c 0,34,35
 1132.08 589.04 1132.08 589.04 1132.08 883.741 c 128,-1,36
 1132.08 1178.39 1132.08 1178.39 1042 1305.5 c 0,37,38
 955.898 1427 955.898 1427 761 1427 c 0,39,40
 652.25 1427 652.25 1427 589 1404 c 1,41,-1
 519 862 l 1,42,-1
 864 862 l 1,43,-1
 843 712 l 1,44,-1
 500 712 l 1,45,-1
 427 136 l 1,29,30
EndSplineSet
EndChar

StartChar: multiply
Encoding: 215 215 252
Width: 1370
Flags: HW
LayerCount: 2
Fore
SplineSet
217 439 m 1,0,-1
 600 766 l 1,1,-1
 299 1093 l 1,2,-1
 446 1230 l 1,3,-1
 727 880 l 1,4,5
 1096 1230 l 1,6,-1
 1211 1091 l 1,7,-1
 829 765 l 1,8,-1
 1130 438 l 1,9,-1
 982 300 l 1,10,-1
 701 650 l 1,11,-1
 333 301 l 1,12,-1
 217 439 l 1,0,-1
EndSplineSet
EndChar

StartChar: Thorn
Encoding: 222 222 253
Width: 1262
Flags: HW
LayerCount: 2
Fore
SplineSet
893 388 m 128,-1,1
 772 346 772 346 638 346 c 128,-1,2
 504 346 504 346 460 350 c 1,3,-1
 432 126 l 1,4,-1
 606 97 l 1,5,-1
 598 0 l 1,6,-1
 4 0 l 1,7,-1
 14 96 l 1,8,-1
 157 126 l 1,9,-1
 318 1400 l 1,10,-1
 179 1425 l 1,11,-1
 192 1530 l 1,12,-1
 771 1530 l 1,13,-1
 759 1425 l 1,14,-1
 593 1400 l 1,15,-1
 568 1200 l 1,16,17
 675.8 1211 675.8 1211 788.4 1211 c 128,-1,18
 901 1211 901 1211 989.5 1184 c 128,-1,19
 1078 1157 1078 1157 1133 1109.5 c 0,20,21
 1238.03 1018.79 1238.03 1018.79 1238.03 849.396 c 0,22,23
 1238.03 632.348 1238.03 632.348 1091.5 500 c 0,24,0
 1014 430 1014 430 893 388 c 128,-1,1
476 475 m 1,25,26
 522.667 471 522.667 471 609.333 471 c 128,-1,27
 696 471 696 471 764.5 494.5 c 0,28,29
 902.432 541.82 902.432 541.82 951.5 672 c 0,30,31
 974.151 732.094 974.151 732.094 974.151 772.915 c 128,-1,32
 974.151 813.736 974.151 813.736 973.075 850.368 c 128,-1,33
 972 887 972 887 957.5 937.5 c 128,-1,34
 943 988 943 988 911.5 1021.5 c 0,35,36
 848.03 1089 848.03 1089 705 1089 c 0,37,38
 627 1089 627 1089 552 1074 c 1,39,-1
 476 475 l 1,25,26
EndSplineSet
EndChar

StartChar: eth
Encoding: 240 240 254
Width: 1167
Flags: HW
LayerCount: 2
Fore
SplineSet
799 1536 m 1,0,1
 1104 1257.36 1104 1257.36 1104 812 c 0,2,3
 1104 450.516 1104 450.516 943.5 220.5 c 0,4,5
 775.684 -20 775.684 -20 486 -20 c 0,6,7
 284.902 -20 284.902 -20 168 129.5 c 0,8,9
 65 261.221 65 261.221 65 430.111 c 128,-1,10
 65 599 65 599 110 722.5 c 128,-1,11
 155 846 155 846 231.5 932.5 c 0,12,13
 388.48 1110 388.48 1110 623 1110 c 0,14,15
 773.293 1110 773.293 1110 833 1038 c 1,16,17
 796.666 1260.55 796.666 1260.55 672 1398 c 1,18,-1
 532 1238 l 1,19,-1
 421 1331 l 1,20,-1
 570 1493 l 1,21,22
 445.745 1596.55 445.745 1596.55 349 1625 c 1,23,-1
 398 1764 l 1,24,25
 540.81 1724.6 540.81 1724.6 690 1621 c 1,26,27
 812.517 1765.79 812.517 1765.79 839 1800 c 1,28,-1
 947 1704 l 1,29,-1
 799 1536 l 1,0,1
436 123 m 0,30,31
 469 98 469 98 520.5 98 c 128,-1,32
 572 98 572 98 620.5 133.5 c 128,-1,33
 669 169 669 169 707 230.5 c 0,34,35
 808.136 394.181 808.136 394.181 829 728 c 0,36,37
 829.222 731.778 829.222 731.778 829.222 741.222 c 128,-1,38
 829.222 750.667 829.222 750.667 826.111 773.333 c 128,-1,39
 823 796 823 796 814.5 825 c 128,-1,40
 806 854 806 854 791 882.5 c 128,-1,41
 776 911 776 911 753 934 c 0,42,43
 701 986 701 986 638 986 c 128,-1,44
 575 986 575 986 534 960.5 c 128,-1,45
 493 935 493 935 461 891 c 128,-1,46
 429 847 429 847 406 789 c 128,-1,47
 383 731 383 731 368 666.5 c 0,48,49
 339 541.8 339 541.8 339 406 c 256,50,51
 339 196.485 339 196.485 436 123 c 0,30,31
EndSplineSet
EndChar

StartChar: thorn
Encoding: 254 254 255
Width: 1178
Flags: HW
LayerCount: 2
Fore
SplineSet
636.5 10.5 m 0,0,1
 547 -20 547 -20 472.6 -20 c 128,-1,2
 398.2 -20 398.2 -20 331 -8 c 1,3,-1
 316 -141 l 1,4,-1
 262 -520 l 1,5,-1
 10 -520 l 1,6,-1
 81 -20 l 1,7,-1
 274 1483 l 1,8,-1
 175 1526 l 1,9,-1
 200 1611 l 1,10,-1
 496 1650 l 1,11,-1
 549 1623 l 1,12,-1
 471 1033 l 1,13,14
 595.8 1163 595.8 1163 762 1163 c 0,15,16
 931.115 1163 931.115 1163 1019.5 1045.5 c 0,17,18
 1104 933.165 1104 933.165 1104 730 c 0,19,20
 1104 440.053 1104 440.053 929 219 c 0,21,22
 811.021 69.9735 811.021 69.9735 636.5 10.5 c 0,0,1
351 132 m 1,23,24
 398.667 110 398.667 110 467.333 110 c 128,-1,25
 536 110 536 110 587.5 136.5 c 128,-1,26
 639 163 639 163 678.5 208 c 128,-1,27
 718 253 718 253 747 313.5 c 128,-1,28
 776 374 776 374 794.5 442 c 0,29,30
 831 576.162 831 576.162 831 680.581 c 128,-1,31
 831 785 831 785 821 837 c 128,-1,32
 811 889 811 889 791.5 926 c 0,33,34
 750.392 1004 750.392 1004 675 1004 c 0,35,36
 549.577 1004 549.577 1004 448 865 c 1,37,-1
 351 132 l 1,23,24
EndSplineSet
EndChar

StartChar: Lslash
Encoding: 321 321 257
Width: 1220
Flags: HW
LayerCount: 2
Fore
SplineSet
11 99 m 1,0,-1
 154 128 l 1,1,-1
 207 545 l 1,2,-1
 54 483 l 1,3,-1
 18 601 l 1,4,-1
 225 688 l 1,5,-1
 317 1402 l 1,6,-1
 177 1427 l 1,7,-1
 190 1532 l 1,8,-1
 788 1532 l 1,9,-1
 777 1427 l 1,10,-1
 592 1402 l 1,11,-1
 515 809 l 1,12,-1
 869 957 l 1,13,-1
 904 830 l 1,14,-1
 497 664 l 1,15,-1
 428 125 l 1,16,-1
 837 140 l 1,17,-1
 1000 529 l 1,18,-1
 1149 506 l 1,19,-1
 1059 2 l 1,20,-1
 1 2 l 1,21,-1
 11 99 l 1,0,-1
EndSplineSet
EndChar

StartChar: Eogonek
Encoding: 280 280 258
Width: 1274
Flags: HW
LayerCount: 2
Fore
SplineSet
1089 -324 m 1,0,1
 959.833 -448 959.833 -448 792 -448 c 0,2,3
 664.125 -448 664.125 -448 628.5 -353 c 0,4,5
 608.829 -300.544 608.829 -300.544 625.415 -247.772 c 128,-1,6
 642 -195 642 -195 664.5 -164.5 c 128,-1,7
 687 -134 687 -134 713 -108 c 128,-1,8
 739 -82 739 -82 764.5 -62.5 c 0,9,10
 802.096 -33.75 802.096 -33.75 867 0 c 1,11,-1
 -14 0 l 1,12,-1
 -2 96 l 1,13,-1
 153 126 l 1,14,-1
 315 1400 l 1,15,-1
 176 1425 l 1,16,-1
 187 1530 l 1,17,-1
 1210 1530 l 1,18,-1
 1188 1190 l 1,19,-1
 1024 1190 l 1,20,-1
 983 1396 l 1,21,-1
 593 1416 l 1,22,-1
 521 868 l 1,23,-1
 962 883 l 1,24,-1
 944 696 l 1,25,-1
 505 717 l 1,26,-1
 425 126 l 1,27,-1
 935 156 l 1,28,-1
 1053 408 l 1,29,-1
 1211 385 l 1,30,-1
 1132 0 l 1,31,-1
 1033 0 l 1,32,33
 856 -130.421 856 -130.421 856 -208 c 1,34,35
 853.366 -268.587 853.366 -268.587 893 -283 c 0,36,37
 904 -287 904 -287 916 -287 c 0,38,39
 972.727 -287 972.727 -287 1058 -220 c 1,40,-1
 1089 -324 l 1,0,1
EndSplineSet
EndChar

StartChar: twosuperior
Encoding: 178 178 260
Width: 1163
Flags: HW
LayerCount: 2
Fore
SplineSet
610 1489 m 0,0,1
 441.638 1489 441.638 1489 309 1346 c 1,2,-1
 234 1450 l 1,3,4
 285.156 1519.76 285.156 1519.76 404.5 1583 c 0,5,6
 544.222 1657.04 544.222 1657.04 658.489 1657.04 c 128,-1,7
 772.755 1657.04 772.755 1657.04 838.878 1634.02 c 128,-1,8
 905 1611 905 1611 946 1573 c 0,9,10
 1021 1503.49 1021 1503.49 1021 1405.24 c 128,-1,11
 1021 1307 1021 1307 982 1226.5 c 128,-1,12
 943 1146 943 1146 872.5 1071 c 0,13,14
 749.266 939.9 749.266 939.9 492 778 c 1,15,-1
 920 813 l 1,16,-1
 1010 948 l 1,17,-1
 1113 919 l 1,18,-1
 1023 637 l 1,19,-1
 220 637 l 1,20,-1
 175 733 l 1,21,22
 359.922 834.707 359.922 834.707 539 983.5 c 0,23,24
 784 1187.07 784 1187.07 784 1343 c 0,25,26
 784 1444.7 784 1444.7 681 1478.5 c 0,27,28
 649 1489 649 1489 610 1489 c 0,0,1
EndSplineSet
EndChar

StartChar: onesuperior
Encoding: 185 185 261
Width: 1020
Flags: HW
LayerCount: 2
Fore
SplineSet
253 734 m 1,0,-1
 469 760 l 1,1,-1
 553 1385 l 1,2,-1
 312 1338 l 1,3,-1
 303 1446 l 1,4,5
 366.282 1464.98 366.282 1464.98 429.641 1493.99 c 0,6,7
 657.615 1601.63 657.615 1601.63 714 1645 c 1,8,-1
 808 1624 l 1,9,-1
 689 760 l 1,10,-1
 909 733 l 1,11,-1
 898 636 l 1,12,-1
 242 636 l 1,13,-1
 253 734 l 1,0,-1
EndSplineSet
EndChar

StartChar: foursuperior
Encoding: 8308 8308 263
Width: 1229
Flags: HW
LayerCount: 2
Fore
SplineSet
669 778 m 1,0,-1
 149 778 l 1,1,-1
 112 873 l 1,2,-1
 702 1730 l 1,3,-1
 825 1731 l 1,4,-1
 933 1627 l 1,5,-1
 450 1019 l 1,6,-1
 347 906 l 1,7,-1
 690 926 l 1,8,-1
 725 1178 l 1,9,-1
 950 1201 l 1,10,-1
 914 939 l 1,11,-1
 1141 953 l 1,12,-1
 1121 778 l 1,13,-1
 892 778 l 1,14,-1
 847 441 l 1,15,-1
 622 441 l 1,16,-1
 669 778 l 1,0,-1
EndSplineSet
EndChar

StartChar: threesuperior
Encoding: 179 179 265
Width: 1071
Flags: HW
LayerCount: 2
Fore
SplineSet
989.048 1434.84 m 0,0,1
 989.048 1235.8 989.048 1235.8 706 1143 c 1,2,3
 854 1143 854 1143 924 1062.5 c 0,4,5
 976.08 1002.61 976.08 1002.61 976.08 917.635 c 0,6,7
 976.08 740.862 976.08 740.862 803.5 638 c 0,8,9
 652.5 548 652.5 548 450 548 c 0,10,11
 349 548 349 548 236.5 588.5 c 0,12,13
 199 602 199 602 170 620 c 1,14,-1
 187 748 l 1,15,16
 289 697 289 697 435 697 c 0,17,18
 626.554 697 626.554 697 704.5 810.5 c 0,19,20
 733 852 733 852 734 901 c 128,-1,21
 735 950 735 950 722.5 975 c 128,-1,22
 710 1000 710 1000 687 1016.5 c 0,23,24
 643.317 1047.84 643.317 1047.84 559 1050 c 1,25,-1
 370 1005 l 1,26,-1
 395 1154 l 1,27,28
 614.894 1193.98 614.894 1193.98 703 1308 c 0,29,30
 741.217 1357.46 741.217 1357.46 741.217 1407.74 c 0,31,32
 741.217 1511.03 741.217 1511.03 594.214 1511.03 c 128,-1,33
 447.211 1511.03 447.211 1511.03 316 1417 c 1,34,-1
 275 1534 l 1,35,36
 392.213 1621.91 392.213 1621.91 561 1649.5 c 0,37,38
 613 1658 613 1658 679.5 1658 c 128,-1,39
 746 1658 746 1658 807.5 1641.5 c 0,40,41
 989.048 1592.79 989.048 1592.79 989.048 1434.84 c 0,0,1
EndSplineSet
EndChar

StartChar: grave.cap
Encoding: 65537 -1 266
Width: 522
Flags: HW
LayerCount: 2
Fore
SplineSet
387 1592 m 1,0,1
 235.345 1646.76 235.345 1646.76 105 1766.5 c 0,2,3
 62 1806 62 1806 43 1846 c 1,4,-1
 203 2007 l 1,5,-1
 473 1665 l 1,6,-1
 387 1592 l 1,0,1
EndSplineSet
EndChar

StartChar: dieresis.cap
Encoding: 65538 -1 267
Width: 806
Flags: HW
LayerCount: 2
Fore
SplineSet
604 1679 m 0,0,1
 572 1679 572 1679 549 1689 c 128,-1,2
 526 1699 526 1699 509.5 1717 c 0,3,4
 474 1755.73 474 1755.73 474 1801.36 c 128,-1,5
 474 1847 474 1847 487 1876.5 c 128,-1,6
 500 1906 500 1906 521.5 1927 c 0,7,8
 567.571 1972 567.571 1972 615.286 1972 c 128,-1,9
 663 1972 663 1972 688 1962 c 0,10,11
 763.105 1931.96 763.105 1931.96 763.105 1848.65 c 0,12,13
 763.105 1774.3 763.105 1774.3 717 1726 c 0,14,15
 672.136 1679 672.136 1679 604 1679 c 0,0,1
230.5 1691.5 m 0,16,17
 201 1679 201 1679 169 1679 c 128,-1,18
 137 1679 137 1679 114 1689.5 c 0,19,20
 39.9 1723.33 39.9 1723.33 39.9 1806.44 c 0,21,22
 39.9 1879.9 39.9 1879.9 87 1927 c 0,23,24
 132 1972 132 1972 179.5 1972 c 128,-1,25
 227 1972 227 1972 252 1962 c 0,26,27
 327.105 1931.96 327.105 1931.96 327.105 1848.65 c 0,28,29
 327.105 1732.43 327.105 1732.43 230.5 1691.5 c 0,16,17
EndSplineSet
EndChar

StartChar: commaaccent
Encoding: 63171 63171 268
Width: 367
Flags: HW
LayerCount: 2
Fore
SplineSet
175 -44 m 1,0,1
 241.964 -57.7868 241.964 -57.7868 283 -121.5 c 0,2,3
 320.333 -179.465 320.333 -179.465 320.333 -249.083 c 0,4,5
 320.333 -367.403 320.333 -367.403 236.5 -465 c 0,6,7
 168.625 -544.018 168.625 -544.018 91 -560 c 1,8,-1
 21 -505 l 1,9,-1
 24 -479 l 1,10,11
 93.6576 -429.245 93.6576 -429.245 97 -339 c 1,12,13
 100.462 -276.692 100.462 -276.692 56.5 -242.5 c 0,14,15
 43 -232 43 -232 28 -230 c 1,16,-1
 36 -156 l 1,17,-1
 175 -44 l 1,0,1
EndSplineSet
EndChar

StartChar: acute.cap
Encoding: 65539 -1 269
Width: 527
Flags: HW
LayerCount: 2
Fore
SplineSet
57 1665 m 1,0,-1
 333 2007 l 1,1,-1
 488 1846 l 1,2,3
 452.267 1774.53 452.267 1774.53 331 1692.5 c 0,4,5
 229.881 1624.1 229.881 1624.1 141 1592 c 1,6,-1
 57 1665 l 1,0,-1
EndSplineSet
EndChar

StartChar: circumflex.cap
Encoding: 65540 -1 270
Width: 794
Flags: HW
LayerCount: 2
Fore
SplineSet
50 1665 m 1,0,-1
 386 2007 l 1,1,-1
 564 2007 l 1,2,-1
 775 1665 l 1,3,-1
 679 1606 l 1,4,-1
 458 1824 l 1,5,-1
 134 1607 l 1,6,-1
 50 1665 l 1,0,-1
EndSplineSet
EndChar

StartChar: caron.cap
Encoding: 65541 -1 271
Width: 792
Flags: HW
LayerCount: 2
Fore
SplineSet
81 1949 m 1,0,-1
 176 2007 l 1,1,-1
 400 1804 l 1,2,-1
 720 2007 l 1,3,-1
 805 1950 l 1,4,-1
 473 1607 l 1,5,-1
 297 1607 l 1,6,-1
 81 1949 l 1,0,-1
EndSplineSet
EndChar

StartChar: breve.cap
Encoding: 65542 -1 272
Width: 715
Flags: HW
LayerCount: 2
Fore
SplineSet
352.5 1631 m 0,0,1
 273 1631 273 1631 216.5 1659.5 c 128,-1,2
 160 1688 160 1688 123.5 1734 c 0,3,4
 53 1822.85 53 1822.85 53 1953 c 0,5,6
 53 1976 53 1976 56 1997 c 1,7,-1
 200 1997 l 1,8,-1
 202 1959 l 1,9,10
 220.25 1813 220.25 1813 358 1813 c 0,11,12
 454.5 1813 454.5 1813 504 1879 c 0,13,14
 535.345 1920.79 535.345 1920.79 550 1997 c 1,15,-1
 692 1997 l 1,16,17
 692.667 1991.67 692.667 1991.67 692.667 1987.33 c 0,18,19
 692.667 1845.98 692.667 1845.98 596.5 1738.5 c 128,-1,20
 500.316 1631 500.316 1631 352.5 1631 c 0,0,1
EndSplineSet
EndChar

StartChar: dotaccent.cap
Encoding: 65543 -1 273
Width: 389
Flags: HW
LayerCount: 2
Fore
SplineSet
249.5 1666 m 128,-1,1
 216 1652 216 1652 181 1652 c 128,-1,2
 146 1652 146 1652 119.5 1664 c 0,3,4
 65.4035 1688.5 65.4035 1688.5 41.5 1741.5 c 0,5,6
 30.92 1764.96 30.92 1764.96 30.92 1796.33 c 128,-1,7
 30.92 1827.69 30.92 1827.69 45.96 1859.85 c 128,-1,8
 61 1892 61 1892 85 1915 c 0,9,10
 137.174 1965 137.174 1965 207 1965 c 0,11,12
 274.41 1965 274.41 1965 318 1922.5 c 0,13,14
 359.083 1882.44 359.083 1882.44 359.083 1837.99 c 128,-1,15
 359.083 1793.53 359.083 1793.53 345.042 1760.76 c 128,-1,16
 331 1728 331 1728 307 1704 c 128,-1,0
 283 1680 283 1680 249.5 1666 c 128,-1,1
EndSplineSet
EndChar

StartChar: ring.cap
Encoding: 65544 -1 274
Width: 722
Flags: HW
LayerCount: 2
Fore
SplineSet
485 1495.5 m 128,-1,1
 423 1479 423 1479 354 1479 c 128,-1,2
 285 1479 285 1479 228 1495.5 c 0,3,4
 113.554 1528.63 113.554 1528.63 75 1624 c 0,5,6
 59.3043 1662.83 59.3043 1662.83 59.3043 1691.7 c 0,7,8
 59.3043 1802.18 59.3043 1802.18 98.1522 1858.59 c 128,-1,9
 137 1915 137 1915 190.5 1947.5 c 0,10,11
 288.446 2007 288.446 2007 427 2007 c 0,12,13
 640.747 2007 640.747 2007 699 1867.5 c 0,14,15
 715.409 1828.2 715.409 1828.2 715.409 1799.62 c 0,16,17
 715.409 1695.26 715.409 1695.26 680.705 1638.13 c 128,-1,18
 646 1581 646 1581 596.5 1546.5 c 128,-1,0
 547 1512 547 1512 485 1495.5 c 128,-1,1
314.5 1603.5 m 128,-1,20
 342 1592 342 1592 373.5 1592 c 128,-1,21
 405 1592 405 1592 436 1598 c 128,-1,22
 467 1604 467 1604 491 1621.5 c 0,23,24
 548.333 1663.31 548.333 1663.31 548.333 1757.15 c 0,25,26
 548.333 1816.67 548.333 1816.67 519.667 1845.33 c 0,27,28
 470 1895 470 1895 406 1895 c 0,29,30
 237.432 1895 237.432 1895 227 1742 c 0,31,32
 226.692 1737.08 226.692 1737.08 226.692 1721.42 c 128,-1,33
 226.692 1705.77 226.692 1705.77 236.846 1680.38 c 128,-1,34
 247 1655 247 1655 267 1635 c 128,-1,19
 287 1615 287 1615 314.5 1603.5 c 128,-1,20
EndSplineSet
EndChar

StartChar: tilde.cap
Encoding: 65545 -1 275
Width: 813
Flags: HW
LayerCount: 2
Fore
SplineSet
271 1783 m 1,0,1
 204.267 1783 204.267 1783 124 1697 c 1,2,-1
 62 1801 l 1,3,4
 116.456 1909.91 116.456 1909.91 237.5 1955.5 c 0,5,6
 276 1970 276 1970 313 1970 c 128,-1,7
 350 1970 350 1970 377.5 1959.5 c 128,-1,8
 405 1949 405 1949 426.5 1932.5 c 128,-1,9
 448 1916 448 1916 466.5 1897.5 c 2,10,-1
 502.5 1862.5 l 2,11,12
 542.273 1825 542.273 1825 576.136 1825 c 128,-1,13
 610 1825 610 1825 632 1834.5 c 128,-1,14
 654 1844 654 1844 672 1859.5 c 128,-1,15
 690 1875 690 1875 705.5 1893.5 c 2,16,-1
 735 1930 l 1,17,-1
 808 1819 l 1,18,19
 780.642 1745.35 780.642 1745.35 710.5 1693 c 0,20,21
 636.8 1638 636.8 1638 557 1638 c 0,22,23
 459.703 1638 459.703 1638 394 1709.5 c 0,24,25
 351.722 1755.51 351.722 1755.51 325.861 1768.75 c 128,-1,26
 300 1782 300 1782 271 1783 c 1,0,1
EndSplineSet
EndChar

StartChar: hungarumlaut.cap
Encoding: 65546 -1 276
Width: 922
Flags: HW
LayerCount: 2
Fore
SplineSet
468 1635 m 1,0,-1
 765 2007 l 1,1,-1
 912 1881 l 1,2,3
 859.515 1792.18 859.515 1792.18 749 1699 c 0,4,5
 634.654 1602.59 634.654 1602.59 544 1575 c 1,6,-1
 468 1635 l 1,0,-1
15 1635 m 1,7,-1
 312 2007 l 1,8,-1
 460 1882 l 1,9,10
 423.755 1798.07 423.755 1798.07 300.5 1699 c 0,11,12
 181.779 1603.58 181.779 1603.58 94 1575 c 1,13,-1
 15 1635 l 1,7,-1
EndSplineSet
EndChar

StartChar: aogonek
Encoding: 261 261 277
Width: 1194
Flags: HW
LayerCount: 2
Fore
SplineSet
797 -10 m 1,0,1
 716.83 16.7234 716.83 16.7234 716.83 106.468 c 0,2,3
 716.83 110.66 716.83 110.66 717 115 c 1,4,-1
 715 118 l 1,5,6
 592.333 -20 592.333 -20 413 -20 c 0,7,8
 242.635 -20 242.635 -20 153.5 103.5 c 0,9,10
 72 216.422 72 216.422 72 407 c 0,11,12
 72 692.398 72 692.398 243.5 915.5 c 0,13,14
 361.231 1068.65 361.231 1068.65 539.5 1131 c 0,15,16
 631 1163 631 1163 732.714 1163 c 128,-1,17
 834.429 1163 834.429 1163 957 1124 c 1,18,-1
 1092 1163 l 1,19,-1
 962 207 l 2,20,21
 957 166 957 166 968.5 148.5 c 128,-1,22
 980 131 980 131 1004.75 131 c 128,-1,23
 1029.5 131 1029.5 131 1087 177 c 1,24,-1
 1117 114 l 1,25,26
 1082.67 60.5925 1082.67 60.5925 1006 18 c 1,27,28
 805 -125.571 805 -125.571 805 -208 c 1,29,30
 802.366 -268.587 802.366 -268.587 842 -283 c 0,31,32
 853 -287 853 -287 865 -287 c 0,33,34
 920.727 -287 920.727 -287 1006 -220 c 1,35,-1
 1037 -324 l 1,36,37
 907.833 -448 907.833 -448 740 -448 c 0,38,39
 655.595 -448 655.595 -448 608.5 -402 c 0,40,41
 567 -361.465 567 -361.465 567 -293 c 1,42,43
 569.447 -224.494 569.447 -224.494 612.723 -164.747 c 0,44,45
 677.944 -74.7042 677.944 -74.7042 797 -10 c 1,0,1
502 138 m 0,46,47
 612.409 138 612.409 138 710 251 c 1,48,-1
 812 1016 l 1,49,50
 768 1032 768 1032 706.5 1032 c 128,-1,51
 645 1032 645 1032 592.5 1004.5 c 128,-1,52
 540 977 540 977 499.5 931 c 128,-1,53
 459 885 459 885 430 824 c 128,-1,54
 401 763 401 763 382.5 695.5 c 0,55,56
 347 565.973 347 565.973 347 427.486 c 128,-1,57
 347 289 347 289 388.5 213.5 c 128,-1,58
 430 138 430 138 502 138 c 0,46,47
EndSplineSet
EndChar

StartChar: eogonek
Encoding: 281 281 279
Width: 1050
Flags: HW
LayerCount: 2
Fore
SplineSet
832 -324 m 1,0,1
 702.833 -448 702.833 -448 535 -448 c 0,2,3
 450.595 -448 450.595 -448 403.5 -402 c 0,4,5
 362 -361.465 362 -361.465 362 -293 c 1,6,7
 367.289 -150.185 367.289 -150.185 557 -16 c 1,8,9
 525 -20 525 -20 493 -20 c 0,10,11
 280.921 -20 280.921 -20 169.5 119 c 0,12,13
 73.9583 238.191 73.9583 238.191 73.9583 422.842 c 0,14,15
 73.9583 624.066 73.9583 624.066 158.5 798.5 c 0,16,17
 238.746 964.07 238.746 964.07 378.5 1062 c 0,18,19
 522.635 1163 522.635 1163 693 1163 c 0,20,21
 918.901 1163 918.901 1163 980.5 1011.5 c 0,22,23
 1000.03 963.465 1000.03 963.465 1000.03 897.24 c 128,-1,24
 1000.03 831.015 1000.03 831.015 969.015 767.508 c 128,-1,25
 938 704 938 704 885 654 c 128,-1,26
 832 604 832 604 764 567.5 c 128,-1,27
 696 531 696 531 624 507.5 c 0,28,29
 479.086 460.202 479.086 460.202 358 458 c 1,30,31
 357.333 444 357.333 444 357.333 413.111 c 128,-1,32
 357.333 382.222 357.333 382.222 366.667 331.111 c 128,-1,33
 376 280 376 280 400 235.5 c 0,34,35
 452.045 139 452.045 139 559 139 c 0,36,37
 733.864 139 733.864 139 878 290 c 1,38,-1
 933 197 l 1,39,40
 910 161 910 161 886.571 140.25 c 2,41,-1
 861.5 118 l 2,42,43
 859 116 859 116 856 114 c 2,44,-1
 834 96 l 1,45,46
 708.419 1.81393 708.419 1.81393 557 -16 c 1,47,48
 591 7 591 7 623 26 c 2,49,-1
 684 62 l 1,50,-1
 741 101 l 1,51,-1
 865 121 l 1,52,-1
 834 96 l 1,53,54
 751.124 33.843 751.124 33.843 696.062 -33.0785 c 0,55,56
 600 -149.831 600 -149.831 600 -203 c 1,57,58
 597.25 -266.239 597.25 -266.239 637 -282.5 c 0,59,60
 648 -287 648 -287 660 -287 c 0,61,62
 715.727 -287 715.727 -287 801 -220 c 1,63,-1
 832 -324 l 1,0,1
633 1036 m 0,64,65
 478.107 1036 478.107 1036 398.5 771.5 c 0,66,67
 369.193 674.126 369.193 674.126 360 573 c 1,68,69
 485.23 580.156 485.23 580.156 602 659.5 c 0,70,71
 737.053 751.266 737.053 751.266 737.053 893.633 c 128,-1,72
 737.053 1036 737.053 1036 633 1036 c 0,64,65
EndSplineSet
EndChar

StartChar: lslash
Encoding: 322 322 281
Width: 620
Flags: HW
LayerCount: 2
Fore
SplineSet
381 207 m 2,0,1
 370.143 131 370.143 131 415.4 131 c 0,2,3
 441.8 131 441.8 131 509 187 c 1,4,-1
 538 125 l 1,5,6
 486.997 44.8528 486.997 44.8528 375.5 -1.5 c 0,7,8
 331 -20 331 -20 287 -20 c 128,-1,9
 243 -20 243 -20 213 -12.5 c 128,-1,10
 183 -5 183 -5 161 11 c 0,11,12
 113 45.9091 113 45.9091 113 115 c 0,13,14
 113 139.5 113 139.5 120 192 c 2,15,-1
 196 747 l 1,16,-1
 56 692 l 1,17,-1
 56 829 l 1,18,-1
 216 894 l 1,19,-1
 297 1482 l 1,20,-1
 170 1525 l 1,21,-1
 190 1608 l 1,22,-1
 524 1650 l 1,23,-1
 574 1623 l 1,24,-1
 490 1006 l 1,25,-1
 649 1071 l 1,26,-1
 649 924 l 1,27,-1
 469 853 l 1,28,-1
 381 207 l 2,0,1
EndSplineSet
EndChar

StartChar: Aogonek
Encoding: 260 260 288
Width: 1342
Flags: HW
LayerCount: 2
Fore
SplineSet
1233 -324 m 1,0,1
 1103.83 -448 1103.83 -448 936 -448 c 0,2,3
 808.125 -448 808.125 -448 772.5 -353 c 0,4,5
 752.829 -300.544 752.829 -300.544 769.415 -247.772 c 128,-1,6
 786 -195 786 -195 808.5 -164.5 c 128,-1,7
 831 -134 831 -134 857 -108 c 128,-1,8
 883 -82 883 -82 908.5 -62.5 c 0,9,10
 946.096 -33.75 946.096 -33.75 1011 0 c 1,11,-1
 794 0 l 1,12,-1
 800 96 l 1,13,-1
 946 125 l 1,14,-1
 901 426 l 1,15,-1
 370 426 l 1,16,-1
 234 126 l 1,17,-1
 402 96 l 1,18,-1
 395 0 l 1,19,-1
 -120 0 l 1,20,-1
 -111 96 l 1,21,-1
 28 125 l 1,22,-1
 708 1530 l 1,23,-1
 981 1530 l 1,24,-1
 1231 128 l 1,25,-1
 1389 96 l 1,26,-1
 1383 0 l 1,27,-1
 1177 0 l 1,28,29
 1000 -130.421 1000 -130.421 1000 -208 c 1,30,31
 997.366 -268.587 997.366 -268.587 1037 -283 c 0,32,33
 1048 -287 1048 -287 1060 -287 c 0,34,35
 1116.73 -287 1116.73 -287 1202 -220 c 1,36,-1
 1233 -324 l 1,0,1
881 562 m 1,37,-1
 789 1177 l 1,38,-1
 779 1330 l 1,39,-1
 431 562 l 1,40,-1
 881 562 l 1,37,-1
EndSplineSet
EndChar

StartChar: caronvertical
Encoding: 65547 -1 291
Width: 315
Flags: HW
LayerCount: 2
Fore
SplineSet
422 1680 m 1,0,1
 456.333 1642.55 456.333 1642.55 456.333 1514.78 c 0,2,3
 456.333 1299.72 456.333 1299.72 359.5 1122.5 c 0,4,5
 333 1074 333 1074 303 1040 c 1,6,-1
 208 1070 l 1,7,-1
 202 1095 l 1,8,9
 237.308 1209.23 237.308 1209.23 248 1391 c 1,10,11
 253.362 1541.15 253.362 1541.15 221 1592 c 1,12,-1
 240 1634 l 1,13,-1
 422 1680 l 1,0,1
EndSplineSet
EndChar

StartChar: kgreenlandic
Encoding: 312 312 299
Width: 1145
Flags: HW
LayerCount: 2
Fore
SplineSet
239 972 m 1,0,-1
 127 1024 l 1,1,-1
 146 1110 l 1,2,-1
 462 1157 l 1,3,-1
 514 1132 l 1,4,-1
 368 0 l 1,5,-1
 110 0 l 1,6,-1
 239 972 l 1,0,-1
891 240 m 2,7,8
 942.2 144 942.2 144 1003.62 144 c 0,9,10
 1033.25 144 1033.25 144 1091 177 c 1,11,-1
 1123 118 l 1,12,13
 1055.27 35.7567 1055.27 35.7567 936 -4 c 0,14,15
 891 -19 891 -19 834 -19 c 0,16,17
 722 -19 722 -19 672 95 c 2,18,-1
 455 596 l 1,19,-1
 890 1142 l 1,20,-1
 1141 1142 l 1,21,-1
 686 623 l 1,22,-1
 891 240 l 2,7,8
EndSplineSet
EndChar

StartChar: scedilla
Encoding: 351 351 301
Width: 879
Flags: HW
LayerCount: 2
Fore
SplineSet
61 -304 m 1,0,1
 88.8571 -319 88.8571 -319 129.429 -319 c 128,-1,2
 170 -319 170 -319 200.5 -310 c 128,-1,3
 231 -301 231 -301 254.5 -280 c 0,4,5
 313.6 -227.187 313.6 -227.187 313.6 -83.56 c 0,6,7
 313.6 -46.6 313.6 -46.6 310 -19 c 1,8,9
 175.711 -16.0158 175.711 -16.0158 67.5 22.5 c 0,10,11
 38 33 38 33 25 44 c 1,12,-1
 67 220 l 1,13,14
 139.2 161.337 139.2 161.337 248.5 135 c 0,15,16
 290 125 290 125 335 125 c 0,17,18
 513 125 513 125 513 258 c 0,19,20
 513 349.369 513 349.369 404.5 434.5 c 1,21,-1
 335 487 l 1,22,23
 133 635.133 133 635.133 133 833 c 0,24,25
 133 986.759 133 986.759 259 1078 c 0,26,27
 376.381 1163 376.381 1163 559 1163 c 0,28,29
 676.231 1163 676.231 1163 740.615 1147.5 c 128,-1,30
 805 1132 805 1132 817 1126 c 1,31,-1
 777 939 l 1,32,33
 738.404 988.624 738.404 988.624 641.5 1016.5 c 0,34,35
 605 1027 605 1027 567 1027 c 128,-1,36
 529 1027 529 1027 499.5 1020.5 c 128,-1,37
 470 1014 470 1014 446 999 c 0,38,39
 387.692 962.558 387.692 962.558 387.692 890.325 c 0,40,41
 387.692 830.174 387.692 830.174 420.346 788.087 c 0,42,43
 468.893 725.515 468.893 725.515 532.447 677.758 c 128,-1,44
 596 630 596 630 634.5 595.5 c 128,-1,45
 673 561 673 561 703 518.5 c 0,46,47
 770 423.583 770 423.583 770 310 c 0,48,49
 770 178.471 770 178.471 677.5 92.5 c 0,50,51
 596.373 17.0997 596.373 17.0997 455 -9 c 1,52,53
 478 -78 478 -78 478 -136.333 c 128,-1,54
 478 -194.667 478 -194.667 477 -212 c 0,55,56
 468 -352 468 -352 399.5 -413 c 128,-1,57
 331 -474 331 -474 194 -474 c 0,58,59
 122 -474 122 -474 78 -463 c 128,-1,60
 34 -452 34 -452 26 -446 c 1,61,-1
 61 -304 l 1,0,1
EndSplineSet
Substitution2: "'locl' Localized Forms lookup 7 subtable" uni0219
Substitution2: "'locl' Localized Forms lookup 6 subtable" uni0219
Substitution2: "'aalt' Access All Alternates in Latin lookup 0 subtable" uni0219
EndChar

StartChar: estimated
Encoding: 8494 8494 305
Width: 1407
Flags: HW
LayerCount: 2
Fore
SplineSet
1298 832 m 1,0,1
 1298 669.5 1298 669.5 1288 622 c 1,2,-1
 438 622 l 1,3,-1
 438 241 l 1,4,5
 549.516 124 549.516 124 770 124 c 0,6,7
 925.838 124 925.838 124 1078.5 195.5 c 0,8,9
 1118 214 1118 214 1144 231 c 1,10,-1
 1200 99 l 1,11,12
 1092.58 24.1308 1092.58 24.1308 883 -6.5 c 0,13,14
 818 -16 818 -16 755 -16 c 0,15,16
 455.565 -16 455.565 -16 287.5 166.5 c 0,17,18
 120 348.387 120 348.387 120 671 c 0,19,20
 120 976.58 120 976.58 276.5 1158 c 0,21,22
 447.394 1356.11 447.394 1356.11 765.8 1356.11 c 0,23,24
 984.304 1356.11 984.304 1356.11 1132.5 1219 c 0,25,26
 1290.16 1073.14 1290.16 1073.14 1298 832 c 1,0,1
995 1142 m 1,27,28
 906.2 1216 906.2 1216 725.933 1216 c 128,-1,29
 545.667 1216 545.667 1216 438 1097 c 1,30,-1
 438 768 l 1,31,-1
 995 768 l 1,32,-1
 995 1142 l 1,27,28
EndSplineSet
EndChar

StartChar: afii61352
Encoding: 8470 8470 306
Width: 2527
Flags: HW
LayerCount: 2
Fore
SplineSet
1701.5 666.5 m 128,-1,1
 1651 727 1651 727 1628.91 804.09 c 128,-1,2
 1606.82 881.18 1606.82 881.18 1606.82 932.164 c 128,-1,3
 1606.82 983.148 1606.82 983.148 1609.41 1038.57 c 128,-1,4
 1612 1094 1612 1094 1635.5 1168.5 c 128,-1,5
 1659 1243 1659 1243 1696 1302 c 128,-1,6
 1733 1361 1733 1361 1781 1404.5 c 128,-1,7
 1829 1448 1829 1448 1883 1476.5 c 0,8,9
 1990.05 1533 1990.05 1533 2096.03 1533 c 128,-1,10
 2202 1533 2202 1533 2276.5 1501 c 0,11,12
 2427.7 1436.05 2427.7 1436.05 2476 1265 c 0,13,14
 2495.2 1197 2495.2 1197 2495.2 1146.1 c 128,-1,15
 2495.2 1095.2 2495.2 1095.2 2492.6 1037.1 c 128,-1,16
 2490 979 2490 979 2466 903 c 128,-1,17
 2442 827 2442 827 2404 767.5 c 128,-1,18
 2366 708 2366 708 2317 665.5 c 128,-1,19
 2268 623 2268 623 2214.5 595 c 0,20,21
 2111.32 541 2111.32 541 2006.16 541 c 128,-1,22
 1901 541 1901 541 1826.5 573.5 c 128,-1,0
 1752 606 1752 606 1701.5 666.5 c 128,-1,1
5 96 m 1,23,-1
 152 125 l 1,24,-1
 317 1398 l 1,25,-1
 154 1422 l 1,26,-1
 166 1526 l 1,27,-1
 645 1526 l 1,28,-1
 1038 514 l 1,29,-1
 1127 255 l 1,30,-1
 1257 1398 l 1,31,-1
 1092 1422 l 1,32,-1
 1102 1526 l 1,33,-1
 1592 1526 l 1,34,-1
 1582 1422 l 1,35,-1
 1440 1398 l 1,36,-1
 1261 0 l 1,37,-1
 967 0 l 1,38,-1
 571 1014 l 1,39,-1
 467 1288 l 1,40,-1
 345 125 l 1,41,-1
 528 96 l 1,42,-1
 520 0 l 1,43,-1
 -3 0 l 1,44,-1
 5 96 l 1,23,-1
2015 664 m 0,45,46
 2257.23 664 2257.23 664 2257.23 1116.58 c 0,47,48
 2257.23 1321.6 2257.23 1321.6 2166 1386 c 0,49,50
 2132 1410 2132 1410 2076 1410 c 128,-1,51
 2020 1410 2020 1410 1975.5 1377.5 c 128,-1,52
 1931 1345 1931 1345 1903 1289.5 c 0,53,54
 1841.72 1168.03 1841.72 1168.03 1841.72 958.102 c 0,55,56
 1841.72 751.847 1841.72 751.847 1933.5 688 c 0,57,58
 1968 664 1968 664 2015 664 c 0,45,46
1549 163 m 1,59,-1
 2352 163 l 1,60,-1
 2340 0 l 1,61,-1
 1537 0 l 1,62,-1
 1549 163 l 1,59,-1
EndSplineSet
EndChar

StartChar: minute
Encoding: 8242 8242 307
Width: 623
Flags: HW
LayerCount: 2
Fore
SplineSet
368 1782 m 1,0,-1
 608 1782 l 1,1,-1
 452 1190 l 1,2,-1
 284 1190 l 1,3,-1
 368 1782 l 1,0,-1
EndSplineSet
EndChar

StartChar: quotereversed
Encoding: 8219 8219 309
Width: 692
Flags: HW
LayerCount: 2
Fore
SplineSet
405 926 m 1,0,1
 321.109 968.969 321.109 968.969 261.5 1072.5 c 0,2,3
 200 1179.32 200 1179.32 200 1275.66 c 128,-1,4
 200 1372 200 1372 223.5 1441.5 c 128,-1,5
 247 1511 247 1511 290.5 1569 c 0,6,7
 384.941 1694.92 384.941 1694.92 535 1730 c 1,8,-1
 631 1560 l 1,9,-1
 618 1519 l 1,10,11
 527.739 1505.84 527.739 1505.84 467.5 1411.5 c 0,12,13
 412 1324.58 412 1324.58 412 1228 c 0,14,15
 412 1125.5 412 1125.5 462 1063 c 0,16,17
 478 1043 478 1043 498 1033 c 1,18,-1
 491 1011 l 1,19,-1
 405 926 l 1,0,1
EndSplineSet
EndChar

StartChar: gcommaaccent
Encoding: 291 291 323
Width: 1187
Flags: HW
LayerCount: 2
Fore
SplineSet
721 1274 m 1,0,1
 654.475 1287.7 654.475 1287.7 613 1351 c 0,2,3
 575.667 1407.98 575.667 1407.98 575.667 1479.07 c 0,4,5
 575.667 1596.4 575.667 1596.4 659.5 1694 c 0,6,7
 728.418 1774.23 728.418 1774.23 805 1790 c 1,8,-1
 875 1735 l 1,9,-1
 872 1709 l 1,10,11
 803.979 1658.61 803.979 1658.61 799 1569 c 0,12,13
 795.58 1507.44 795.58 1507.44 840.5 1472.5 c 0,14,15
 854 1462 854 1462 869 1459 c 1,16,-1
 860 1386 l 1,17,-1
 721 1274 l 1,0,1
540.5 1131 m 0,18,19
 632 1163 632 1163 741.5 1163 c 128,-1,20
 851 1163 851 1163 972 1119 c 1,21,-1
 1113 1163 l 1,22,-1
 933 -77 l 2,23,24
 889.801 -375.795 889.801 -375.795 598.5 -474.5 c 0,25,26
 484.878 -513 484.878 -513 355 -513 c 0,27,28
 254.286 -513 254.286 -513 190.643 -496.5 c 128,-1,29
 127 -480 127 -480 112 -473 c 1,30,-1
 162 -273 l 1,31,32
 227.167 -314.893 227.167 -314.893 309.083 -332.446 c 128,-1,33
 391 -350 391 -350 440 -350 c 128,-1,34
 489 -350 489 -350 529 -342.5 c 128,-1,35
 569 -335 569 -335 596 -313 c 0,36,37
 646.428 -271.911 646.428 -271.911 664 -145 c 2,38,-1
 698 98 l 1,39,40
 575.083 -20 575.083 -20 414 -20 c 0,41,42
 243.635 -20 243.635 -20 154.5 103.5 c 0,43,44
 73 216.422 73 216.422 73 407 c 0,45,46
 73 692.398 73 692.398 244.5 915.5 c 0,47,48
 362.231 1068.65 362.231 1068.65 540.5 1131 c 0,18,19
830 1010 m 1,49,50
 782.333 1032 782.333 1032 714.167 1032 c 128,-1,51
 646 1032 646 1032 593.5 1004.5 c 128,-1,52
 541 977 541 977 500.5 930 c 128,-1,53
 460 883 460 883 431 821.5 c 128,-1,54
 402 760 402 760 383.5 692 c 0,55,56
 348 561.513 348 561.513 348 422.757 c 128,-1,57
 348 284 348 284 389 211 c 128,-1,58
 430 138 430 138 501 138 c 0,59,60
 615.167 138 615.167 138 721 265 c 1,61,-1
 830 1010 l 1,49,50
EndSplineSet
EndChar

StartChar: macron.cap
Encoding: 65548 -1 347
Width: 614
Flags: HW
LayerCount: 2
Fore
SplineSet
53 1897 m 1,0,-1
 593 1897 l 1,1,-1
 591 1718 l 1,2,-1
 51 1718 l 1,3,-1
 53 1897 l 1,0,-1
EndSplineSet
EndChar

StartChar: hcircumflex
Encoding: 293 293 404
Width: 1271
Flags: HW
LayerCount: 2
Fore
SplineSet
1064.5 131 m 128,-1,1
 1087 131 1087 131 1155 182 c 1,2,-1
 1184 119 l 1,3,4
 1135.81 43.266 1135.81 43.266 1015 -3 c 0,5,6
 968 -21 968 -21 915.5 -21 c 128,-1,7
 863 -21 863 -21 831 -10 c 128,-1,8
 799 1 799 1 780.5 20.5 c 0,9,10
 738.396 64.8798 738.396 64.8798 754.5 195.5 c 0,11,12
 763.231 266.319 763.231 266.319 775.616 333.66 c 2,13,-1
 813 535 l 1,14,15
 847 723.889 847 723.889 847 804.944 c 128,-1,16
 847 886 847 886 839.5 914.5 c 128,-1,17
 832 943 832 943 819.5 959 c 0,18,19
 799.188 985 799.188 985 757.094 985 c 128,-1,20
 715 985 715 985 676 965.5 c 128,-1,21
 637 946 637 946 598 912 c 0,22,23
 512.571 837.524 512.571 837.524 454 736 c 1,24,-1
 360 0 l 1,25,-1
 96 0 l 1,26,-1
 282 1482 l 1,27,-1
 160 1525 l 1,28,-1
 176 1608 l 1,29,-1
 514 1650 l 1,30,-1
 567 1623 l 1,31,-1
 562 1584 l 1,32,-1
 777 1803 l 1,33,-1
 955 1803 l 1,34,-1
 1166 1461 l 1,35,-1
 1070 1402 l 1,36,-1
 849 1620 l 1,37,-1
 540 1413 l 1,38,-1
 477 916 l 1,39,40
 594.095 1088.39 594.095 1088.39 758 1144 c 0,41,42
 814 1163 814 1163 874 1163 c 0,43,44
 1120 1163 1120 1163 1120 861 c 0,45,46
 1120 783.5 1120 783.5 1098.5 665.25 c 128,-1,47
 1077 547 1077 547 1070.5 507 c 128,-1,48
 1064 467 1064 467 1056.5 426.5 c 128,-1,49
 1049 386 1049 386 1043 346 c 0,50,51
 1017.12 173.447 1017.12 173.447 1029.56 152.224 c 128,-1,0
 1042 131 1042 131 1064.5 131 c 128,-1,1
EndSplineSet
EndChar

StartChar: Scedilla
Encoding: 350 350 415
Width: 1138
Flags: HW
LayerCount: 2
Fore
SplineSet
151 -304 m 1,0,1
 178.857 -319 178.857 -319 219.429 -319 c 128,-1,2
 260 -319 260 -319 290.5 -310 c 128,-1,3
 321 -301 321 -301 344.5 -280 c 0,4,5
 403.6 -227.187 403.6 -227.187 403.6 -83.88 c 0,6,7
 403.6 -47.6 403.6 -47.6 400 -20 c 1,8,9
 217.768 -8.61053 217.768 -8.61053 90 44 c 0,10,11
 56 58 56 58 41 70 c 1,12,-1
 91 368 l 1,13,-1
 252 368 l 1,14,-1
 270 167 l 1,15,16
 363.793 99 363.793 99 487 99 c 0,17,18
 680.94 99 680.94 99 748 225.5 c 0,19,20
 772.057 270.88 772.057 270.88 772.057 325.212 c 128,-1,21
 772.057 379.543 772.057 379.543 756.029 422.771 c 128,-1,22
 740 466 740 466 707.5 506 c 0,23,24
 656.748 568.464 656.748 568.464 556.374 633.232 c 128,-1,25
 456 698 456 698 396 744.5 c 128,-1,26
 336 791 336 791 289.5 846 c 0,27,28
 185.976 968.448 185.976 968.448 185.976 1117.06 c 0,29,30
 185.976 1315.33 185.976 1315.33 334.5 1435 c 0,31,32
 477.223 1550 477.223 1550 705 1550 c 0,33,34
 965.286 1550 965.286 1550 1091 1470 c 1,35,-1
 1041 1188 l 1,36,-1
 893 1188 l 1,37,-1
 864 1375 l 1,38,39
 792.654 1428 792.654 1428 679 1428 c 0,40,41
 516.103 1428 516.103 1428 462.5 1315 c 0,42,43
 442.949 1273.78 442.949 1273.78 442.949 1217.17 c 128,-1,44
 442.949 1160.56 442.949 1160.56 460.974 1114.28 c 128,-1,45
 479 1068 479 1068 514 1026.5 c 0,46,47
 570.556 959.44 570.556 959.44 672.278 894.72 c 128,-1,48
 774 830 774 830 832 786.5 c 128,-1,49
 890 743 890 743 935 691 c 0,50,51
 1035.03 575.41 1035.03 575.41 1035.03 430.541 c 0,52,53
 1035.03 246.428 1035.03 246.428 907.5 124 c 0,54,55
 776.095 -2.14912 776.095 -2.14912 548 -20 c 1,56,57
 567.571 -89.3895 567.571 -89.3895 567.571 -143.695 c 128,-1,58
 567.571 -198 567.571 -198 567 -212 c 0,59,60
 558 -352 558 -352 489.5 -413 c 128,-1,61
 421 -474 421 -474 284 -474 c 0,62,63
 212 -474 212 -474 168 -463 c 128,-1,64
 124 -452 124 -452 116 -446 c 1,65,-1
 151 -304 l 1,0,1
EndSplineSet
Substitution2: "'locl' Localized Forms lookup 7 subtable" uni0218
Substitution2: "'locl' Localized Forms lookup 6 subtable" uni0218
Substitution2: "'aalt' Access All Alternates in Latin lookup 0 subtable" uni0218
EndChar

StartChar: uni0162
Encoding: 354 354 418
Width: 1323
Flags: HW
LayerCount: 2
Fore
SplineSet
501 -224 m 128,-1,1
 516 -189 516 -189 519 -148 c 128,-1,2
 522 -107 522 -107 522 -71.5 c 128,-1,3
 522 -36 522 -36 516 0 c 1,4,-1
 204 0 l 1,5,-1
 215 100 l 1,6,-1
 462 126 l 1,7,-1
 634 1409 l 1,8,-1
 353 1382 l 1,9,-1
 233 1049 l 1,10,-1
 82 1048 l 1,11,-1
 160 1530 l 1,12,-1
 1415 1530 l 1,13,-1
 1355 1049 l 1,14,-1
 1210 1041 l 1,15,-1
 1187 1383 l 1,16,-1
 910 1409 l 1,17,-1
 737 126 l 1,18,-1
 1003 100 l 1,19,-1
 995 0 l 1,20,-1
 660 0 l 1,21,22
 689.693 -80.5953 689.693 -80.5953 682.846 -216.298 c 128,-1,23
 676 -352 676 -352 607.5 -413 c 128,-1,24
 539 -474 539 -474 402 -474 c 0,25,26
 330 -474 330 -474 286 -463 c 128,-1,27
 242 -452 242 -452 234 -446 c 1,28,-1
 269 -304 l 1,29,30
 296.857 -319 296.857 -319 337.429 -319 c 128,-1,31
 378 -319 378 -319 408.5 -310 c 128,-1,32
 439 -301 439 -301 462.5 -280 c 128,-1,0
 486 -259 486 -259 501 -224 c 128,-1,1
EndSplineSet
Substitution2: "'locl' Localized Forms lookup 7 subtable" uni021A
Substitution2: "'aalt' Access All Alternates in Latin lookup 0 subtable" uni021A
EndChar

StartChar: uni0163
Encoding: 355 355 419
Width: 730
Flags: HW
LayerCount: 2
Fore
SplineSet
-6 -304 m 1,0,1
 21.8571 -319 21.8571 -319 62.4286 -319 c 128,-1,2
 103 -319 103 -319 133.5 -310 c 128,-1,3
 164 -301 164 -301 187.5 -280 c 0,4,5
 247 -226.83 247 -226.83 247 -87.4444 c 0,6,7
 247 -50 247 -50 242 -10 c 1,8,9
 128 23.25 128 23.25 128 159 c 0,10,11
 128 205 128 205 148 345 c 1,12,-1
 234 1005 l 1,13,-1
 114 1005 l 1,14,-1
 136 1103 l 1,15,-1
 259 1150 l 1,16,17
 330.273 1221.27 330.273 1221.27 406 1416 c 1,18,-1
 548 1416 l 1,19,-1
 514 1155 l 1,20,-1
 749 1155 l 1,21,-1
 728 1005 l 1,22,-1
 495 1005 l 1,23,-1
 412 390 l 2,24,25
 396 268.857 396 268.857 396 226.429 c 128,-1,26
 396 184 396 184 413 164.5 c 128,-1,27
 430 145 430 145 462 145 c 128,-1,28
 494 145 494 145 518 150.5 c 128,-1,29
 542 156 542 156 567 166 c 0,30,31
 622.417 188.167 622.417 188.167 655 215 c 1,32,-1
 677 136 l 1,33,34
 611.782 59.2733 611.782 59.2733 484 11 c 0,35,36
 439 -6 439 -6 389 -14 c 1,37,38
 410.533 -83.9833 410.533 -83.9833 410.533 -141.325 c 128,-1,39
 410.533 -198.667 410.533 -198.667 410 -212 c 0,40,41
 401 -352 401 -352 332.5 -413 c 128,-1,42
 264 -474 264 -474 127 -474 c 0,43,44
 55 -474 55 -474 11 -463 c 128,-1,45
 -33 -452 -33 -452 -41 -446 c 1,46,-1
 -6 -304 l 1,0,1
EndSplineSet
Substitution2: "'locl' Localized Forms lookup 7 subtable" uni021B
Substitution2: "'aalt' Access All Alternates in Latin lookup 0 subtable" uni021B
EndChar

StartChar: lacute
Encoding: 314 314 422
Width: 620
Flags: HW
LayerCount: 2
Fore
SplineSet
377 207 m 1,0,1
 368.314 131 368.314 131 408.391 131 c 0,2,3
 431.783 131 431.783 131 485 167 c 1,4,-1
 514 105 l 1,5,6
 457.646 32.5447 457.646 32.5447 364 -4 c 0,7,8
 323 -20 323 -20 281 -20 c 128,-1,9
 239 -20 239 -20 208.5 -12.5 c 128,-1,10
 178 -5 178 -5 156 11 c 0,11,12
 109 45.1818 109 45.1818 109 115 c 1,13,-1
 116 192 l 1,14,-1
 284 1359 l 1,15,-1
 157 1402 l 1,16,-1
 177 1485 l 1,17,-1
 511 1527 l 1,18,-1
 561 1500 l 1,19,-1
 377 207 l 1,0,1
363 1665 m 1,20,-1
 639 2007 l 1,21,-1
 794 1846 l 1,22,23
 758.267 1774.53 758.267 1774.53 637 1692.5 c 0,24,25
 535.881 1624.1 535.881 1624.1 447 1592 c 1,26,-1
 363 1665 l 1,20,-1
EndSplineSet
EndChar

StartChar: iogonek
Encoding: 303 303 423
Width: 654
Flags: HW
LayerCount: 2
Fore
SplineSet
432 1363 m 0,0,1
 397 1363 397 1363 371.5 1375 c 128,-1,2
 346 1387 346 1387 327 1407 c 0,3,4
 258.925 1478.66 258.925 1478.66 302 1572.5 c 0,5,6
 330.77 1635.18 330.77 1635.18 392.5 1662.5 c 0,7,8
 423 1676 423 1676 457.5 1676 c 128,-1,9
 492 1676 492 1676 520 1664.5 c 0,10,11
 604.095 1629.96 604.095 1629.96 604.095 1543.12 c 0,12,13
 604.095 1466.23 604.095 1466.23 555 1415 c 0,14,15
 505.167 1363 505.167 1363 432 1363 c 0,0,1
475 -324 m 1,16,17
 345.833 -448 345.833 -448 178 -448 c 0,18,19
 50.125 -448 50.125 -448 14.5 -353 c 0,20,21
 4.91304 -327.435 4.91304 -327.435 4.91304 -311.609 c 128,-1,22
 4.91304 -295.783 4.91304 -295.783 5.45652 -280.391 c 128,-1,23
 6 -265 6 -265 17 -230 c 128,-1,24
 28 -195 28 -195 60 -151 c 0,25,26
 114.373 -76.2373 114.373 -76.2373 230 -12 c 1,27,28
 134.82 10.3954 134.82 10.3954 134.82 100.547 c 0,29,30
 134.82 121.352 134.82 121.352 150.91 238.676 c 2,31,-1
 255 980 l 1,32,-1
 99 1031 l 1,33,-1
 117 1112 l 1,34,-1
 491 1163 l 1,35,-1
 543 1139 l 1,36,-1
 409 207 l 2,37,38
 406.627 190.608 406.627 190.608 406.627 177.751 c 0,39,40
 406.627 131 406.627 131 438.996 131 c 128,-1,41
 471.364 131 471.364 131 537 188 c 1,42,-1
 567 125 l 1,43,44
 521.466 61.2524 521.466 61.2524 449 22 c 1,45,46
 242 -127.233 242 -127.233 242 -208 c 1,47,48
 239.366 -268.588 239.366 -268.588 279 -283 c 0,49,50
 290 -287 290 -287 302 -287 c 0,51,52
 358.727 -287 358.727 -287 444 -220 c 1,53,-1
 475 -324 l 1,16,17
EndSplineSet
EndChar

StartChar: uogonek
Encoding: 371 371 424
Width: 1242
Flags: HW
LayerCount: 2
Fore
SplineSet
751 135 m 1,0,1
 612.034 -20 612.034 -20 410 -20 c 0,2,3
 224.549 -20 224.549 -20 160.5 119 c 0,4,5
 137 170 137 170 137 224.5 c 128,-1,6
 137 279 137 279 140.5 321.5 c 128,-1,7
 144 364 144 364 149.5 410 c 128,-1,8
 155 456 155 456 162 504 c 2,9,-1
 228 962 l 1,10,-1
 115 1032 l 1,11,-1
 132 1121 l 1,12,-1
 455 1163 l 1,13,-1
 505 1139 l 1,14,-1
 436 589 l 2,15,16
 425 499 425 499 413.5 421.5 c 128,-1,17
 402 344 402 344 402 292 c 128,-1,18
 402 240 402 240 410 211 c 128,-1,19
 418 182 418 182 433 164.5 c 0,20,21
 460 133 460 133 506.5 133 c 128,-1,22
 553 133 553 133 584.5 142.5 c 128,-1,23
 616 152 616 152 645 167.5 c 0,24,25
 702.448 198.205 702.448 198.205 747 247 c 1,26,-1
 869 1155 l 1,27,-1
 1128 1155 l 1,28,-1
 1002 208 l 2,29,30
 1000.04 193.098 1000.04 193.098 1000.04 181.118 c 0,31,32
 1000.04 132 1000.04 132 1030.81 132 c 128,-1,33
 1061.59 132 1061.59 132 1132 189 c 1,34,-1
 1161 126 l 1,35,36
 1118.09 57.3377 1118.09 57.3377 1026 13 c 1,37,38
 831 -124.927 831 -124.927 831 -208 c 1,39,40
 828.366 -268.587 828.366 -268.587 868 -283 c 0,41,42
 879 -287 879 -287 891 -287 c 0,43,44
 947.727 -287 947.727 -287 1033 -220 c 1,45,-1
 1064 -324 l 1,46,47
 934.833 -448 934.833 -448 767 -448 c 0,48,49
 639.125 -448 639.125 -448 603.5 -353 c 0,50,51
 583.829 -300.544 583.829 -300.544 600.415 -247.772 c 128,-1,52
 617 -195 617 -195 650.5 -149.5 c 0,53,54
 708.771 -70.3559 708.771 -70.3559 826 -8 c 1,55,56
 748.538 18.3699 748.538 18.3699 748.538 103.899 c 0,57,58
 748.538 118.692 748.538 118.692 751 135 c 1,0,1
EndSplineSet
EndChar

StartChar: Iogonek
Encoding: 302 302 426
Width: 706
Flags: HW
LayerCount: 2
Fore
SplineSet
421 -324 m 1,0,1
 291.833 -448 291.833 -448 124 -448 c 0,2,3
 -3.875 -448 -3.875 -448 -39.5 -353 c 0,4,5
 -49.087 -327.435 -49.087 -327.435 -49.087 -311.609 c 128,-1,6
 -49.087 -295.783 -49.087 -295.783 -48.5435 -280.391 c 128,-1,7
 -48 -265 -48 -265 -37 -230 c 128,-1,8
 -26 -195 -26 -195 -3.5 -164.5 c 128,-1,9
 19 -134 19 -134 45 -108 c 128,-1,10
 71 -82 71 -82 97 -62.5 c 0,11,12
 135.87 -33.3478 135.87 -33.3478 200 0 c 1,13,-1
 -21 0 l 1,14,-1
 -10 96 l 1,15,-1
 139 126 l 1,16,-1
 302 1400 l 1,17,-1
 162 1425 l 1,18,-1
 174 1530 l 1,19,-1
 751 1530 l 1,20,-1
 740 1425 l 1,21,-1
 577 1400 l 1,22,-1
 414 126 l 1,23,-1
 580 97 l 1,24,-1
 573 0 l 1,25,-1
 365 0 l 1,26,27
 189 -133.189 189 -133.189 189 -208 c 1,28,29
 186.366 -268.588 186.366 -268.588 226 -283 c 0,30,31
 237 -287 237 -287 249 -287 c 0,32,33
 304.727 -287 304.727 -287 390 -220 c 1,34,-1
 421 -324 l 1,0,1
EndSplineSet
EndChar

StartChar: Uogonek
Encoding: 370 370 427
Width: 1379
Flags: HW
LayerCount: 2
Fore
SplineSet
641 -19 m 1,0,-1
 617 -20 l 1,1,2
 362.555 -20 362.555 -20 236 105.5 c 0,3,4
 119.6 220.93 119.6 220.93 119.6 459.44 c 0,5,6
 119.6 526.4 119.6 526.4 127 593 c 1,7,-1
 231 1401 l 1,8,-1
 92 1425 l 1,9,-1
 105 1530 l 1,10,-1
 698 1530 l 1,11,-1
 688 1426 l 1,12,-1
 514 1400 l 1,13,-1
 413 617 l 1,14,15
 399 481.667 399 481.667 399.5 412.833 c 128,-1,16
 400 344 400 344 417 284 c 128,-1,17
 434 224 434 224 467 182.5 c 0,18,19
 534.988 97 534.988 97 663 97 c 0,20,21
 992.52 97 992.52 97 1056 626 c 1,22,-1
 1160 1400 l 1,23,-1
 1009 1425 l 1,24,-1
 1020 1530 l 1,25,-1
 1478 1530 l 1,26,-1
 1465 1425 l 1,27,-1
 1339 1401 l 1,28,-1
 1238 627 l 2,29,30
 1185.57 222.089 1185.57 222.089 977 77 c 0,31,32
 908 29 908 29 822 5 c 1,33,34
 689 -132.926 689 -132.926 689 -203 c 1,35,36
 686.25 -266.239 686.25 -266.239 726 -282.5 c 0,37,38
 737 -287 737 -287 749 -287 c 0,39,40
 806.758 -287 806.758 -287 890 -220 c 1,41,-1
 921 -324 l 1,42,43
 797 -448 797 -448 624 -448 c 0,44,45
 539.595 -448 539.595 -448 492.5 -402 c 0,46,47
 451 -361.465 451 -361.465 451 -293 c 1,48,49
 456.055 -156.523 456.055 -156.523 641 -19 c 1,0,-1
EndSplineSet
EndChar

StartChar: Hbar
Encoding: 294 294 428
Width: 1593
Flags: HW
LayerCount: 2
Fore
SplineSet
10 96 m 1,0,-1
 153 126 l 1,1,-1
 260 983 l 1,2,-1
 76 983 l 1,3,-1
 90 1123 l 1,4,-1
 278 1123 l 1,5,-1
 313 1400 l 1,6,-1
 174 1425 l 1,7,-1
 187 1530 l 1,8,-1
 766 1530 l 1,9,-1
 755 1425 l 1,10,-1
 588 1400 l 1,11,-1
 553 1123 l 1,12,-1
 1156 1123 l 1,13,-1
 1191 1400 l 1,14,-1
 1028 1425 l 1,15,-1
 1039 1530 l 1,16,-1
 1624 1530 l 1,17,-1
 1612 1425 l 1,18,-1
 1466 1400 l 1,19,-1
 1431 1123 l 1,20,-1
 1622 1123 l 1,21,-1
 1608 983 l 1,22,-1
 1413 983 l 1,23,-1
 1306 127 l 1,24,-1
 1460 96 l 1,25,-1
 1450 0 l 1,26,-1
 843 0 l 1,27,-1
 854 97 l 1,28,-1
 1031 127 l 1,29,-1
 1092 613 l 1,30,-1
 489 613 l 1,31,-1
 428 126 l 1,32,-1
 593 97 l 1,33,-1
 585 0 l 1,34,-1
 -1 0 l 1,35,-1
 10 96 l 1,0,-1
1110 758 m 1,36,-1
 1138 983 l 1,37,-1
 535 983 l 1,38,-1
 507 758 l 1,39,-1
 1110 758 l 1,36,-1
EndSplineSet
EndChar

StartChar: Tbar
Encoding: 358 358 431
Width: 1225
Flags: HW
LayerCount: 2
Fore
SplineSet
170 100 m 1,0,-1
 417 126 l 1,1,-1
 494 701 l 1,2,-1
 257 701 l 1,3,-1
 273 841 l 1,4,-1
 513 841 l 1,5,-1
 589 1409 l 1,6,-1
 308 1382 l 1,7,-1
 188 1049 l 1,8,-1
 37 1048 l 1,9,-1
 115 1530 l 1,10,-1
 1370 1530 l 1,11,-1
 1310 1049 l 1,12,-1
 1165 1041 l 1,13,-1
 1142 1383 l 1,14,-1
 865 1409 l 1,15,-1
 788 841 l 1,16,-1
 1049 841 l 1,17,-1
 1033 701 l 1,18,-1
 769 701 l 1,19,-1
 692 126 l 1,20,-1
 958 100 l 1,21,-1
 950 0 l 1,22,-1
 159 0 l 1,23,-1
 170 100 l 1,0,-1
EndSplineSet
EndChar

StartChar: tbar
Encoding: 359 359 432
Width: 730
Flags: HW
LayerCount: 2
Fore
SplineSet
143.5 73.5 m 128,-1,1
 128 108 128 108 128 136 c 128,-1,2
 128 164 128 164 128.5 172.5 c 128,-1,3
 129 181 129 181 130.5 200.5 c 0,4,5
 134.167 248.167 134.167 248.167 148 345 c 1,6,-1
 184 621 l 1,7,-1
 74 621 l 1,8,-1
 90 751 l 1,9,-1
 201 751 l 1,10,-1
 234 1005 l 1,11,-1
 114 1005 l 1,12,-1
 136 1103 l 1,13,-1
 259 1150 l 1,14,15
 330.273 1221.27 330.273 1221.27 406 1416 c 1,16,-1
 548 1416 l 1,17,-1
 514 1155 l 1,18,-1
 749 1155 l 1,19,-1
 728 1005 l 1,20,-1
 495 1005 l 1,21,-1
 460 751 l 1,22,-1
 672 751 l 1,23,-1
 656 621 l 1,24,-1
 443 621 l 1,25,-1
 412 390 l 2,26,27
 396 268.857 396 268.857 396 226.429 c 128,-1,28
 396 184 396 184 413 164.5 c 128,-1,29
 430 145 430 145 462 145 c 128,-1,30
 494 145 494 145 518 150.5 c 128,-1,31
 542 156 542 156 567 166 c 0,32,33
 622.417 188.167 622.417 188.167 655 215 c 1,34,-1
 677 136 l 1,35,36
 592.523 38.8515 592.523 38.8515 434.5 -4.5 c 0,37,38
 378 -20 378 -20 328.5 -20 c 128,-1,39
 279 -20 279 -20 245 -11.5 c 128,-1,40
 211 -3 211 -3 185 18 c 128,-1,0
 159 39 159 39 143.5 73.5 c 128,-1,1
EndSplineSet
EndChar

StartChar: dcroat
Encoding: 273 273 434
Width: 1219
Flags: HW
LayerCount: 2
Fore
SplineSet
984 208 m 2,0,1
 973.306 131 973.306 131 1016.93 131 c 0,2,3
 1041.86 131 1041.86 131 1101 177 c 1,4,-1
 1131 115 l 1,5,6
 1067.7 35.8772 1067.7 35.8772 974.5 -2.5 c 0,7,8
 932 -20 932 -20 867 -20 c 0,9,10
 730.048 -20 730.048 -20 732 144 c 1,11,12
 647.68 34.0179 647.68 34.0179 515.5 -5.5 c 0,13,14
 467 -20 467 -20 394.5 -20 c 128,-1,15
 322 -20 322 -20 258.5 13 c 128,-1,16
 195 46 195 46 154 103.5 c 0,17,18
 74 215.695 74 215.695 74 407 c 0,19,20
 74 693.676 74 693.676 241.5 915.5 c 0,21,22
 357.117 1068.61 357.117 1068.61 535.5 1131 c 0,23,24
 627 1163 627 1163 706.5 1163 c 128,-1,25
 786 1163 786 1163 856 1149 c 1,26,-1
 873 1262 l 1,27,-1
 607 1262 l 1,28,-1
 623 1392 l 1,29,-1
 892 1392 l 1,30,-1
 906 1482 l 1,31,-1
 766 1525 l 1,32,-1
 786 1608 l 1,33,-1
 1134 1650 l 1,34,-1
 1189 1623 l 1,35,-1
 1155 1392 l 1,36,-1
 1285 1392 l 1,37,-1
 1269 1262 l 1,38,-1
 1136 1262 l 1,39,-1
 984 208 l 2,0,1
835 1006 m 1,40,41
 784.857 1032 784.857 1032 713.929 1032 c 128,-1,42
 643 1032 643 1032 590.5 1004.5 c 128,-1,43
 538 977 538 977 497.5 930 c 128,-1,44
 457 883 457 883 428.5 821.5 c 128,-1,45
 400 760 400 760 382 692 c 0,46,47
 347 559.778 347 559.778 347 421.889 c 128,-1,48
 347 284 347 284 387 211 c 128,-1,49
 427 138 427 138 498 138 c 0,50,51
 621.5 138 621.5 138 726 281 c 1,52,-1
 835 1006 l 1,40,41
EndSplineSet
EndChar

StartChar: hbar
Encoding: 295 295 435
Width: 1270
Flags: HW
LayerCount: 2
Fore
SplineSet
1063.5 131 m 128,-1,1
 1086 131 1086 131 1154 182 c 1,2,-1
 1183 119 l 1,3,4
 1134.81 43.266 1134.81 43.266 1014 -3 c 0,5,6
 967 -21 967 -21 914.5 -21 c 128,-1,7
 862 -21 862 -21 830 -10 c 128,-1,8
 798 1 798 1 779.5 20.5 c 0,9,10
 737.396 64.8798 737.396 64.8798 753.5 195.5 c 0,11,12
 762.231 266.319 762.231 266.319 774.616 333.66 c 2,13,-1
 812 535 l 1,14,15
 846 723.889 846 723.889 846 804.944 c 128,-1,16
 846 886 846 886 838.5 914.5 c 128,-1,17
 831 943 831 943 818.5 959 c 0,18,19
 798.188 985 798.188 985 756.094 985 c 128,-1,20
 714 985 714 985 675 965.5 c 128,-1,21
 636 946 636 946 597 912 c 0,22,23
 511.571 837.524 511.571 837.524 453 736 c 1,24,-1
 359 0 l 1,25,-1
 95 0 l 1,26,-1
 253 1262 l 1,27,-1
 109 1262 l 1,28,-1
 125 1392 l 1,29,-1
 269 1392 l 1,30,-1
 281 1482 l 1,31,-1
 159 1525 l 1,32,-1
 175 1608 l 1,33,-1
 513 1650 l 1,34,-1
 566 1623 l 1,35,-1
 536 1392 l 1,36,-1
 757 1392 l 1,37,-1
 741 1262 l 1,38,-1
 520 1262 l 1,39,-1
 476 916 l 1,40,41
 593.095 1088.39 593.095 1088.39 757 1144 c 0,42,43
 813 1163 813 1163 873 1163 c 0,44,45
 1119 1163 1119 1163 1119 861 c 0,46,47
 1119 783.5 1119 783.5 1097.5 665.25 c 128,-1,48
 1076 547 1076 547 1069.5 507 c 128,-1,49
 1063 467 1063 467 1055.5 426.5 c 128,-1,50
 1048 386 1048 386 1042 346 c 0,51,52
 1016.12 173.447 1016.12 173.447 1028.56 152.224 c 128,-1,0
 1041 131 1041 131 1063.5 131 c 128,-1,1
EndSplineSet
EndChar

StartChar: eng
Encoding: 331 331 436
Width: 1276
Flags: HW
LayerCount: 2
Fore
SplineSet
423 -385 m 1,0,1
 451 -397 451 -397 506 -397 c 128,-1,2
 561 -397 561 -397 606.5 -364.5 c 128,-1,3
 652 -332 652 -332 683 -274.5 c 0,4,5
 734.412 -179.139 734.412 -179.139 769 33 c 1,6,-1
 780 114.5 l 2,7,8
 787 165 787 165 795 229.5 c 0,9,10
 858.571 766.967 858.571 766.967 858.571 828.055 c 128,-1,11
 858.571 889.143 858.571 889.143 854.286 913.571 c 128,-1,12
 850 938 850 938 837.5 954.5 c 0,13,14
 814.394 985 814.394 985 772.197 985 c 128,-1,15
 730 985 730 985 693 968 c 128,-1,16
 656 951 656 951 617.5 920 c 0,17,18
 535.276 853.794 535.276 853.794 470 745 c 1,19,-1
 368 0 l 1,20,-1
 109 0 l 1,21,-1
 238 954 l 1,22,-1
 135 1014 l 1,23,-1
 152 1103 l 1,24,-1
 460 1155 l 1,25,-1
 510 1131 l 1,26,-1
 494 931 l 1,27,28
 609.953 1091.29 609.953 1091.29 768 1143.5 c 0,29,30
 824 1162 824 1162 881.5 1162 c 128,-1,31
 939 1162 939 1162 986 1147.5 c 0,32,33
 1132.11 1102.42 1132.11 1102.42 1132.11 897.839 c 0,34,35
 1132.11 664.985 1132.11 664.985 1059.5 189.5 c 0,36,37
 1014.58 -104.625 1014.58 -104.625 963.292 -225.313 c 128,-1,38
 912 -346 912 -346 853.5 -407.5 c 0,39,40
 743.634 -523 743.634 -523 542 -523 c 0,41,42
 421.944 -523 421.944 -523 387 -486 c 1,43,-1
 423 -385 l 1,0,1
EndSplineSet
EndChar

StartChar: Eng
Encoding: 330 330 437
Width: 1531
Flags: HW
LayerCount: 2
Fore
SplineSet
8 96 m 1,0,-1
 151 125 l 1,1,-1
 328 1400 l 1,2,-1
 167 1425 l 1,3,-1
 184 1530 l 1,4,-1
 633 1530 l 1,5,-1
 1066 519 l 1,6,-1
 1132 298 l 1,7,-1
 1261 1401 l 1,8,-1
 1105 1425 l 1,9,-1
 1117 1530 l 1,10,-1
 1591 1530 l 1,11,-1
 1581 1425 l 1,12,-1
 1446 1400 l 1,13,-1
 1244 0 l 2,14,15
 1218.96 -173.348 1218.96 -173.348 1075.5 -292 c 0,16,17
 939.75 -404.274 939.75 -404.274 747 -425 c 1,18,-1
 705 -322 l 1,19,20
 816.485 -293.014 816.485 -293.014 903.5 -211 c 0,21,22
 1002.26 -117.919 1002.26 -117.919 1006 0 c 1,23,-1
 534 1062 l 1,24,-1
 466 1280 l 1,25,-1
 346 126 l 1,26,-1
 518 97 l 1,27,-1
 508 0 l 1,28,-1
 0 0 l 1,29,-1
 8 96 l 1,0,-1
EndSplineSet
EndChar

